<svg width="112" height="31" viewBox="0 0 112 31" fill="none" xmlns="http://www.w3.org/2000/svg">
  <!-- Left Cheek/Blush -->
  <path id="left_cheek" d="M36.957 16.513C37.967 20.678 30.288 26.566 19.63 26.551C8.97102 26.566 1.29302 20.678 2.30302 16.513C3.28902 12.273 10.983 10.85 19.63 10.792C28.276 10.85 35.97 12.274 36.957 16.513Z" fill="#FF9861"/>
  
  <!-- Right Cheek/Blush -->
  <path id="right_cheek" d="M109.095 16.513C110.105 20.678 102.426 26.566 91.768 26.551C81.109 26.566 73.431 20.678 74.441 16.513C75.427 12.273 83.121 10.85 91.768 10.792C100.415 10.85 108.109 12.274 109.095 16.513Z" fill="#FF9861"/>
  
  <!-- Right Tear -->
  <path id="right_tear_base" d="M98.043 28.162C94.721 31.484 89.335 31.484 86.013 28.162C83.39 25.539 82.769 21.519 84.478 18.227L90.74 6.16399C91.282 5.12099 92.774 5.12099 93.316 6.16399L99.578 18.227C101.287 21.519 100.666 25.539 98.043 28.162Z" fill="#41CBFA"/>
  <path id="right_tear_highlight_main" d="M85.981 24.475C86.209 25.355 86.572 26.233 87.235 26.854C87.898 27.475 88.916 27.781 89.746 27.411C90.693 26.989 91.121 25.825 91.015 24.794C90.91 23.763 90.389 22.827 89.893 21.916C89.398 21.005 88.906 20.046 88.868 19.01C88.851 18.54 88.929 18.069 88.896 17.6C88.842 16.83 88.226 15.877 87.326 16.301C86.75 16.572 86.556 17.566 86.35 18.11C85.586 20.134 85.438 22.379 85.981 24.475Z" fill="white"/>
  <path id="right_tear_highlight_top" d="M88.449 13.685C88.338 14.151 88.267 14.684 88.548 15.072C88.786 15.4 89.24 15.531 89.635 15.439C90.03 15.347 90.361 15.061 90.571 14.715C90.857 14.243 90.926 13.616 90.649 13.138C90.007 12.032 88.687 12.686 88.449 13.685Z" fill="white"/>
  
  <!-- Left Tear -->
  <path id="left_tear_base" d="M25.385 28.162C22.063 31.484 16.677 31.484 13.355 28.162C10.732 25.539 10.111 21.519 11.82 18.227L18.082 6.16399C18.624 5.12099 20.116 5.12099 20.658 6.16399L26.92 18.227C28.629 21.519 28.008 25.539 25.385 28.162Z" fill="#41CBFA"/>
  <path id="left_tear_highlight_main" d="M13.324 24.475C13.552 25.355 13.915 26.233 14.578 26.854C15.241 27.475 16.259 27.781 17.089 27.411C18.036 26.989 18.464 25.825 18.358 24.794C18.253 23.763 17.732 22.827 17.236 21.916C16.741 21.005 16.249 20.046 16.211 19.01C16.194 18.54 16.272 18.069 16.239 17.6C16.185 16.83 15.569 15.877 14.669 16.301C14.093 16.572 13.899 17.566 13.693 18.11C12.928 20.134 12.781 22.379 13.324 24.475Z" fill="white"/>
  <path id="left_tear_highlight_top" d="M15.791 13.685C15.68 14.151 15.609 14.684 15.89 15.072C16.128 15.4 16.582 15.531 16.977 15.439C17.372 15.347 17.703 15.061 17.913 14.715C18.199 14.243 18.268 13.616 17.991 13.138C17.35 12.032 16.03 12.686 15.791 13.685Z" fill="white"/>
  
  <!-- Eyes/Brows -->
  <path id="left_eye_flat" d="M39.46 3.767C39.46 5.848 30.627 7.534 19.73 7.534C8.83401 7.534 0 5.847 0 3.767C0 1.686 8.83301 0 19.73 0C30.627 0 39.46 1.686 39.46 3.767Z" fill="#262626"/>
  <path id="right_eye_flat" d="M71.938 3.767C71.938 5.848 80.771 7.534 91.668 7.534C102.564 7.534 111.398 5.847 111.398 3.767C111.398 1.686 102.565 0 91.668 0C80.771 0 71.938 1.686 71.938 3.767Z" fill="#262626"/>
  
  <!-- Muzzle/Sad Mouth -->
  <path id="muzzle_sad" d="M70.027 28.842C67.997 31.315 61.905 30.008 55.699 30.196C49.492 30.008 43.4 31.315 41.371 28.842C39.187 26.52 45.01 18.712 55.699 18.672C66.388 18.712 72.212 26.52 70.027 28.842Z" fill="#FF9861"/>
  <path id="muzzle_shadow" d="M70.027 28.842C70.098 28.766 70.138 28.67 70.192 28.583C67.077 26.408 62.1 24.543 55.699 24.524C49.297 24.543 44.321 26.408 41.206 28.583C41.26 28.67 41.3 28.766 41.371 28.842C43.401 31.315 49.493 30.008 55.699 30.196C61.905 30.008 67.997 31.315 70.027 28.842Z" fill="#CF6D38"/>
</svg>