<svg width="119" height="47" viewBox="0 0 119 47" fill="none" xmlns="http://www.w3.org/2000/svg">
  <!-- Left Cheek/Blush -->
  <path id="left_cheek" d="M40.3658 33.0706C41.3758 37.2356 33.6968 43.1236 23.0388 43.1086C12.3798 43.1236 4.70177 37.2356 5.71177 33.0706C6.69777 28.8306 14.3918 27.4075 23.0388 27.3495C31.6848 27.4065 39.3798 28.8306 40.3658 33.0706Z" fill="#FF9861"/>
  
  <!-- Right Cheek/Blush -->
  <path id="right_cheek" d="M112.505 33.0706C113.515 37.2356 105.836 43.1236 95.1778 43.1086C84.5188 43.1236 76.8408 37.2356 77.8508 33.0706C78.8368 28.8306 86.5308 27.4075 95.1778 27.3495C103.824 27.4065 111.518 28.8306 112.505 33.0706Z" fill="#FF9861"/>
  
  <!-- Left Eye -->
  <path id="left_eye_base" d="M31.2837 8.11755C31.2757 8.12355 31.2697 8.12955 31.2617 8.13455C25.6397 12.2986 17.6597 16.9695 10.4307 14.6285C9.87374 16.1265 9.55475 17.7406 9.55475 19.4326C9.55475 27.0626 15.7407 33.2485 23.3707 33.2485C31.0007 33.2485 37.1867 27.0626 37.1867 19.4326C37.1867 14.7486 34.8497 10.6156 31.2837 8.11755Z" fill="#262626"/>
  <path id="left_eye_glint_top" d="M29.8557 9.14554C28.5707 10.0475 27.1887 10.9415 25.7387 11.7615C25.7447 12.7365 26.0557 13.8185 26.7057 14.8195C28.0977 16.9635 30.4577 17.9025 31.9767 16.9165C33.4957 15.9305 33.5987 13.3925 32.2057 11.2485C31.5687 10.2655 30.7257 9.55254 29.8557 9.14554Z" fill="white"/>
  <path id="left_eye_glint_bottom_left" d="M15.1897 28.1216C16.2192 28.1216 17.0537 27.287 17.0537 26.2575C17.0537 25.2281 16.2192 24.3936 15.1897 24.3936C14.1603 24.3936 13.3257 25.2281 13.3257 26.2575C13.3257 27.287 14.1603 28.1216 15.1897 28.1216Z" fill="white"/>
  <path id="left_eye_glint_bottom_right" d="M33.4338 21.8945C34.4632 21.8945 35.2978 21.06 35.2978 20.0305C35.2978 19.0011 34.4632 18.1665 33.4338 18.1665C32.4043 18.1665 31.5698 19.0011 31.5698 20.0305C31.5698 21.06 32.4043 21.8945 33.4338 21.8945Z" fill="white"/>
  
  <!-- Right Eye -->
  <path id="right_eye_base" d="M87.2727 8.39053C87.2667 8.38453 87.2617 8.37755 87.2567 8.37155C83.8857 10.8906 81.6937 14.9005 81.6937 19.4335C81.6937 27.0635 87.8797 33.2495 95.5097 33.2495C103.14 33.2495 109.326 27.0635 109.326 19.4335C109.326 17.6825 108.987 16.0145 108.393 14.4735C100.936 15.4575 92.1417 13.5395 87.2727 8.39053Z" fill="#262626"/>
  <path id="right_eye_glint_top" d="M98.4487 14.1015C98.5657 14.3435 98.6927 14.5845 98.8457 14.8195C100.238 16.9635 102.598 17.9025 104.117 16.9165C104.824 16.4575 105.21 15.6565 105.296 14.7225C103.021 14.7775 100.697 14.5665 98.4487 14.1015Z" fill="white"/>
  <path id="right_eye_glint_bottom_left" d="M87.3277 28.1216C88.3572 28.1216 89.1917 27.287 89.1917 26.2575C89.1917 25.2281 88.3572 24.3936 87.3277 24.3936C86.2983 24.3936 85.4637 25.2281 85.4637 26.2575C85.4637 27.287 86.2983 28.1216 87.3277 28.1216Z" fill="white"/>
  <path id="right_eye_glint_bottom_right" d="M105.573 21.8945C106.602 21.8945 107.437 21.06 107.437 20.0305C107.437 19.0011 106.602 18.1665 105.573 18.1665C104.543 18.1665 103.709 19.0011 103.709 20.0305C103.709 21.06 104.543 21.8945 105.573 21.8945Z" fill="white"/>
  
  <!-- Muzzle/Nose Area -->
  <path id="muzzle_base" d="M72.6577 45.4616C68.8617 48.2086 63.4257 45.5735 59.4397 46.3815C55.4537 45.5735 50.0177 48.2086 46.2217 45.4616C42.3197 42.2706 48.7167 27.7235 59.4397 28.0895C70.1617 27.7235 76.5597 42.2706 72.6577 45.4616Z" fill="#FF9861"/>
  <path id="muzzle_shadow" d="M51.4217 38.7865C49.8047 40.9265 48.7307 43.7045 48.1337 46.5625C51.8967 46.9615 55.9837 46.0745 59.4407 46.3825C60.2457 46.3835 61.0237 46.3755 61.8197 46.3775C62.0677 45.7305 62.3067 45.0765 62.4987 44.3855C63.1687 42.0735 63.2037 38.8036 60.9207 36.5826C58.5727 34.1886 54.1077 34.9985 51.4217 38.7865Z" fill="#C2734A"/>
  
  <!-- Eyebrows (Angry/Pouting) -->
  <path id="left_eyebrow" d="M0.795756 14.9146C7.01676 18.1526 14.3788 19.1436 21.2348 17.6656C28.0908 16.1876 34.3908 12.2525 38.7268 6.73954C39.5648 5.67354 38.8927 4.16054 37.7297 3.46354C36.5667 2.76654 35.0468 2.95955 33.8338 3.56455C32.6198 4.16955 31.6297 5.12955 30.5937 6.00455C23.7477 11.7826 14.0647 14.0216 5.37675 11.8366C3.98775 11.4876 2.47775 11.0405 1.17375 11.6315C-0.131253 12.2235 -0.475244 14.2536 0.795756 14.9146Z" fill="#262626"/>
  <path id="right_eyebrow" d="M118.085 14.9146C111.864 18.1526 104.502 19.1436 97.6458 17.6656C90.7898 16.1876 84.4898 12.2525 80.1538 6.73954C79.3158 5.67354 79.9878 4.16054 81.1498 3.46354C82.3128 2.76654 83.8328 2.95955 85.0468 3.56455C86.2608 4.16955 87.2508 5.12955 88.2878 6.00455C95.1338 11.7826 104.817 14.0216 113.504 11.8366C114.893 11.4876 116.402 11.0405 117.707 11.6315C119.012 12.2235 119.355 14.2536 118.085 14.9146Z" fill="#262626"/>
</svg>