<svg width="150" height="139" viewBox="0 0 150 139" fill="none" xmlns="http://www.w3.org/2000/svg">
<path d="M140.32 55.7666C135.136 59.9016 134.209 67.0506 130.48 72.2386C125.439 79.2516 117.543 83.1336 109.044 83.8746C88.09 85.7006 67.02 86.1956 46.004 85.3566C43.971 85.2756 41.89 85.1706 40.013 84.3846C35.596 82.5336 33.276 78.4696 28.467 77.2756C24.541 76.3006 21.828 72.7816 19.705 69.3376C17.582 65.8936 15.566 62.1306 12.104 60.0386C9.13204 58.2426 5.34303 57.8576 2.77803 55.5156C-2.02797 51.1266 0.178032 40.9186 3.55503 36.3196C8.22003 29.9666 18.303 29.4816 22.703 22.9426C25.242 19.1686 25.375 14.0046 28.466 10.6666C29.511 9.5386 30.828 8.7016 32.162 7.9376C35.147 6.2266 38.356 4.7926 41.767 4.3446C49.109 3.3816 56.489 7.0626 63.82 6.0166C66.188 5.6786 68.456 4.8566 70.704 4.0396C76.234 2.0296 82.643 -1.1094 88.655 0.394602C91.438 1.0906 93.865 2.7706 96.542 3.7996C101.783 5.8146 107.601 5.2326 113.215 5.1586C117.74 5.0996 122.27 5.3916 126.75 6.0316C129.34 6.4016 131.959 6.90261 134.279 8.11161C137.687 9.88761 140.161 13.0336 142.235 16.2696C148.026 25.3056 151.541 36.4956 148.711 46.8486C148.249 48.5366 147.6 50.2236 146.429 51.5236C144.764 53.3726 142.265 54.2156 140.32 55.7666Z" fill="#F6F5E1"/>
<path d="M65.854 84.2516C59.283 84.2516 52.625 84.1186 46.063 83.8566C44.287 83.7856 42.274 83.7046 40.593 82.9996C38.829 82.2606 37.41 81.1066 35.909 79.8846C33.901 78.2516 31.825 76.5616 28.829 75.8176C25.307 74.9426 22.786 71.4736 20.983 68.5496C20.754 68.1776 20.525 67.8016 20.296 67.4236C18.322 64.1716 16.281 60.8086 12.88 58.7526C11.52 57.9306 10.054 57.3946 8.63602 56.8766C6.80202 56.2066 5.07002 55.5736 3.79002 54.4046C-0.189979 50.7706 1.63702 41.4656 4.76502 37.2056C6.83002 34.3926 10.154 32.8176 13.672 31.1496C17.51 29.3306 21.478 27.4486 23.948 23.7786C25.194 21.9266 25.89 19.8406 26.564 17.8236C27.341 15.4956 28.075 13.2966 29.568 11.6846C30.49 10.6886 31.718 9.92059 32.909 9.23859C36.336 7.27459 39.212 6.19259 41.963 5.83159C42.73 5.73159 43.514 5.68159 44.36 5.68159C47.003 5.68159 49.641 6.16159 52.434 6.66959C55.233 7.17859 58.127 7.70559 61.036 7.70559C62.09 7.70559 63.07 7.63859 64.033 7.50159C66.566 7.13959 68.931 6.28059 71.218 5.44859C72.054 5.14459 72.91 4.81559 73.783 4.47959C77.59 3.01459 81.526 1.49959 85.329 1.49959C86.368 1.49959 87.365 1.61759 88.292 1.84959C89.8 2.22659 91.227 2.94059 92.737 3.69659C93.783 4.21959 94.864 4.76159 96.004 5.19959C99.655 6.60359 103.422 6.79359 106.625 6.79359C107.921 6.79359 109.231 6.7576 110.498 6.7226C111.413 6.6966 112.327 6.67159 113.236 6.65959C113.612 6.65459 113.988 6.65159 114.363 6.65159C118.424 6.65159 122.52 6.94259 126.539 7.51759C128.937 7.85959 131.451 8.33059 133.587 9.44359C136.903 11.1716 139.276 14.4326 140.973 17.0796C144.722 22.9296 150.525 34.5256 147.265 46.4526C146.749 48.3406 146.148 49.5946 145.316 50.5186C144.489 51.4356 143.346 52.0996 142.137 52.8036C141.218 53.3376 140.268 53.8896 139.386 54.5926C135.967 57.3196 134.285 61.1496 132.66 64.8536C131.626 67.2096 130.649 69.4346 129.263 71.3626C124.692 77.7216 117.466 81.6336 108.915 82.3786C94.658 83.6216 80.171 84.2516 65.854 84.2516Z" fill="url(#paint0_radial_1_24)"/>
<path opacity="0.8" d="M13.439 53.8256C11.112 51.8306 9.93903 48.5736 10.461 45.5526C11.101 41.8446 14.01 38.5026 17.854 40.8156C20.49 42.4016 22.241 45.0776 24.008 47.5966C26.156 50.6576 28.603 52.9436 31.9 54.6896C35.135 56.4036 38.359 58.1656 40.534 61.2206C42.302 63.7046 43.161 66.7396 43.501 69.7706C43.683 71.3936 43.672 73.1956 42.632 74.4546C41.898 75.3426 40.754 75.8056 39.615 75.9716C36.463 76.4306 33.306 74.8236 31.054 72.5706C28.802 70.3176 27.269 67.4666 25.638 64.7306C24.006 61.9946 22.178 59.2636 19.545 57.4706C17.58 56.1336 15.241 55.3706 13.439 53.8256Z" fill="url(#paint1_radial_1_24)"/>
<path opacity="0.8" d="M39.974 14.0466C43.551 12.6016 47.61 14.3176 50.817 16.4626C51.938 17.2126 53.051 18.0506 53.737 19.2126C54.342 20.2376 54.568 21.4376 54.741 22.6156C55.489 27.6876 55.463 32.8736 54.663 37.9376C54.339 39.9876 53.888 42.0366 53.923 44.1116C54.009 49.0926 56.835 53.5356 58.933 58.0536C61.032 62.5716 62.378 68.1436 59.688 72.3366C59.303 72.9366 58.825 73.5046 58.189 73.8286C57.672 74.0916 57.084 74.1766 56.505 74.2176C54.906 74.3286 53.286 74.1206 51.766 73.6106C51.427 73.4966 51.065 73.3436 50.899 73.0276C50.702 72.6536 50.851 72.2006 50.985 71.7996C52.684 66.6996 51.313 60.9936 48.659 56.3186C46.005 51.6436 42.174 47.7726 38.547 43.8056C36.595 41.6706 34.657 39.4406 33.541 36.7716C30.55 29.6196 31.593 17.4306 39.974 14.0466Z" fill="url(#paint2_radial_1_24)"/>
<path opacity="0.8" d="M89.097 68.1306C88.454 69.9216 87.173 71.5586 85.598 72.3806C83.082 73.6946 80.082 73.6076 77.262 73.2896C75.783 73.1226 74.271 72.8876 72.974 72.1586C71.676 71.4286 70.62 70.1016 70.608 68.6136C70.597 67.1966 71.487 65.9586 72.065 64.6646C73.586 61.2546 72.94 57.2616 71.684 53.7466C70.692 50.9706 69.206 48.3396 68.374 45.5106C67.655 43.0626 67.658 40.2326 67.315 37.6696C66.486 31.4706 66.186 25.2106 66.183 18.9606C66.182 17.5816 66.209 16.1686 66.699 14.8796C67.189 13.5906 68.238 12.4296 69.596 12.1866C73.136 11.5516 75.535 17.0346 79.09 16.4836C81.034 16.1826 82.184 14.2056 83.753 13.0186C84.143 12.7236 84.588 12.4676 85.076 12.4336C86.029 12.3666 86.859 13.1906 87.132 14.1056C87.868 16.5736 85.986 20.1486 85.022 22.3626C83.209 26.5246 81.885 31.0186 81.424 35.5586C81.234 37.4306 81.146 39.3136 81.16 41.1956C81.196 46.0006 83.163 50.0956 83.832 54.7426C84.446 59.0046 89.466 61.3216 89.547 65.5696C89.561 66.4096 89.4 67.2876 89.097 68.1306Z" fill="url(#paint3_radial_1_24)"/>
<path opacity="0.6" d="M110.491 64.1436C110.269 65.3716 109.887 66.5266 109.111 67.5186C106.561 70.7766 96.991 72.5176 94.425 68.4876C91.243 63.4916 100.297 55.0276 102.552 51.0106C103.047 50.1286 103.215 49.1066 103.374 48.1076C104.16 43.1856 105.583 37.6876 104.405 32.7076C103.225 27.7186 99.379 23.9226 98.959 18.5896C98.877 17.5436 98.94 16.4126 99.567 15.5706C100.194 14.7286 101.552 14.3746 102.312 15.0996C105.337 20.3146 108.363 25.5286 111.388 30.7436C114.722 36.4896 117.533 44.3656 114.773 50.9166C113.811 53.2006 112.146 55.1676 111.419 57.5366C110.775 59.6366 110.878 62.0006 110.491 64.1436Z" fill="url(#paint4_linear_1_24)"/>
<path d="M136.052 35.0636C135.57 34.8526 135.026 34.7456 134.417 34.7736C132.292 34.8736 130.589 36.6786 129.774 38.6436C128.959 40.6086 128.8 42.7746 128.312 44.8456C128.054 45.9426 127.702 47.0156 127.298 48.0676C126.033 51.3586 124.242 54.4446 122.022 57.1836C120.051 59.6156 116.861 61.4526 115.28 64.1126C114.034 66.2086 114.385 68.9746 115.628 71.0726C116.1 71.8686 116.709 72.6116 117.517 73.0616C121.394 75.2186 124.946 71.1286 127.164 68.5076C128.725 66.6636 129.924 64.4306 130.144 62.0246C130.227 61.1196 130.171 60.1996 130.343 59.3076C131.194 54.9026 136.905 53.1236 138.633 48.9836C139.198 47.6286 139.284 46.1286 139.344 44.6616C139.413 42.9646 139.457 41.2456 139.083 39.5896C138.677 37.7936 137.739 35.8006 136.052 35.0636Z" fill="url(#paint5_linear_1_24)"/>
<path d="M78.421 138.602C105.573 138.602 127.584 133.477 127.584 127.156C127.584 120.834 105.573 115.71 78.421 115.71C51.269 115.71 29.258 120.834 29.258 127.156C29.258 133.477 51.269 138.602 78.421 138.602Z" fill="#F6F5E1"/>
<path d="M78.421 138.602C105.573 138.602 127.584 133.477 127.584 127.156C127.584 120.834 105.573 115.71 78.421 115.71C51.269 115.71 29.258 120.834 29.258 127.156C29.258 133.477 51.269 138.602 78.421 138.602Z" fill="url(#paint6_radial_1_24)"/>
<path d="M78.42 64.6686C51.268 64.6686 29.257 69.7936 29.257 76.1156V127.156C29.257 120.834 51.268 115.709 78.42 115.709C105.572 115.709 127.583 120.834 127.583 127.156V76.1156C127.584 69.7936 105.573 64.6686 78.42 64.6686Z" fill="#F6F5E1"/>
<path d="M126.833 124.052C121.041 118.301 99.422 114.958 78.42 114.958C57.419 114.958 35.8 118.301 30.007 124.052V76.1156C30.007 70.9506 49.46 65.4196 78.42 65.4196C107.38 65.4196 126.833 70.9496 126.833 76.1156V124.052Z" fill="url(#paint7_linear_1_24)"/>
<path opacity="0.8" d="M126.833 124.052C121.041 118.301 99.422 114.958 78.42 114.958C57.419 114.958 35.8 118.301 30.007 124.052V76.1156C30.007 70.9506 49.46 65.4196 78.42 65.4196C107.38 65.4196 126.833 70.9496 126.833 76.1156V124.052Z" fill="url(#paint8_radial_1_24)"/>
<path opacity="0.4" d="M99.398 48.0036C100.331 45.9576 101.251 43.8426 101.37 41.5976C101.526 38.6346 100.273 35.7906 98.894 33.1646C97.8 31.0796 96.595 29.0106 96.063 26.7166C95.312 23.4756 95.968 20.1016 96.377 16.7996C96.92 12.4106 93.02 7.7536 89.057 6.3756C86.291 5.4136 83.279 5.4236 80.366 5.7246C78.419 5.9256 76.327 6.3346 75.014 7.7856C74.512 8.3406 74.162 9.01159 73.82 9.67659C73.595 10.1136 73.366 10.5876 73.435 11.0746C73.478 11.3796 73.637 11.6566 73.816 11.9066C74.77 13.2406 76.329 13.9976 77.495 15.1516C80.007 17.6396 77.85 20.3076 76.987 23.0166C76.491 24.5726 76.124 26.1676 75.818 27.7716C75.475 29.5696 75.207 31.3966 75.29 33.2256C75.432 36.3276 76.571 39.2846 77.697 42.1786C78.451 44.1166 79.205 46.0556 79.959 47.9936C80.872 50.3406 81.799 52.7136 83.24 54.7806C83.901 55.7276 84.684 56.6196 85.686 57.1946C87.515 58.2456 89.768 58.1006 91.87 57.9246C92.307 57.8876 92.753 57.8486 93.155 57.6736C93.667 57.4506 94.061 57.0266 94.421 56.5996C96.559 54.0586 98.019 51.0256 99.398 48.0036Z" fill="url(#paint9_radial_1_24)"/>
<path opacity="0.6" d="M130.608 33.5926C132.398 31.6756 133.043 30.4126 133.163 27.6706C133.235 26.0266 133.269 24.3746 133.086 22.7386C132.678 19.0946 130.966 15.7936 128.84 12.8536C126.847 10.0976 122.315 10.3676 119.27 10.2786C117.82 10.2356 116.37 10.1936 114.92 10.1506C112.729 10.0866 109.833 10.4066 108.06 11.9016C106.489 13.2256 106.971 16.7416 107.718 18.4166C108.126 19.3326 108.807 20.0936 109.444 20.8666C111.468 23.3226 113.219 26.0896 114.454 29.0286C115.439 31.3736 115.382 34.6956 115.063 37.1836C114.381 42.4876 111.103 47.0506 109.211 52.0516C108.728 53.3296 108.472 55.0666 109.623 55.8026C110.138 56.1316 110.791 56.1366 111.401 56.0926C115.859 55.7756 120.124 53.3586 122.684 49.6946C126.13 44.7626 126.5 37.9896 130.608 33.5926Z" fill="url(#paint10_radial_1_24)"/>
<defs>
<radialGradient id="paint0_radial_1_24" cx="0" cy="0" r="1" gradientTransform="matrix(80.4581 -7.27104 8.90298 98.563 70.3676 33.9462)" gradientUnits="userSpaceOnUse">
<stop offset="0.6242" stop-color="#B2B3A5" stop-opacity="0"/>
<stop offset="0.9771" stop-color="#B2B3A5"/>
</radialGradient>
<radialGradient id="paint1_radial_1_24" cx="0" cy="0" r="1" gradientTransform="matrix(14.2983 -10.0329 39.6042 56.4422 25.2081 78.6125)" gradientUnits="userSpaceOnUse">
<stop offset="0.6246" stop-color="#DEDEC6" stop-opacity="0"/>
<stop offset="1" stop-color="#DEDEC6"/>
</radialGradient>
<radialGradient id="paint2_radial_1_24" cx="0" cy="0" r="1" gradientTransform="matrix(-32.7782 12.5107 -25.0845 -65.7249 69.6727 24.3238)" gradientUnits="userSpaceOnUse">
<stop offset="0.6246" stop-color="#DEDEC6" stop-opacity="0"/>
<stop offset="1" stop-color="#DEDEC6"/>
</radialGradient>
<radialGradient id="paint3_radial_1_24" cx="0" cy="0" r="1" gradientTransform="matrix(22.4485 -5.9075 26.3807 100.265 102.448 89.7167)" gradientUnits="userSpaceOnUse">
<stop offset="0.7015" stop-color="#DEDEC6" stop-opacity="0"/>
<stop offset="1" stop-color="#DEDEC6"/>
</radialGradient>
<linearGradient id="paint4_linear_1_24" x1="121.513" y1="42.7681" x2="103.997" y2="42.7681" gradientUnits="userSpaceOnUse">
<stop offset="0.5041" stop-color="#DEDEC6" stop-opacity="0"/>
<stop offset="1" stop-color="#DEDEC6"/>
</linearGradient>
<linearGradient id="paint5_linear_1_24" x1="137.743" y1="60.0523" x2="128.83" y2="55.1735" gradientUnits="userSpaceOnUse">
<stop offset="0.5041" stop-color="#DEDEC6" stop-opacity="0"/>
<stop offset="1" stop-color="#DEDEC6"/>
</linearGradient>
<radialGradient id="paint6_radial_1_24" cx="0" cy="0" r="1" gradientTransform="matrix(56.1698 0.314551 -0.11234 20.0751 77.6701 138.298)" gradientUnits="userSpaceOnUse">
<stop offset="0.3213" stop-color="#B2B3A5" stop-opacity="0"/>
<stop offset="0.9847" stop-color="#B2B3A5" stop-opacity="0.9775"/>
<stop offset="1" stop-color="#B2B3A5"/>
</radialGradient>
<linearGradient id="paint7_linear_1_24" x1="30.0078" y1="94.7356" x2="126.833" y2="94.7356" gradientUnits="userSpaceOnUse">
<stop offset="0.3213" stop-color="#B2B3A5" stop-opacity="0"/>
<stop offset="0.9033" stop-color="#B2B3A5" stop-opacity="0.9775"/>
<stop offset="0.9167" stop-color="#B2B3A5"/>
</linearGradient>
<radialGradient id="paint8_radial_1_24" cx="0" cy="0" r="1" gradientUnits="userSpaceOnUse" gradientTransform="translate(34.699 74.6142) scale(83.1851 83.1851)">
<stop stop-color="white"/>
<stop offset="0.0225" stop-color="white" stop-opacity="0.9775"/>
<stop offset="1" stop-color="white" stop-opacity="0"/>
</radialGradient>
<radialGradient id="paint9_radial_1_24" cx="0" cy="0" r="1" gradientUnits="userSpaceOnUse" gradientTransform="translate(84.3627 32.8941) scale(43.9097 43.9097)">
<stop offset="0.2349" stop-color="white"/>
<stop offset="0.9129" stop-color="white" stop-opacity="0"/>
</radialGradient>
<radialGradient id="paint10_radial_1_24" cx="0" cy="0" r="1" gradientUnits="userSpaceOnUse" gradientTransform="translate(120.254 19.0787) scale(39.3979 39.3979)">
<stop stop-color="white"/>
<stop offset="0.9129" stop-color="white" stop-opacity="0"/>
</radialGradient>
</defs>
</svg>
