<svg width="160" height="145" viewBox="0 0 160 145" fill="none" xmlns="http://www.w3.org/2000/svg">
<path d="M139.551 38.9948C143.122 41.0718 147.815 40.7409 150.454 44.2679C153.446 48.2669 151.922 54.6418 153.529 59.6358C154.87 63.8018 158.301 66.6849 159.507 70.9099C161.031 76.2519 157.913 82.7549 153.261 83.9389C151.05 84.5019 148.8 83.8708 146.597 84.2398C144.597 84.5748 143.055 85.6859 141.793 87.2339C139.436 90.1269 136.421 92.3228 132.491 92.2438C130.24 92.1978 127.983 91.2299 126.57 89.4489C124.993 87.4609 122.58 86.9279 120.104 86.6679C117.653 86.4099 115.167 85.8599 112.681 85.8269C108.2 85.7659 103.844 87.4228 99.4153 88.2308C95.3613 88.9708 91.2413 88.9998 87.1393 89.0278C69.7393 89.1448 52.3403 89.2618 34.9403 89.3778C32.8193 89.3918 30.3323 89.1869 29.1683 87.0869C27.8993 84.7989 28.9943 81.6519 28.2823 79.0479C27.4193 75.8929 24.3473 74.5988 21.7433 73.3808C14.5573 70.0198 8.25028 64.0718 3.87428 56.5278C0.859281 51.3288 -1.26171 44.5628 0.854292 38.7738C1.34929 37.4198 2.0553 36.1858 2.5453 34.8298C3.9303 30.9928 3.46031 26.5948 4.17531 22.5078C5.26731 16.2648 9.35429 10.8868 14.4793 8.94785C19.8453 6.91785 25.6553 8.52386 31.2833 8.26386C44.1983 7.66786 56.5583 -2.76815 69.1463 0.706852C73.6633 1.95385 77.7193 4.92486 82.1853 6.40186C90.3003 9.08586 99.0053 6.64484 107.347 8.04184C116.447 9.56584 124.898 15.8938 129.965 24.9798C132.806 30.0698 134.929 36.3068 139.551 38.9948Z" fill="#F6F5E1"/>
<path d="M132.521 90.7419C130.606 90.7039 128.822 89.8708 127.746 88.5148C125.799 86.0598 122.87 85.4478 120.261 85.1738C119.417 85.0848 118.575 84.9618 117.684 84.8308C116.069 84.5938 114.398 84.3479 112.702 84.3239L112.44 84.3228C109.344 84.3228 106.343 85.0648 103.44 85.7828C102.027 86.1318 100.567 86.4928 99.1453 86.7528C95.2073 87.4718 91.1003 87.4988 87.1283 87.5258L34.7473 87.8768C32.3143 87.8768 31.0773 87.4369 30.4793 86.3589C29.9593 85.4199 29.9923 84.0818 30.0283 82.6658C30.0613 81.3528 30.0953 79.9938 29.7283 78.6508C28.7223 74.9738 25.4093 73.4308 22.7463 72.1918L22.3783 72.0208C15.4913 68.8008 9.38028 63.0308 5.17228 55.7748C3.52428 52.9348 -0.0577143 45.6409 2.26329 39.2899C2.48629 38.6789 2.76129 38.0858 3.05229 37.4558C3.36329 36.7828 3.68628 36.0879 3.95628 35.3409C4.87628 32.7929 5.03931 30.0818 5.19731 27.4598C5.29631 25.8218 5.3893 24.2739 5.6533 22.7679C6.6473 17.0829 10.4073 12.0938 15.0103 10.3528C16.7163 9.70684 18.6513 9.40683 21.1013 9.40683C22.5133 9.40683 23.9233 9.49883 25.4163 9.59683C26.8973 9.69483 28.4293 9.79483 29.9533 9.79483C30.4213 9.79483 30.8883 9.78485 31.3543 9.76385C36.9843 9.50385 42.4643 7.46984 47.7633 5.50284C53.3073 3.44484 58.5433 1.50183 63.7913 1.50183C65.5363 1.50183 67.1573 1.71484 68.7493 2.15384C71.0203 2.78084 73.1733 3.87484 75.4543 5.03284C77.4593 6.05084 79.5313 7.10384 81.7163 7.82584C85.4963 9.07684 89.3573 9.23685 92.2983 9.23685C93.7173 9.23685 95.1553 9.19485 96.5463 9.15485C97.9193 9.11485 99.3393 9.07385 100.723 9.07385C103.248 9.07385 105.275 9.21583 107.101 9.52283C115.753 10.9708 123.811 17.0228 128.656 25.7108C129.297 26.8598 129.92 28.1089 130.523 29.3159C132.654 33.5859 134.858 38.0018 138.796 40.2928C140.313 41.1758 141.943 41.6488 143.519 42.1068C145.88 42.7918 147.918 43.3848 149.252 45.1678C150.753 47.1728 150.925 50.0878 151.108 53.1738C151.245 55.4858 151.386 57.8769 152.1 60.0959C152.815 62.3179 154.036 64.1538 155.217 65.9298C156.395 67.7008 157.507 69.3738 158.063 71.3218C158.758 73.7588 158.357 76.6329 156.991 79.0099C155.951 80.8189 154.456 82.0849 152.89 82.4839C152.347 82.6229 151.751 82.6838 150.959 82.6838C150.535 82.6838 150.11 82.6668 149.686 82.6508C149.223 82.6328 148.761 82.6148 148.3 82.6148C147.556 82.6148 146.936 82.6609 146.349 82.7589C144.161 83.1259 142.237 84.3118 140.629 86.2858C138.185 89.2858 135.591 90.7448 132.698 90.7448L132.521 90.7419Z" fill="#F6F5E1"/>
<path d="M132.521 90.7419C130.606 90.7039 128.822 89.8708 127.746 88.5148C125.799 86.0598 122.87 85.4478 120.261 85.1738C119.417 85.0848 118.575 84.9618 117.684 84.8308C116.069 84.5938 114.398 84.3479 112.702 84.3239L112.44 84.3228C109.344 84.3228 106.343 85.0648 103.44 85.7828C102.027 86.1318 100.567 86.4928 99.1453 86.7528C95.2073 87.4718 91.1003 87.4988 87.1283 87.5258L34.7473 87.8768C32.3143 87.8768 31.0773 87.4369 30.4793 86.3589C29.9593 85.4199 29.9923 84.0818 30.0283 82.6658C30.0613 81.3528 30.0953 79.9938 29.7283 78.6508C28.7223 74.9738 25.4093 73.4308 22.7463 72.1918L22.3783 72.0208C15.4913 68.8008 9.38028 63.0308 5.17228 55.7748C3.52428 52.9348 -0.0577143 45.6409 2.26329 39.2899C2.48629 38.6789 2.76129 38.0858 3.05229 37.4558C3.36329 36.7828 3.68628 36.0879 3.95628 35.3409C4.87628 32.7929 5.03931 30.0818 5.19731 27.4598C5.29631 25.8218 5.3893 24.2739 5.6533 22.7679C6.6473 17.0829 10.4073 12.0938 15.0103 10.3528C16.7163 9.70684 18.6513 9.40683 21.1013 9.40683C22.5133 9.40683 23.9233 9.49883 25.4163 9.59683C26.8973 9.69483 28.4293 9.79483 29.9533 9.79483C30.4213 9.79483 30.8883 9.78485 31.3543 9.76385C36.9843 9.50385 42.4643 7.46984 47.7633 5.50284C53.3073 3.44484 58.5433 1.50183 63.7913 1.50183C65.5363 1.50183 67.1573 1.71484 68.7493 2.15384C71.0203 2.78084 73.1733 3.87484 75.4543 5.03284C77.4593 6.05084 79.5313 7.10384 81.7163 7.82584C85.4963 9.07684 89.3573 9.23685 92.2983 9.23685C93.7173 9.23685 95.1553 9.19485 96.5463 9.15485C97.9193 9.11485 99.3393 9.07385 100.723 9.07385C103.248 9.07385 105.275 9.21583 107.101 9.52283C115.753 10.9708 123.811 17.0228 128.656 25.7108C129.297 26.8598 129.92 28.1089 130.523 29.3159C132.654 33.5859 134.858 38.0018 138.796 40.2928C140.313 41.1758 141.943 41.6488 143.519 42.1068C145.88 42.7918 147.918 43.3848 149.252 45.1678C150.753 47.1728 150.925 50.0878 151.108 53.1738C151.245 55.4858 151.386 57.8769 152.1 60.0959C152.815 62.3179 154.036 64.1538 155.217 65.9298C156.395 67.7008 157.507 69.3738 158.063 71.3218C158.758 73.7588 158.357 76.6329 156.991 79.0099C155.951 80.8189 154.456 82.0849 152.89 82.4839C152.347 82.6229 151.751 82.6838 150.959 82.6838C150.535 82.6838 150.11 82.6668 149.686 82.6508C149.223 82.6328 148.761 82.6148 148.3 82.6148C147.556 82.6148 146.936 82.6609 146.349 82.7589C144.161 83.1259 142.237 84.3118 140.629 86.2858C138.185 89.2858 135.591 90.7448 132.698 90.7448L132.521 90.7419Z" fill="url(#paint0_radial_1_59)"/>
<path d="M132.521 90.7419C130.606 90.7039 128.822 89.8708 127.746 88.5148C125.799 86.0598 122.87 85.4478 120.261 85.1738C119.417 85.0848 118.575 84.9618 117.684 84.8308C116.069 84.5938 114.398 84.3479 112.702 84.3239L112.44 84.3228C109.344 84.3228 106.343 85.0648 103.44 85.7828C102.027 86.1318 100.567 86.4928 99.1453 86.7528C95.2073 87.4718 91.1003 87.4988 87.1283 87.5258L34.7473 87.8768C32.3143 87.8768 31.0773 87.4369 30.4793 86.3589C29.9593 85.4199 29.9923 84.0818 30.0283 82.6658C30.0613 81.3528 30.0953 79.9938 29.7283 78.6508C28.7223 74.9738 25.4093 73.4308 22.7463 72.1918L22.3783 72.0208C15.4913 68.8008 9.38028 63.0308 5.17228 55.7748C3.52428 52.9348 -0.0577143 45.6409 2.26329 39.2899C2.48629 38.6789 2.76129 38.0858 3.05229 37.4558C3.36329 36.7828 3.68628 36.0879 3.95628 35.3409C4.87628 32.7929 5.03931 30.0818 5.19731 27.4598C5.29631 25.8218 5.3893 24.2739 5.6533 22.7679C6.6473 17.0829 10.4073 12.0938 15.0103 10.3528C16.7163 9.70684 18.6513 9.40683 21.1013 9.40683C22.5133 9.40683 23.9233 9.49883 25.4163 9.59683C26.8973 9.69483 28.4293 9.79483 29.9533 9.79483C30.4213 9.79483 30.8883 9.78485 31.3543 9.76385C36.9843 9.50385 42.4643 7.46984 47.7633 5.50284C53.3073 3.44484 58.5433 1.50183 63.7913 1.50183C65.5363 1.50183 67.1573 1.71484 68.7493 2.15384C71.0203 2.78084 73.1733 3.87484 75.4543 5.03284C77.4593 6.05084 79.5313 7.10384 81.7163 7.82584C85.4963 9.07684 89.3573 9.23685 92.2983 9.23685C93.7173 9.23685 95.1553 9.19485 96.5463 9.15485C97.9193 9.11485 99.3393 9.07385 100.723 9.07385C103.248 9.07385 105.275 9.21583 107.101 9.52283C115.753 10.9708 123.811 17.0228 128.656 25.7108C129.297 26.8598 129.92 28.1089 130.523 29.3159C132.654 33.5859 134.858 38.0018 138.796 40.2928C140.313 41.1758 141.943 41.6488 143.519 42.1068C145.88 42.7918 147.918 43.3848 149.252 45.1678C150.753 47.1728 150.925 50.0878 151.108 53.1738C151.245 55.4858 151.386 57.8769 152.1 60.0959C152.815 62.3179 154.036 64.1538 155.217 65.9298C156.395 67.7008 157.507 69.3738 158.063 71.3218C158.758 73.7588 158.357 76.6329 156.991 79.0099C155.951 80.8189 154.456 82.0849 152.89 82.4839C152.347 82.6229 151.751 82.6838 150.959 82.6838C150.535 82.6838 150.11 82.6668 149.686 82.6508C149.223 82.6328 148.761 82.6148 148.3 82.6148C147.556 82.6148 146.936 82.6609 146.349 82.7589C144.161 83.1259 142.237 84.3118 140.629 86.2858C138.185 89.2858 135.591 90.7448 132.698 90.7448L132.521 90.7419Z" fill="url(#paint1_radial_1_59)"/>
<path d="M95.2923 79.4958C90.6503 79.3078 95.0443 69.9328 96.0723 67.9808C99.3453 61.7658 103.887 56.2228 109.339 51.7928C114.38 47.6968 120.5 44.4738 126.995 44.5118C129.528 44.5268 132.032 45.0368 134.484 45.6718C137.06 46.3388 139.783 47.2748 141.331 49.4388C142.082 50.4888 142.487 51.7408 142.876 52.9718C143.299 54.3098 143.702 55.8318 143.013 57.0538C142.181 58.5308 140.187 58.8219 138.494 58.7249C134.562 58.4999 130.797 57.1138 126.917 56.4388C123.037 55.7638 118.7 55.9198 115.626 58.3818C114.139 59.5728 113.079 61.2018 112.03 62.7928C109.249 67.0148 106.363 71.1848 103.017 74.9758C100.974 77.2918 98.3783 79.6208 95.2923 79.4958Z" fill="url(#paint2_radial_1_59)"/>
<path d="M142.834 77.5959C141.71 78.9129 139.75 79.0248 138.019 79.0368C135.438 79.0548 132.857 79.0718 130.276 79.0888C129.169 79.0968 127.99 79.1248 127.069 79.7388C126.413 80.1758 125.968 80.8609 125.383 81.3889C123.427 83.1559 116.263 83.0809 117.982 79.0789C118.984 76.7439 122.935 75.6749 125.011 74.6089C126.326 73.9339 127.566 73.1228 128.876 72.4378C132.315 70.6398 136.217 69.7368 140.096 69.8418C141.026 69.8668 142.068 70.0079 142.635 70.7449C142.9 71.0889 143.021 71.5188 143.136 71.9368C143.66 73.8368 144.114 76.0969 142.834 77.5959Z" fill="url(#paint3_radial_1_59)"/>
<path d="M79.1743 76.9118C78.4333 75.2768 78.8743 72.8118 78.8643 71.1828C78.8383 66.7358 78.0403 62.2758 77.8703 57.8268C77.6463 51.9738 78.1073 45.9488 80.5523 40.6258C81.4283 38.7178 82.5463 36.9298 83.7383 35.1998C87.9303 29.1168 93.4303 23.4748 100.522 21.4078C103.668 20.4908 106.978 20.3228 110.251 20.1738C111.1 20.1348 111.964 20.0988 112.788 20.3068C115.18 20.9098 116.58 23.3228 117.713 25.5138C117.992 26.0538 118.28 26.6538 118.141 27.2458C118.033 27.7038 117.686 28.0658 117.324 28.3678C115.133 30.1918 112.123 30.5658 109.308 31.0158C102.798 32.0568 95.8773 34.2628 92.1703 39.7158C88.4413 45.2018 88.9643 52.3888 88.9603 59.0218C88.9593 61.7168 88.8463 64.4108 88.6233 67.0968C88.4133 69.6258 88.0713 72.2448 86.7113 74.3868C85.6013 76.1348 81.2743 79.7998 79.5153 77.4908C79.3803 77.3128 79.2673 77.1188 79.1743 76.9118Z" fill="url(#paint4_radial_1_59)"/>
<path d="M70.4563 80.1178C69.3603 78.5138 68.8183 75.7418 68.2463 73.9778C66.6833 69.1628 64.5653 64.5108 62.8993 59.7268C60.7073 53.4328 58.9433 46.7958 58.8383 40.4668C58.8003 38.1978 58.9773 36.0038 59.2263 33.8568C60.1033 26.3048 62.0673 18.9318 66.4073 15.0708C68.3333 13.3578 70.6353 12.4198 72.9183 11.5108C73.5103 11.2748 74.1133 11.0378 74.7743 11.0748C76.6893 11.1828 78.5263 13.4778 80.0953 15.5938C80.4823 16.1158 80.8953 16.6998 81.0023 17.3738C81.0843 17.8958 80.9623 18.3668 80.8093 18.7768C79.8793 21.2548 77.8633 22.3478 76.0113 23.4788C71.7293 26.0948 67.5593 30.0678 66.8093 36.8248C66.0543 43.6238 68.9233 51.2948 71.2243 58.4868C72.1593 61.4088 73.0143 64.3548 73.7883 67.3168C74.5163 70.1068 75.1823 73.0228 74.9563 75.6568C74.7713 77.8048 72.9583 82.7668 70.9013 80.6658C70.7423 80.5048 70.5943 80.3208 70.4563 80.1178Z" fill="url(#paint5_radial_1_59)"/>
<path opacity="0.5" d="M56.1253 53.0328C57.9083 56.4988 58.9513 60.3568 59.5543 64.1928C60.3353 69.1578 62.0243 79.1328 54.1713 79.1438C49.3383 79.1508 48.1163 74.7348 47.7023 70.8488C47.4473 68.4578 46.6943 66.7888 45.7153 64.6518C45.6723 64.5578 45.6293 64.4638 45.5863 64.3698C43.4313 59.6648 41.2753 54.9588 39.1203 50.2538C37.2773 46.2298 35.4293 42.4628 34.4243 38.1878C32.6633 30.6948 30.6563 22.4808 35.7063 15.6548C37.7453 12.8988 40.8153 11.1048 43.9883 9.94485C46.1373 9.15985 48.6993 8.03785 51.0093 8.02685C52.2663 8.02085 53.6003 8.52584 54.2543 9.59884C54.9853 10.7968 54.6843 12.4048 53.8923 13.5628C52.0633 16.2388 48.9433 17.9778 46.7083 20.3038C44.3773 22.7298 42.7193 25.6428 42.7073 29.0848C42.6713 38.9088 51.9963 45.0068 56.1253 53.0328Z" fill="url(#paint6_radial_1_59)"/>
<path opacity="0.8" d="M7.22728 39.8048C7.29728 39.7828 7.36928 39.7658 7.44228 39.7518C11.1513 39.0868 17.2903 44.3378 19.9783 46.4408C23.8743 49.4898 27.3313 53.1008 30.1853 57.1428C31.4183 58.8888 32.5393 60.7108 33.6593 62.5308C34.9943 64.6998 36.3293 66.8698 37.6643 69.0398C40.4093 73.5008 43.1993 78.0718 44.3113 83.1898C40.8023 84.2118 36.7013 82.5988 34.8303 79.4598C33.9773 78.0278 33.5743 76.3818 33.0383 74.8038C31.1923 69.3728 27.6843 64.6238 23.5713 60.6258C19.4583 56.6278 14.7333 53.3208 9.99727 50.0838C7.37827 48.2938 4.91528 45.1568 5.66228 41.7168C5.84328 40.8738 6.41628 40.0588 7.22728 39.8048Z" fill="url(#paint7_radial_1_59)"/>
<path d="M77.8203 144.13C104.972 144.13 126.983 139.005 126.983 132.684C126.983 126.362 104.972 121.238 77.8203 121.238C50.6683 121.238 28.6573 126.362 28.6573 132.684C28.6573 139.005 50.6683 144.13 77.8203 144.13Z" fill="#F6F5E1"/>
<path d="M77.8203 144.13C104.972 144.13 126.983 139.005 126.983 132.684C126.983 126.362 104.972 121.238 77.8203 121.238C50.6683 121.238 28.6573 126.362 28.6573 132.684C28.6573 139.005 50.6683 144.13 77.8203 144.13Z" fill="url(#paint8_radial_1_59)"/>
<path d="M77.8203 70.1978C50.6683 70.1978 28.6573 75.3228 28.6573 81.6438V132.684C28.6573 126.362 50.6683 121.238 77.8203 121.238C104.972 121.238 126.983 126.363 126.983 132.684V81.6438C126.983 75.3228 104.972 70.1978 77.8203 70.1978Z" fill="#F6F5E1"/>
<path d="M126.232 129.581C120.44 123.83 98.8213 120.487 77.8193 120.487C56.8183 120.487 35.1993 123.83 29.4063 129.581V81.6448C29.4063 76.4798 48.8593 70.9489 77.8193 70.9489C106.779 70.9489 126.232 76.4788 126.232 81.6448V129.581Z" fill="url(#paint9_linear_1_59)"/>
<path opacity="0.8" d="M126.232 129.581C120.44 123.83 98.8213 120.487 77.8193 120.487C56.8183 120.487 35.1993 123.83 29.4063 129.581V81.6448C29.4063 76.4798 48.8593 70.9489 77.8193 70.9489C106.779 70.9489 126.232 76.4788 126.232 81.6448V129.581Z" fill="url(#paint10_radial_1_59)"/>
<path d="M44.9843 48.9529C42.6213 43.3909 40.6723 37.5859 40.0923 31.5699C39.5123 25.5549 40.3773 19.2828 43.3493 14.0218C45.6393 9.96885 49.6353 7.37483 54.0363 6.10483C57.1123 5.21683 60.5403 4.40884 63.7553 4.83484C65.2893 5.03784 66.6623 5.53883 67.5453 6.85483C68.4033 8.13383 69.0943 10.1278 68.2693 11.5758C67.3683 13.1578 65.8113 13.2839 64.5283 14.2809C58.6713 18.8319 57.8163 27.6929 57.8643 34.5269C57.8883 37.9939 58.1303 41.4558 58.1523 44.9238C58.1633 46.6548 58.0993 48.3758 57.9783 50.1018C57.8873 51.3998 58.2943 52.8288 57.7773 54.0588C57.2203 55.3838 55.4913 56.0338 54.1653 56.1798C52.5453 56.3578 50.8533 56.2628 49.3753 55.5768C46.8343 54.3958 46.0013 51.3489 44.9843 48.9529Z" fill="url(#paint11_radial_1_59)"/>
<path opacity="0.4" d="M94.2223 22.2978C92.9193 23.3438 91.6363 24.4498 90.3603 25.4418C87.7433 27.4778 85.6003 30.0478 83.4793 32.5958C82.5113 33.7588 81.5403 34.9268 80.7403 36.2108C77.7833 40.9608 77.4313 46.8078 76.6373 52.3458C76.5313 53.0848 76.4093 53.8438 76.0243 54.4838C74.1933 57.5338 70.1063 55.6028 68.6713 53.3018C66.5383 49.8818 65.8003 46.3638 65.7973 42.3548C65.7933 35.4628 67.1183 28.5728 69.6793 22.1738C70.3073 20.6058 71.1193 18.9478 72.6383 18.2098C74.4523 17.3288 76.6143 17.6458 78.2983 18.5608C80.3063 19.6518 83.1133 20.1328 85.2853 19.2508C85.9553 18.9788 86.5623 18.5748 87.1833 18.2038C88.9463 17.1508 90.8623 16.3558 92.8493 15.8388C94.4133 15.4308 96.8713 14.5588 98.1473 15.9738C98.2943 16.1368 98.4093 16.3258 98.5013 16.5248C99.3303 18.3268 98.6943 19.1628 97.2253 20.0988C96.2083 20.7488 95.2093 21.5058 94.2223 22.2978Z" fill="url(#paint12_radial_1_59)"/>
<path opacity="0.7" d="M90.2333 62.9428C87.0563 61.7648 84.6313 58.1389 84.8113 54.6909C84.9753 51.5459 86.5593 48.6268 88.0523 45.9248C89.5783 43.1618 91.3333 40.5258 93.2983 38.0558C94.2783 36.8238 95.4003 35.1498 96.7383 34.2868C97.6903 33.6728 99.0863 33.7488 100.184 33.7048C103.592 33.5678 107.034 34.6349 110.412 33.8159C111.123 33.6439 111.814 33.3878 112.537 33.2748C114.402 32.9828 116.29 33.6678 117.935 34.5948C119.58 35.5208 121.081 36.6978 122.777 37.5278C123.797 38.0278 124.883 38.3998 125.847 38.9998C126.812 39.5998 127.673 40.4848 127.908 41.5958C127.999 42.0288 127.971 42.5318 127.655 42.8418C127.308 43.1828 126.758 43.1668 126.272 43.1478C120.83 42.9398 115.453 45.9638 111.042 48.8918C108.31 50.7048 105.767 52.8028 103.47 55.1438C101.268 57.3878 99.5833 60.8148 97.1013 62.6728C95.1853 64.1068 92.4743 63.7738 90.2333 62.9428Z" fill="url(#paint13_radial_1_59)"/>
<defs>
<radialGradient id="paint0_radial_1_59" cx="0" cy="0" r="1" gradientTransform="matrix(118.799 6.89019 -3.95085 68.2593 87.835 19.1312)" gradientUnits="userSpaceOnUse">
<stop offset="0.6242" stop-color="#B2B3A5" stop-opacity="0"/>
<stop offset="0.9771" stop-color="#B2B3A5"/>
</radialGradient>
<radialGradient id="paint1_radial_1_59" cx="0" cy="0" r="1" gradientUnits="userSpaceOnUse" gradientTransform="translate(10.2355 4.56063) scale(75.3002)">
<stop offset="0.2349" stop-color="white"/>
<stop offset="1" stop-color="white" stop-opacity="0"/>
</radialGradient>
<radialGradient id="paint2_radial_1_59" cx="0" cy="0" r="1" gradientTransform="matrix(23.5509 -16.7329 9.15515 12.8848 118.292 66.1635)" gradientUnits="userSpaceOnUse">
<stop offset="0.7015" stop-color="#DEDEC6" stop-opacity="0"/>
<stop offset="1" stop-color="#DEDEC6"/>
</radialGradient>
<radialGradient id="paint3_radial_1_59" cx="0" cy="0" r="1" gradientTransform="matrix(25.5262 -7.25531 2.63781 9.27746 134.775 81.5111)" gradientUnits="userSpaceOnUse">
<stop offset="0.7015" stop-color="#DEDEC6" stop-opacity="0"/>
<stop offset="1" stop-color="#DEDEC6"/>
</radialGradient>
<radialGradient id="paint4_radial_1_59" cx="0" cy="0" r="1" gradientTransform="matrix(17.4732 8.11907 -14.1226 30.3916 99.9834 49.7362)" gradientUnits="userSpaceOnUse">
<stop offset="0.8208" stop-color="#DEDEC6" stop-opacity="0"/>
<stop offset="1" stop-color="#DEDEC6"/>
</radialGradient>
<radialGradient id="paint5_radial_1_59" cx="0" cy="0" r="1" gradientTransform="matrix(14.5739 -1.29092 7.77054 35.9684 75.6338 45.4972)" gradientUnits="userSpaceOnUse">
<stop offset="0.8208" stop-color="#DEDEC6" stop-opacity="0"/>
<stop offset="1" stop-color="#DEDEC6"/>
</radialGradient>
<radialGradient id="paint6_radial_1_59" cx="0" cy="0" r="1" gradientTransform="matrix(16.7583 -3.36909 9.53123 47.4083 55.8554 41.2738)" gradientUnits="userSpaceOnUse">
<stop offset="0.7015" stop-color="#DEDEC6" stop-opacity="0"/>
<stop offset="1" stop-color="#DEDEC6"/>
</radialGradient>
<radialGradient id="paint7_radial_1_59" cx="0" cy="0" r="1" gradientTransform="matrix(7.78422 -6.09824 20.0479 25.5885 23.0768 67.8126)" gradientUnits="userSpaceOnUse">
<stop offset="0.7277" stop-color="#DEDEC6" stop-opacity="0"/>
<stop offset="1" stop-color="#DEDEC6"/>
</radialGradient>
<radialGradient id="paint8_radial_1_59" cx="0" cy="0" r="1" gradientTransform="matrix(56.1698 0.314551 -0.11234 20.0751 77.0703 143.836)" gradientUnits="userSpaceOnUse">
<stop offset="0.3213" stop-color="#B2B3A5" stop-opacity="0"/>
<stop offset="0.9847" stop-color="#B2B3A5" stop-opacity="0.9775"/>
<stop offset="1" stop-color="#B2B3A5"/>
</radialGradient>
<linearGradient id="paint9_linear_1_59" x1="29.4073" y1="100.264" x2="126.233" y2="100.264" gradientUnits="userSpaceOnUse">
<stop offset="0.3213" stop-color="#B2B3A5" stop-opacity="0"/>
<stop offset="0.9033" stop-color="#B2B3A5" stop-opacity="0.9775"/>
<stop offset="0.9167" stop-color="#B2B3A5"/>
</linearGradient>
<radialGradient id="paint10_radial_1_59" cx="0" cy="0" r="1" gradientUnits="userSpaceOnUse" gradientTransform="translate(34.0985 80.1429) scale(83.1851 83.1851)">
<stop stop-color="white"/>
<stop offset="0.0225" stop-color="white" stop-opacity="0.9775"/>
<stop offset="1" stop-color="white" stop-opacity="0"/>
</radialGradient>
<radialGradient id="paint11_radial_1_59" cx="0" cy="0" r="1" gradientTransform="matrix(13.461 2.81928 -6.67139 31.851 55.8875 24.0298)" gradientUnits="userSpaceOnUse">
<stop offset="0.2349" stop-color="white"/>
<stop offset="1" stop-color="white" stop-opacity="0"/>
</radialGradient>
<radialGradient id="paint12_radial_1_59" cx="0" cy="0" r="1" gradientTransform="matrix(11.5435 8.10615 -21.0489 29.9745 85.8079 30.1966)" gradientUnits="userSpaceOnUse">
<stop offset="0.2349" stop-color="white"/>
<stop offset="1" stop-color="white" stop-opacity="0"/>
</radialGradient>
<radialGradient id="paint13_radial_1_59" cx="0" cy="0" r="1" gradientTransform="matrix(8.47678 9.55346 -24.8071 22.0138 111.73 48.1436)" gradientUnits="userSpaceOnUse">
<stop offset="0.2349" stop-color="white"/>
<stop offset="1" stop-color="white" stop-opacity="0"/>
</radialGradient>
</defs>
</svg>
