<svg width="117" height="198" viewBox="0 0 117 198" fill="none" xmlns="http://www.w3.org/2000/svg">
<path d="M67.7674 150.347C71.2674 150.085 74.7454 149.543 78.1594 148.733C81.1764 148.018 84.7744 147.304 87.4464 145.68C89.9444 144.163 92.6464 143.517 95.4324 142.586C98.6214 141.52 101.773 140.347 104.883 139.069C105.902 138.65 106.974 138.174 107.585 137.258C107.964 136.69 108.126 136.008 108.264 135.339C109.037 131.594 108.935 127.778 109.64 124.073C110.377 120.203 110.103 116.091 110.492 112.173C111.725 99.7351 112.371 87.2461 113.623 74.8091C114.809 63.0201 118.049 51.4131 116.638 39.5421C115.898 33.3141 114.226 26.5791 110.164 21.6341C106.434 17.0941 100.67 16.8481 95.5134 15.0881C88.5844 12.7231 83.9454 7.99908 77.8104 4.45008C74.3434 2.44508 69.7604 1.37808 65.8464 0.685076C55.6564 -1.11992 44.3924 0.613074 35.6254 6.22607C30.6874 9.38807 26.9494 14.0701 22.5654 17.9641C15.6244 24.1291 6.70839 28.7121 2.60339 37.0381C-0.783614 43.9091 -0.181627 51.9961 0.640373 59.6121C3.39437 85.1181 7.56538 110.475 10.2054 136.094C22.8944 146.423 39.5734 149.527 55.9124 150.379C59.8624 150.587 63.8244 150.642 67.7674 150.347Z" fill="#F6F5E1"/>
<path opacity="0.7" d="M61.9594 149.051C60.1184 149.051 58.1664 148.996 55.9924 148.883C43.4354 148.228 25.2474 146.105 11.6354 135.319C10.2644 122.139 8.46938 108.837 6.73238 95.9691C5.11838 84.0071 3.44938 71.6381 2.13338 59.4541C1.29038 51.6461 0.794396 44.1071 3.9504 37.7051C6.6904 32.1451 11.7024 28.3481 17.0094 24.3271C19.2064 22.6621 21.4784 20.9411 23.5634 19.0891C25.1104 17.7151 26.5874 16.2371 28.0144 14.8081C30.7534 12.0661 33.3404 9.47509 36.4354 7.49409C42.4684 3.63109 50.1254 1.50409 57.9964 1.50409C60.5524 1.50409 63.1064 1.72709 65.5864 2.16609C68.8494 2.74409 73.5894 3.74509 77.0604 5.75309C79.2064 6.99409 81.2154 8.41909 83.1574 9.79809C86.7114 12.3201 90.3864 14.9281 95.0304 16.5131C96.4124 16.9851 97.8294 17.3501 99.2004 17.7041C102.978 18.6781 106.547 19.5991 109.006 22.5921C112.237 26.5251 114.247 32.1291 115.149 39.7241C116.102 47.7441 114.841 55.8831 113.622 63.7551C113.07 67.3181 112.5 71.0021 112.131 74.6651C111.493 80.9991 111.005 87.4441 110.533 93.6761C110.077 99.6991 109.605 105.926 109 112.03C108.841 113.632 108.79 115.268 108.739 116.85C108.662 119.28 108.59 121.576 108.167 123.797C107.813 125.657 107.655 127.537 107.501 129.356C107.335 131.325 107.178 133.185 106.795 135.04C106.684 135.576 106.566 136.087 106.337 136.429C105.976 136.969 105.173 137.331 104.313 137.685C101.251 138.944 98.1034 140.116 94.9574 141.167C94.3614 141.366 93.7694 141.552 93.1834 141.736C91.0184 142.416 88.7804 143.119 86.6684 144.402C84.4884 145.726 81.4724 146.426 78.8114 147.044L77.8144 147.277C74.4684 148.07 71.0514 148.601 67.6564 148.854C65.8474 148.985 63.9834 149.051 61.9594 149.051Z" fill="url(#paint0_radial_1_7)"/>
<path opacity="0.4" d="M61.9594 149.051C60.1184 149.051 58.1664 148.996 55.9924 148.883C43.4354 148.228 25.2474 146.105 11.6354 135.319C10.2644 122.139 8.46938 108.837 6.73238 95.9691C5.11838 84.0071 3.44938 71.6381 2.13338 59.4541C1.29038 51.6461 0.794396 44.1071 3.9504 37.7051C6.6904 32.1451 11.7024 28.3481 17.0094 24.3271C19.2064 22.6621 21.4784 20.9411 23.5634 19.0891C25.1104 17.7151 26.5874 16.2371 28.0144 14.8081C30.7534 12.0661 33.3404 9.47509 36.4354 7.49409C42.4684 3.63109 50.1254 1.50409 57.9964 1.50409C60.5524 1.50409 63.1064 1.72709 65.5864 2.16609C68.8494 2.74409 73.5894 3.74509 77.0604 5.75309C79.2064 6.99409 81.2154 8.41909 83.1574 9.79809C86.7114 12.3201 90.3864 14.9281 95.0304 16.5131C96.4124 16.9851 97.8294 17.3501 99.2004 17.7041C102.978 18.6781 106.547 19.5991 109.006 22.5921C112.237 26.5251 114.247 32.1291 115.149 39.7241C116.102 47.7441 114.841 55.8831 113.622 63.7551C113.07 67.3181 112.5 71.0021 112.131 74.6651C111.493 80.9991 111.005 87.4441 110.533 93.6761C110.077 99.6991 109.605 105.926 109 112.03C108.841 113.632 108.79 115.268 108.739 116.85C108.662 119.28 108.59 121.576 108.167 123.797C107.813 125.657 107.655 127.537 107.501 129.356C107.335 131.325 107.178 133.185 106.795 135.04C106.684 135.576 106.566 136.087 106.337 136.429C105.976 136.969 105.173 137.331 104.313 137.685C101.251 138.944 98.1034 140.116 94.9574 141.167C94.3614 141.366 93.7694 141.552 93.1834 141.736C91.0184 142.416 88.7804 143.119 86.6684 144.402C84.4884 145.726 81.4724 146.426 78.8114 147.044L77.8144 147.277C74.4684 148.07 71.0514 148.601 67.6564 148.854C65.8474 148.985 63.9834 149.051 61.9594 149.051Z" fill="url(#paint1_radial_1_7)"/>
<path d="M16.5674 140.223C17.8464 138.425 17.8264 136.711 17.6744 134.678C17.4764 132.027 17.6724 129.283 17.6714 126.624C17.6644 106.445 15.7064 86.7061 11.6154 66.9411C11.2034 64.9481 10.7734 62.9601 10.3274 60.9741C9.96039 59.3371 8.4154 47.7571 4.7334 50.4611C2.4214 52.1591 4.77638 57.3211 5.24838 59.4451C6.06038 62.9001 7.0774 66.3031 7.8544 69.7671C9.0574 75.1261 9.41838 80.7051 10.0764 86.1541C10.5464 90.0481 11.0164 93.9431 11.4864 97.8371C11.9124 101.362 12.9254 105.179 12.9254 108.722C14.3194 118.228 14.0614 127.519 13.7514 137.052C13.7184 138.057 13.6924 139.136 14.2434 139.977C15.1384 141.342 15.9244 141.126 16.5674 140.223Z" fill="url(#paint2_radial_1_7)"/>
<path d="M30.5344 143.791C32.0824 141.615 32.0574 139.542 31.8734 137.082C31.6334 133.875 31.8714 130.556 31.8704 127.338C31.8624 102.925 29.4934 79.0441 24.5434 55.1321C24.0444 52.7221 23.5244 50.3151 22.9854 47.9131C22.5414 45.9321 20.6724 31.9231 16.2174 35.1941C13.4204 37.2481 16.2694 43.4931 16.8404 46.0631C17.8224 50.2431 19.0534 54.3601 19.9934 58.5501C21.4494 65.0341 21.8854 71.7831 22.6814 78.3751C23.2504 83.0871 23.8184 87.7981 24.3874 92.5101C24.9024 96.7751 26.1284 101.392 26.1284 105.679C27.8144 117.18 27.5024 128.421 27.1284 139.954C27.0894 141.17 27.0574 142.475 27.7244 143.492C28.8064 145.145 29.7574 144.883 30.5344 143.791Z" fill="url(#paint3_radial_1_7)"/>
<path d="M45.1114 135.14C46.8494 132.844 46.8894 130.608 46.7694 127.951C46.6134 124.486 46.9754 120.916 47.0774 117.447C47.8484 91.1291 46.0574 65.3101 41.4854 39.3751C41.0244 36.7601 40.5414 34.1501 40.0364 31.5441C39.6214 29.3941 38.0534 14.2321 33.1474 17.6171C30.0664 19.7421 32.9384 26.5651 33.4714 29.3541C34.3964 33.8911 35.5914 38.3691 36.4714 42.9161C37.8334 49.9521 38.0884 57.2421 38.7354 64.3731C39.1984 69.4701 39.6604 74.5671 40.1234 79.6651C40.5424 84.2791 41.7164 89.2961 41.5794 93.9171C43.0294 106.368 42.3344 118.476 41.5624 130.897C41.4814 132.206 41.4044 133.613 42.0914 134.73C43.2054 136.544 44.2394 136.293 45.1114 135.14Z" fill="url(#paint4_radial_1_7)"/>
<path d="M67.8504 134.94C66.1814 132.594 66.2074 130.357 66.4064 127.705C66.6654 124.246 66.4084 120.666 66.4104 117.197C66.4194 90.8681 68.9744 65.1131 74.3124 39.3251C74.8504 36.7251 75.4104 34.1301 75.9934 31.5401C76.4714 29.4041 78.4884 14.2951 83.2924 17.8231C86.3094 20.0391 83.2364 26.7741 82.6204 29.5451C81.5614 34.0531 80.2344 38.4931 79.2194 43.0121C77.6494 50.0051 77.1784 57.2841 76.3204 64.3931C75.7074 69.4741 75.0934 74.5561 74.4804 79.6371C73.9254 84.2371 72.6034 89.2161 72.6034 93.8391C70.7844 106.242 71.1214 118.365 71.5254 130.803C71.5684 132.114 71.6024 133.522 70.8834 134.619C69.7144 136.4 68.6884 136.118 67.8504 134.94Z" fill="url(#paint5_radial_1_7)"/>
<path d="M84.9114 141.012C83.3214 138.777 83.3464 136.646 83.5354 134.12C83.7824 130.825 83.5374 127.415 83.5384 124.11C83.5464 99.0291 85.9804 74.4951 91.0664 49.9291C91.5794 47.4531 92.1124 44.9801 92.6674 42.5131C93.1234 40.4781 95.0444 26.0851 99.6204 29.4461C102.494 31.5571 99.5674 37.9721 98.9804 40.6131C97.9714 44.9071 96.7074 49.1371 95.7404 53.4421C94.2454 60.1031 93.7964 67.0371 92.9784 73.8101C92.3944 78.6501 91.8104 83.4911 91.2254 88.3311C90.6964 92.7131 89.4374 97.4561 89.4374 101.86C87.7054 113.675 88.0254 125.224 88.4104 137.072C88.4504 138.321 88.4834 139.662 87.7984 140.707C86.6874 142.403 85.7104 142.135 84.9114 141.012Z" fill="url(#paint6_radial_1_7)"/>
<path d="M96.8974 140.306C95.6404 138.482 95.6864 136.761 95.8694 134.723C96.1084 132.065 95.9524 129.308 95.9924 126.639C96.3014 106.383 98.5634 86.5991 102.966 66.8201C103.41 64.8261 103.871 62.8361 104.348 60.8501C104.741 59.2121 106.465 47.6111 110.121 50.3811C112.417 52.1201 109.975 57.2661 109.47 59.3921C108.603 62.8481 107.531 66.2491 106.699 69.7141C105.411 75.0761 104.965 80.6701 104.223 86.1301C103.693 90.0321 103.163 93.9341 102.632 97.8371C102.152 101.369 101.078 105.185 101.025 108.742C99.4844 118.263 99.6034 127.594 99.7714 137.168C99.7894 138.177 99.7994 139.261 99.2334 140.096C98.3144 141.451 97.5284 141.222 96.8974 140.306Z" fill="url(#paint7_radial_1_7)"/>
<path d="M59.2024 197.576C86.3544 197.576 108.365 192.452 108.365 186.13C108.365 179.809 86.3544 174.684 59.2024 174.684C32.0504 174.684 10.0394 179.809 10.0394 186.13C10.0394 192.452 32.0504 197.576 59.2024 197.576Z" fill="#F6F5E1"/>
<path d="M59.2024 197.576C86.3544 197.576 108.365 192.452 108.365 186.13C108.365 179.809 86.3544 174.684 59.2024 174.684C32.0504 174.684 10.0394 179.809 10.0394 186.13C10.0394 192.452 32.0504 197.576 59.2024 197.576Z" fill="url(#paint8_radial_1_7)"/>
<path d="M59.2024 123.643C32.0504 123.643 10.0394 128.768 10.0394 135.09V186.13C10.0394 179.808 32.0504 174.683 59.2024 174.683C86.3544 174.683 108.365 179.808 108.365 186.13V135.09C108.366 128.768 86.3554 123.643 59.2024 123.643Z" fill="#F6F5E1"/>
<path opacity="0.5" d="M106.865 181.422C99.0134 175.77 77.1594 173.182 59.2034 173.182C41.2464 173.182 19.3934 175.769 11.5414 181.422V135.09C11.5414 130.937 29.6734 125.145 59.2034 125.145C88.7334 125.145 106.865 130.937 106.865 135.09V181.422Z" fill="url(#paint9_radial_1_7)"/>
<path d="M53.5544 17.3691C54.1894 17.1541 54.8704 17.5111 55.4054 17.9141C57.6954 19.6371 59.0584 22.3681 59.6814 25.1661C60.3044 27.9631 60.2594 30.8611 60.2124 33.7261C59.9594 49.0191 59.7064 64.3121 59.4524 79.6051C59.1854 95.7521 58.9184 111.916 59.7954 128.042C59.8234 128.551 59.8494 129.077 59.6674 129.553C59.0854 131.081 56.6914 131.047 55.5734 129.854C54.4554 128.661 54.2704 126.895 54.1434 125.265C53.8734 121.812 53.6034 118.359 53.4534 114.899C52.9234 102.665 54.0654 90.4581 54.2724 78.2791C54.2724 65.2361 56.0814 51.5851 54.3364 38.6441C53.4834 32.3181 52.0774 25.9971 52.4354 19.6231C52.4864 18.7321 52.7084 17.6561 53.5544 17.3691Z" fill="url(#paint10_radial_1_7)"/>
<defs>
<radialGradient id="paint0_radial_1_7" cx="0" cy="0" r="1" gradientUnits="userSpaceOnUse" gradientTransform="translate(33.9726 76.5282) scale(57.7577 142.806)">
<stop offset="0.2349" stop-color="white"/>
<stop offset="0.9129" stop-color="white" stop-opacity="0"/>
</radialGradient>
<radialGradient id="paint1_radial_1_7" cx="0" cy="0" r="1" gradientTransform="matrix(78.9325 7.49284 -18.522 195.163 30.2159 114.806)" gradientUnits="userSpaceOnUse">
<stop offset="0.6242" stop-color="#B2B3A5" stop-opacity="0"/>
<stop offset="0.9771" stop-color="#B2B3A5"/>
</radialGradient>
<radialGradient id="paint2_radial_1_7" cx="0" cy="0" r="1" gradientTransform="matrix(4.79121 -0.654754 7.97311 58.3234 9.67822 92.8871)" gradientUnits="userSpaceOnUse">
<stop offset="0.544" stop-color="#DEDEC6" stop-opacity="0"/>
<stop offset="1" stop-color="#DEDEC6"/>
</radialGradient>
<radialGradient id="paint3_radial_1_7" cx="0" cy="0" r="1" gradientTransform="matrix(5.79647 -0.792131 9.64596 70.5605 22.2001 86.5199)" gradientUnits="userSpaceOnUse">
<stop offset="0.544" stop-color="#DEDEC6" stop-opacity="0"/>
<stop offset="1" stop-color="#DEDEC6"/>
</radialGradient>
<radialGradient id="paint4_radial_1_7" cx="0" cy="0" r="1" gradientTransform="matrix(6.27386 -0.669406 8.1458 76.3729 37.9522 73.1112)" gradientUnits="userSpaceOnUse">
<stop offset="0.544" stop-color="#DEDEC6" stop-opacity="0"/>
<stop offset="1" stop-color="#DEDEC6"/>
</radialGradient>
<radialGradient id="paint5_radial_1_7" cx="0" cy="0" r="1" gradientTransform="matrix(-6.25135 -0.854293 -10.4029 76.0977 76.8913 73.0147)" gradientUnits="userSpaceOnUse">
<stop offset="0.544" stop-color="#DEDEC6" stop-opacity="0"/>
<stop offset="1" stop-color="#DEDEC6"/>
</radialGradient>
<radialGradient id="paint6_radial_1_7" cx="0" cy="0" r="1" gradientTransform="matrix(-5.9551 -0.813808 -9.90994 72.4914 93.5274 82.0147)" gradientUnits="userSpaceOnUse">
<stop offset="0.544" stop-color="#DEDEC6" stop-opacity="0"/>
<stop offset="1" stop-color="#DEDEC6"/>
</radialGradient>
<radialGradient id="paint7_radial_1_7" cx="0" cy="0" r="1" gradientTransform="matrix(-4.79965 -0.729146 -8.87597 58.4249 104.624 92.8921)" gradientUnits="userSpaceOnUse">
<stop offset="0.544" stop-color="#DEDEC6" stop-opacity="0"/>
<stop offset="1" stop-color="#DEDEC6"/>
</radialGradient>
<radialGradient id="paint8_radial_1_7" cx="0" cy="0" r="1" gradientTransform="matrix(56.1698 0.314551 -0.11234 20.0751 58.4553 197.278)" gradientUnits="userSpaceOnUse">
<stop offset="0.3213" stop-color="#B2B3A5" stop-opacity="0"/>
<stop offset="0.9847" stop-color="#B2B3A5" stop-opacity="0.9775"/>
<stop offset="1" stop-color="#B2B3A5"/>
</radialGradient>
<radialGradient id="paint9_radial_1_7" cx="0" cy="0" r="1" gradientUnits="userSpaceOnUse" gradientTransform="translate(16.1592 133.97) scale(81.4413 81.4413)">
<stop offset="0.3213" stop-color="#B2B3A5" stop-opacity="0"/>
<stop offset="0.9847" stop-color="#B2B3A5" stop-opacity="0.9775"/>
<stop offset="1" stop-color="#B2B3A5"/>
</radialGradient>
<radialGradient id="paint10_radial_1_7" cx="0" cy="0" r="1" gradientTransform="matrix(5.96532 0.164112 -3.76861 136.814 56.6473 70.5367)" gradientUnits="userSpaceOnUse">
<stop offset="0.1233" stop-color="#DEDEC6"/>
<stop offset="0.4054" stop-color="#DEDEC6" stop-opacity="0"/>
</radialGradient>
</defs>
</svg>