<?xml version="1.0" encoding="utf-8"?>
<!-- Generator: Adobe Illustrator 27.5.0, SVG Export Plug-In . SVG Version: 6.00 Build 0)  -->
<svg version="1.1" xmlns="http://www.w3.org/2000/svg" xmlns:xlink="http://www.w3.org/1999/xlink" x="0px" y="0px"
	 viewBox="0 0 500 500" style="enable-background:new 0 0 500 500;" xml:space="preserve">
<g id="Background">
	<radialGradient id="SVGID_1_" cx="74" cy="84" r="704.1132" gradientUnits="userSpaceOnUse">
		<stop  offset="0" style="stop-color:#917A76"/>
		<stop  offset="0.1763" style="stop-color:#8A726D"/>
		<stop  offset="0.66" style="stop-color:#7B605B"/>
		<stop  offset="1" style="stop-color:#765954"/>
	</radialGradient>
	<rect style="fill:url(#SVGID_1_);" width="500" height="500"/>
</g>
<g id="Objects">
	<g>
		<g>
			<path style="fill:#F6F5E1;" d="M354.22,171.324c3.5-0.262,6.978-0.804,10.392-1.614c3.017-0.715,6.615-1.429,9.287-3.053
				c2.498-1.517,5.2-2.163,7.986-3.094c3.189-1.066,6.341-2.239,9.451-3.517c1.019-0.419,2.091-0.895,2.702-1.811
				c0.379-0.568,0.541-1.25,0.679-1.919c0.773-3.745,0.671-7.561,1.376-11.266c0.737-3.87,0.463-7.982,0.852-11.9
				c1.233-12.438,1.879-24.927,3.131-37.364c1.186-11.789,4.426-23.396,3.015-35.267c-0.74-6.228-2.412-12.963-6.474-17.908
				c-3.73-4.54-9.494-4.786-14.651-6.546c-6.929-2.365-11.568-7.089-17.703-10.638c-3.467-2.005-8.05-3.072-11.964-3.765
				c-10.19-1.805-21.454-0.072-30.221,5.541c-4.938,3.162-8.676,7.844-13.06,11.738c-6.941,6.165-15.857,10.748-19.962,19.074
				c-3.387,6.871-2.785,14.958-1.963,22.574c2.754,25.506,6.925,50.863,9.565,76.482c12.689,10.329,29.368,13.433,45.707,14.285
				C346.315,171.564,350.277,171.619,354.22,171.324z"/>
			
				<radialGradient id="SVGID_00000170272779793633795250000001084695813525453977_" cx="320.4252" cy="97.5042" r="57.7577" gradientTransform="matrix(1 0 0 2.4725 0 -143.574)" gradientUnits="userSpaceOnUse">
				<stop  offset="0.2349" style="stop-color:#FFFFFF"/>
				<stop  offset="0.9129" style="stop-color:#FFFFFF;stop-opacity:0"/>
			</radialGradient>
			<path style="opacity:0.7;fill:url(#SVGID_00000170272779793633795250000001084695813525453977_);" d="M348.412,170.028
				c-1.841,0-3.793-0.055-5.967-0.168c-12.557-0.655-30.745-2.778-44.357-13.564c-1.371-13.18-3.166-26.482-4.903-39.35
				c-1.614-11.962-3.283-24.331-4.599-36.515c-0.843-7.808-1.339-15.347,1.817-21.749c2.74-5.56,7.752-9.357,13.059-13.378
				c2.197-1.665,4.469-3.386,6.554-5.238c1.547-1.374,3.024-2.852,4.451-4.281c2.739-2.742,5.326-5.333,8.421-7.314
				c6.033-3.863,13.69-5.99,21.561-5.99c2.556,0,5.11,0.223,7.59,0.662c3.263,0.578,8.003,1.579,11.474,3.587
				c2.146,1.241,4.155,2.666,6.097,4.045c3.554,2.522,7.229,5.13,11.873,6.715c1.382,0.472,2.799,0.837,4.17,1.191
				c3.778,0.974,7.347,1.895,9.806,4.888c3.231,3.933,5.241,9.537,6.143,17.132c0.953,8.02-0.308,16.159-1.527,24.031
				c-0.552,3.563-1.122,7.247-1.491,10.91c-0.638,6.334-1.126,12.779-1.598,19.011c-0.456,6.023-0.928,12.25-1.533,18.354
				c-0.159,1.602-0.21,3.238-0.261,4.82c-0.077,2.43-0.149,4.726-0.572,6.947c-0.354,1.86-0.512,3.74-0.666,5.559
				c-0.166,1.969-0.323,3.829-0.706,5.684c-0.111,0.536-0.229,1.047-0.458,1.389c-0.361,0.54-1.164,0.902-2.024,1.256
				c-3.062,1.259-6.21,2.431-9.356,3.482c-0.596,0.199-1.188,0.385-1.774,0.569c-2.165,0.68-4.403,1.383-6.515,2.666
				c-2.18,1.324-5.196,2.024-7.857,2.642l-0.997,0.233c-3.346,0.793-6.763,1.324-10.158,1.577
				C352.3,169.962,350.436,170.028,348.412,170.028z"/>
			
				<radialGradient id="SVGID_00000006677153543099487230000007457004855803140736_" cx="316.6722" cy="135.7842" r="79.2893" gradientTransform="matrix(0.9955 0.0945 -0.2336 2.4614 33.1405 -228.3619)" gradientUnits="userSpaceOnUse">
				<stop  offset="0.6242" style="stop-color:#B2B3A5;stop-opacity:0"/>
				<stop  offset="0.9771" style="stop-color:#B2B3A5"/>
			</radialGradient>
			<path style="opacity:0.4;fill:url(#SVGID_00000006677153543099487230000007457004855803140736_);" d="M348.412,170.028
				c-1.841,0-3.793-0.055-5.967-0.168c-12.557-0.655-30.745-2.778-44.357-13.564c-1.371-13.18-3.166-26.482-4.903-39.35
				c-1.614-11.962-3.283-24.331-4.599-36.515c-0.843-7.808-1.339-15.347,1.817-21.749c2.74-5.56,7.752-9.357,13.059-13.378
				c2.197-1.665,4.469-3.386,6.554-5.238c1.547-1.374,3.024-2.852,4.451-4.281c2.739-2.742,5.326-5.333,8.421-7.314
				c6.033-3.863,13.69-5.99,21.561-5.99c2.556,0,5.11,0.223,7.59,0.662c3.263,0.578,8.003,1.579,11.474,3.587
				c2.146,1.241,4.155,2.666,6.097,4.045c3.554,2.522,7.229,5.13,11.873,6.715c1.382,0.472,2.799,0.837,4.17,1.191
				c3.778,0.974,7.347,1.895,9.806,4.888c3.231,3.933,5.241,9.537,6.143,17.132c0.953,8.02-0.308,16.159-1.527,24.031
				c-0.552,3.563-1.122,7.247-1.491,10.91c-0.638,6.334-1.126,12.779-1.598,19.011c-0.456,6.023-0.928,12.25-1.533,18.354
				c-0.159,1.602-0.21,3.238-0.261,4.82c-0.077,2.43-0.149,4.726-0.572,6.947c-0.354,1.86-0.512,3.74-0.666,5.559
				c-0.166,1.969-0.323,3.829-0.706,5.684c-0.111,0.536-0.229,1.047-0.458,1.389c-0.361,0.54-1.164,0.902-2.024,1.256
				c-3.062,1.259-6.21,2.431-9.356,3.482c-0.596,0.199-1.188,0.385-1.774,0.569c-2.165,0.68-4.403,1.383-6.515,2.666
				c-2.18,1.324-5.196,2.024-7.857,2.642l-0.997,0.233c-3.346,0.793-6.763,1.324-10.158,1.577
				C352.3,169.962,350.436,170.028,348.412,170.028z"/>
			
				<radialGradient id="SVGID_00000113338594052246251580000016197857912930835628_" cx="296.128" cy="113.8525" r="4.8357" gradientTransform="matrix(0.9908 -0.1354 1.6488 12.061 -184.9928 -1219.2152)" gradientUnits="userSpaceOnUse">
				<stop  offset="0.544" style="stop-color:#DEDEC6;stop-opacity:0"/>
				<stop  offset="1" style="stop-color:#DEDEC6"/>
			</radialGradient>
			<path style="fill:url(#SVGID_00000113338594052246251580000016197857912930835628_);" d="M303.02,161.2
				c1.279-1.798,1.259-3.512,1.107-5.545c-0.198-2.651-0.002-5.395-0.003-8.054c-0.007-20.179-1.965-39.918-6.056-59.683
				c-0.412-1.993-0.842-3.981-1.288-5.967c-0.367-1.637-1.912-13.217-5.594-10.513c-2.312,1.698,0.043,6.86,0.515,8.984
				c0.812,3.455,1.829,6.858,2.606,10.322c1.203,5.359,1.564,10.938,2.222,16.387c0.47,3.894,0.94,7.789,1.41,11.683
				c0.426,3.525,1.439,7.342,1.439,10.885c1.394,9.506,1.136,18.797,0.826,28.33c-0.033,1.005-0.059,2.084,0.492,2.925
				C301.591,162.319,302.377,162.103,303.02,161.2z"/>
			
				<radialGradient id="SVGID_00000160897601434881022510000010730046075531509171_" cx="308.6496" cy="107.4847" r="5.8503" gradientTransform="matrix(0.9908 -0.1354 1.6488 12.061 -174.3781 -1147.085)" gradientUnits="userSpaceOnUse">
				<stop  offset="0.544" style="stop-color:#DEDEC6;stop-opacity:0"/>
				<stop  offset="1" style="stop-color:#DEDEC6"/>
			</radialGradient>
			<path style="fill:url(#SVGID_00000160897601434881022510000010730046075531509171_);" d="M316.987,164.768
				c1.548-2.176,1.523-4.249,1.339-6.709c-0.24-3.207-0.002-6.526-0.003-9.744c-0.008-24.413-2.377-48.294-7.327-72.206
				c-0.499-2.41-1.019-4.817-1.558-7.219c-0.444-1.981-2.313-15.99-6.768-12.719c-2.797,2.054,0.052,8.299,0.623,10.869
				c0.982,4.18,2.213,8.297,3.153,12.487c1.456,6.484,1.892,13.233,2.688,19.825c0.569,4.712,1.137,9.423,1.706,14.135
				c0.515,4.265,1.741,8.882,1.741,13.169c1.686,11.501,1.374,22.742,1,34.275c-0.039,1.216-0.071,2.521,0.596,3.538
				C315.259,166.122,316.21,165.86,316.987,164.768z"/>
			
				<radialGradient id="SVGID_00000157291889734017335980000010051801523964789663_" cx="327.5956" cy="43.1933" r="6.3092" gradientTransform="matrix(0.9944 -0.1061 1.2911 12.105 -57.1231 -394.0089)" gradientUnits="userSpaceOnUse">
				<stop  offset="0.544" style="stop-color:#DEDEC6;stop-opacity:0"/>
				<stop  offset="1" style="stop-color:#DEDEC6"/>
			</radialGradient>
			<path style="fill:url(#SVGID_00000157291889734017335980000010051801523964789663_);" d="M331.564,156.117
				c1.738-2.296,1.778-4.532,1.658-7.189c-0.156-3.465,0.206-7.035,0.308-10.504c0.771-26.318-1.02-52.137-5.592-78.072
				c-0.461-2.615-0.944-5.225-1.449-7.831c-0.415-2.15-1.983-17.312-6.889-13.927c-3.081,2.125-0.209,8.948,0.324,11.737
				c0.925,4.537,2.12,9.015,3,13.562c1.362,7.036,1.617,14.326,2.264,21.457c0.463,5.097,0.925,10.194,1.388,15.292
				c0.419,4.614,1.593,9.631,1.456,14.252c1.45,12.451,0.755,24.559-0.017,36.98c-0.081,1.309-0.158,2.716,0.529,3.833
				C329.658,157.521,330.692,157.27,331.564,156.117z"/>
			
				<radialGradient id="SVGID_00000175287891735182336870000007718608641112432544_" cx="-3137.4902" cy="94.1393" r="6.3094" gradientTransform="matrix(-0.9908 -0.1354 -1.6488 12.061 -2590.0645 -1466.2386)" gradientUnits="userSpaceOnUse">
				<stop  offset="0.544" style="stop-color:#DEDEC6;stop-opacity:0"/>
				<stop  offset="1" style="stop-color:#DEDEC6"/>
			</radialGradient>
			<path style="fill:url(#SVGID_00000175287891735182336870000007718608641112432544_);" d="M354.303,155.917
				c-1.669-2.346-1.643-4.583-1.444-7.235c0.259-3.459,0.002-7.039,0.004-10.508c0.009-26.329,2.564-52.084,7.902-77.872
				c0.538-2.6,1.098-5.195,1.681-7.785c0.478-2.136,2.495-17.245,7.299-13.717c3.017,2.216-0.056,8.951-0.672,11.722
				c-1.059,4.508-2.386,8.948-3.401,13.467c-1.57,6.993-2.041,14.272-2.899,21.381c-0.613,5.081-1.227,10.163-1.84,15.244
				c-0.555,4.6-1.877,9.579-1.877,14.202c-1.819,12.403-1.482,24.526-1.078,36.964c0.043,1.311,0.077,2.719-0.642,3.816
				C356.167,157.377,355.141,157.095,354.303,155.917z"/>
			
				<radialGradient id="SVGID_00000083789323400632568040000006636244180877052348_" cx="-3154.126" cy="103.1396" r="6.0104" gradientTransform="matrix(-0.9908 -0.1354 -1.6488 12.061 -2575.0715 -1568.0437)" gradientUnits="userSpaceOnUse">
				<stop  offset="0.544" style="stop-color:#DEDEC6;stop-opacity:0"/>
				<stop  offset="1" style="stop-color:#DEDEC6"/>
			</radialGradient>
			<path style="fill:url(#SVGID_00000083789323400632568040000006636244180877052348_);" d="M371.364,161.989
				c-1.59-2.235-1.565-4.366-1.376-6.892c0.247-3.295,0.002-6.705,0.003-10.01c0.008-25.081,2.442-49.615,7.528-74.181
				c0.513-2.476,1.046-4.949,1.601-7.416c0.456-2.035,2.377-16.428,6.953-13.067c2.874,2.111-0.053,8.526-0.64,11.167
				c-1.009,4.294-2.273,8.524-3.24,12.829c-1.495,6.661-1.944,13.595-2.762,20.368c-0.584,4.84-1.168,9.681-1.753,14.521
				c-0.529,4.382-1.788,9.125-1.788,13.529c-1.732,11.815-1.412,23.364-1.027,35.212c0.04,1.249,0.073,2.59-0.612,3.635
				C373.14,163.38,372.163,163.112,371.364,161.989z"/>
			
				<radialGradient id="SVGID_00000123407758297131649650000014730636978220042890_" cx="-3166.9602" cy="88.3614" r="4.8545" gradientTransform="matrix(-0.9887 -0.1502 -1.8284 12.0352 -2578.5366 -1425.2555)" gradientUnits="userSpaceOnUse">
				<stop  offset="0.544" style="stop-color:#DEDEC6;stop-opacity:0"/>
				<stop  offset="1" style="stop-color:#DEDEC6"/>
			</radialGradient>
			<path style="fill:url(#SVGID_00000123407758297131649650000014730636978220042890_);" d="M383.35,161.283
				c-1.257-1.824-1.211-3.545-1.028-5.583c0.239-2.658,0.083-5.415,0.123-8.084c0.309-20.256,2.571-40.04,6.974-59.819
				c0.444-1.994,0.905-3.984,1.382-5.97c0.393-1.638,2.117-13.239,5.773-10.469c2.296,1.739-0.146,6.885-0.651,9.011
				c-0.867,3.456-1.939,6.857-2.771,10.322c-1.288,5.362-1.734,10.956-2.476,16.416c-0.53,3.902-1.06,7.804-1.591,11.707
				c-0.48,3.532-1.554,7.348-1.607,10.905c-1.541,9.521-1.422,18.852-1.254,28.426c0.018,1.009,0.028,2.093-0.538,2.928
				C384.767,162.428,383.981,162.199,383.35,161.283z"/>
			<g>
				<g>
					<ellipse style="fill:#F6F5E1;" cx="345.655" cy="207.107" rx="49.163" ry="11.446"/>
					
						<radialGradient id="SVGID_00000115476796932330440790000010247182865772490637_" cx="344.9048" cy="218.2403" r="56.1698" gradientTransform="matrix(1 0.0056 -0.002 0.3574 0.4396 138.3244)" gradientUnits="userSpaceOnUse">
						<stop  offset="0.3213" style="stop-color:#B2B3A5;stop-opacity:0"/>
						<stop  offset="0.9847" style="stop-color:#B2B3A5;stop-opacity:0.9775"/>
						<stop  offset="1" style="stop-color:#B2B3A5"/>
					</radialGradient>
					
						<ellipse style="fill:url(#SVGID_00000115476796932330440790000010247182865772490637_);" cx="345.655" cy="207.107" rx="49.163" ry="11.446"/>
					<path style="fill:#F6F5E1;" d="M345.655,144.62c-27.152,0-49.163,5.125-49.163,11.447v51.04
						c0-6.322,22.011-11.447,49.163-11.447c27.152,0,49.163,5.125,49.163,11.447v-51.04
						C394.819,149.745,372.808,144.62,345.655,144.62z"/>
					
						<radialGradient id="SVGID_00000103974115628634396220000007150404797837088434_" cx="302.6118" cy="154.947" r="81.4413" gradientUnits="userSpaceOnUse">
						<stop  offset="0.3213" style="stop-color:#B2B3A5;stop-opacity:0"/>
						<stop  offset="0.9847" style="stop-color:#B2B3A5;stop-opacity:0.9775"/>
						<stop  offset="1" style="stop-color:#B2B3A5"/>
					</radialGradient>
					<path style="opacity:0.5;fill:url(#SVGID_00000103974115628634396220000007150404797837088434_);" d="M393.318,202.399
						c-7.852-5.652-29.706-8.24-47.662-8.24c-17.957,0-39.81,2.587-47.662,8.24v-46.332c0-4.153,18.132-9.945,47.662-9.945
						c29.53,0,47.662,5.792,47.662,9.945V202.399z"/>
				</g>
			</g>
			
				<radialGradient id="SVGID_00000026867564312732031690000009152371016811677877_" cx="343.1027" cy="91.5269" r="5.9677" gradientTransform="matrix(0.9996 0.0275 -0.6315 22.9257 57.9337 -2016.2399)" gradientUnits="userSpaceOnUse">
				<stop  offset="0.1233" style="stop-color:#DEDEC6"/>
				<stop  offset="0.4054" style="stop-color:#DEDEC6;stop-opacity:0"/>
			</radialGradient>
			<path style="fill:url(#SVGID_00000026867564312732031690000009152371016811677877_);" d="M340.007,38.346
				c0.635-0.215,1.316,0.142,1.851,0.545c2.29,1.723,3.653,4.454,4.276,7.252c0.623,2.797,0.578,5.695,0.531,8.56
				c-0.253,15.293-0.506,30.586-0.76,45.879c-0.267,16.147-0.534,32.311,0.343,48.437c0.028,0.509,0.054,1.035-0.128,1.511
				c-0.582,1.528-2.976,1.494-4.094,0.301s-1.303-2.959-1.43-4.589c-0.27-3.453-0.54-6.906-0.69-10.366
				c-0.53-12.234,0.612-24.441,0.819-36.62c0-13.043,1.809-26.694,0.064-39.635c-0.853-6.326-2.259-12.647-1.901-19.021
				C338.939,39.709,339.161,38.633,340.007,38.346z"/>
		</g>
		<g>
			<path style="fill:#F6F5E1;" d="M217.907,135.718c-5.184,4.135-6.111,11.284-9.84,16.472
				c-5.041,7.013-12.937,10.895-21.436,11.636c-20.954,1.826-42.024,2.321-63.04,1.482c-2.033-0.081-4.114-0.186-5.991-0.972
				c-4.417-1.851-6.737-5.915-11.546-7.109c-3.926-0.975-6.639-4.494-8.762-7.938c-2.123-3.444-4.139-7.207-7.601-9.299
				c-2.972-1.796-6.761-2.181-9.326-4.523c-4.806-4.389-2.6-14.597,0.777-19.196c4.665-6.353,14.748-6.838,19.148-13.377
				c2.539-3.774,2.672-8.938,5.763-12.276c1.045-1.128,2.362-1.965,3.696-2.729c2.985-1.711,6.194-3.145,9.605-3.593
				c7.342-0.963,14.722,2.718,22.053,1.672c2.368-0.338,4.636-1.16,6.884-1.977c5.53-2.01,11.939-5.149,17.951-3.645
				c2.783,0.696,5.21,2.376,7.887,3.405c5.241,2.015,11.059,1.433,16.673,1.359c4.525-0.059,9.055,0.233,13.535,0.873
				c2.59,0.37,5.209,0.871,7.529,2.08c3.408,1.776,5.882,4.922,7.956,8.158c5.791,9.036,9.306,20.226,6.476,30.579
				c-0.462,1.688-1.111,3.375-2.282,4.675C222.351,133.324,219.852,134.167,217.907,135.718z"/>
			
				<radialGradient id="SVGID_00000104698962281935788810000003464395714019687040_" cx="147.9604" cy="113.9035" r="80.7893" gradientTransform="matrix(0.9959 -0.09 0.1102 1.22 -11.9514 -11.7482)" gradientUnits="userSpaceOnUse">
				<stop  offset="0.6242" style="stop-color:#B2B3A5;stop-opacity:0"/>
				<stop  offset="0.9771" style="stop-color:#B2B3A5"/>
			</radialGradient>
			<path style="fill:url(#SVGID_00000104698962281935788810000003464395714019687040_);" d="M143.441,164.203
				c-6.571,0-13.229-0.133-19.791-0.395c-1.776-0.071-3.789-0.152-5.47-0.857c-1.764-0.739-3.183-1.893-4.684-3.115
				c-2.008-1.633-4.084-3.323-7.08-4.067c-3.522-0.875-6.043-4.344-7.846-7.268c-0.229-0.372-0.458-0.748-0.687-1.126
				c-1.974-3.252-4.015-6.615-7.416-8.671c-1.36-0.822-2.826-1.358-4.244-1.876c-1.834-0.67-3.566-1.303-4.846-2.472
				c-3.98-3.634-2.153-12.939,0.975-17.199c2.065-2.813,5.389-4.388,8.907-6.056c3.838-1.819,7.806-3.701,10.276-7.371
				c1.246-1.852,1.942-3.938,2.616-5.955c0.777-2.328,1.511-4.527,3.004-6.139c0.922-0.996,2.15-1.764,3.341-2.446
				c3.427-1.964,6.303-3.046,9.054-3.407c0.767-0.1,1.551-0.15,2.397-0.15c2.643,0,5.281,0.48,8.074,0.988
				c2.799,0.509,5.693,1.036,8.602,1.036c1.054,0,2.034-0.067,2.997-0.204c2.533-0.362,4.898-1.221,7.185-2.053
				c0.836-0.304,1.692-0.633,2.565-0.969c3.807-1.465,7.743-2.98,11.546-2.98c1.039,0,2.036,0.118,2.963,0.35
				c1.508,0.377,2.935,1.091,4.445,1.847c1.046,0.523,2.127,1.065,3.267,1.503c3.651,1.404,7.418,1.594,10.621,1.594
				c1.296,0,2.606-0.036,3.873-0.071c0.915-0.026,1.829-0.051,2.738-0.063c0.376-0.005,0.752-0.008,1.127-0.008
				c4.061,0,8.157,0.291,12.176,0.866c2.398,0.342,4.912,0.813,7.048,1.926c3.316,1.728,5.689,4.989,7.386,7.636
				c3.749,5.85,9.552,17.446,6.292,29.373c-0.516,1.888-1.117,3.142-1.949,4.066c-0.827,0.917-1.97,1.581-3.179,2.285
				c-0.919,0.534-1.869,1.086-2.751,1.789c-3.419,2.727-5.101,6.557-6.726,10.261c-1.034,2.356-2.011,4.581-3.397,6.509
				c-4.571,6.359-11.797,10.271-20.348,11.016C172.245,163.573,157.758,164.203,143.441,164.203z"/>
			
				<radialGradient id="SVGID_00000177449036730767067880000005377294138483054212_" cx="102.7988" cy="158.5723" r="17.4668" gradientTransform="matrix(0.8186 -0.5744 2.2674 3.2314 -340.9029 -294.799)" gradientUnits="userSpaceOnUse">
				<stop  offset="0.6246" style="stop-color:#DEDEC6;stop-opacity:0"/>
				<stop  offset="1" style="stop-color:#DEDEC6"/>
			</radialGradient>
			<path style="opacity:0.8;fill:url(#SVGID_00000177449036730767067880000005377294138483054212_);" d="M91.026,133.777
				c-2.327-1.995-3.5-5.252-2.978-8.273c0.64-3.708,3.549-7.05,7.393-4.737c2.636,1.586,4.387,4.262,6.154,6.781
				c2.148,3.061,4.595,5.347,7.892,7.093c3.235,1.714,6.459,3.476,8.634,6.531c1.768,2.484,2.627,5.519,2.967,8.55
				c0.182,1.623,0.171,3.425-0.869,4.684c-0.734,0.888-1.878,1.351-3.017,1.517c-3.152,0.459-6.309-1.148-8.561-3.401
				c-2.252-2.253-3.785-5.104-5.416-7.84c-1.632-2.736-3.46-5.467-6.093-7.26C95.167,136.085,92.828,135.322,91.026,133.777z"/>
			
				<radialGradient id="SVGID_00000111880369535741997830000000638306301812848550_" cx="147.2625" cy="104.2763" r="35.0832" gradientTransform="matrix(-0.9343 0.3566 -0.715 -1.8734 359.4046 247.1126)" gradientUnits="userSpaceOnUse">
				<stop  offset="0.6246" style="stop-color:#DEDEC6;stop-opacity:0"/>
				<stop  offset="1" style="stop-color:#DEDEC6"/>
			</radialGradient>
			<path style="opacity:0.8;fill:url(#SVGID_00000111880369535741997830000000638306301812848550_);" d="M117.561,93.998
				c3.577-1.445,7.636,0.271,10.843,2.416c1.121,0.75,2.234,1.588,2.92,2.75c0.605,1.025,0.831,2.225,1.004,3.403
				c0.748,5.072,0.722,10.258-0.078,15.322c-0.324,2.05-0.775,4.099-0.74,6.174c0.086,4.981,2.912,9.424,5.01,13.942
				c2.099,4.518,3.445,10.09,0.755,14.283c-0.385,0.6-0.863,1.168-1.499,1.492c-0.517,0.263-1.105,0.348-1.684,0.389
				c-1.599,0.111-3.219-0.097-4.739-0.607c-0.339-0.114-0.701-0.267-0.867-0.583c-0.197-0.374-0.048-0.827,0.086-1.228
				c1.699-5.1,0.328-10.806-2.326-15.481c-2.654-4.675-6.485-8.546-10.112-12.513c-1.952-2.135-3.89-4.365-5.006-7.034
				C108.137,109.571,109.18,97.382,117.561,93.998z"/>
			
				<radialGradient id="SVGID_00000027562683278987633380000010916749154706240919_" cx="180.0332" cy="169.6731" r="23.2122" gradientTransform="matrix(0.9671 -0.2545 1.1365 4.3195 -186.9088 -517.4164)" gradientUnits="userSpaceOnUse">
				<stop  offset="0.7015" style="stop-color:#DEDEC6;stop-opacity:0"/>
				<stop  offset="1" style="stop-color:#DEDEC6"/>
			</radialGradient>
			<path style="opacity:0.8;fill:url(#SVGID_00000027562683278987633380000010916749154706240919_);" d="M166.684,148.082
				c-0.643,1.791-1.924,3.428-3.499,4.25c-2.516,1.314-5.516,1.227-8.336,0.909c-1.479-0.167-2.991-0.402-4.288-1.131
				c-1.298-0.73-2.354-2.057-2.366-3.545c-0.011-1.417,0.879-2.655,1.457-3.949c1.521-3.41,0.875-7.403-0.381-10.918
				c-0.992-2.776-2.478-5.407-3.31-8.236c-0.719-2.448-0.716-5.278-1.059-7.841c-0.829-6.199-1.129-12.459-1.132-18.709
				c-0.001-1.379,0.026-2.792,0.516-4.081c0.49-1.289,1.539-2.45,2.897-2.693c3.54-0.635,5.939,4.848,9.494,4.297
				c1.944-0.301,3.094-2.278,4.663-3.465c0.39-0.295,0.835-0.551,1.323-0.585c0.953-0.067,1.783,0.757,2.056,1.672
				c0.736,2.468-1.146,6.043-2.11,8.257c-1.813,4.162-3.137,8.656-3.598,13.196c-0.19,1.872-0.278,3.755-0.264,5.637
				c0.036,4.805,2.003,8.9,2.672,13.547c0.614,4.262,5.634,6.579,5.715,10.827C167.148,146.361,166.987,147.239,166.684,148.082z"/>
			
				<linearGradient id="SVGID_00000065071886622882452020000010404378555822625446_" gradientUnits="userSpaceOnUse" x1="199.1001" y1="122.7195" x2="181.5835" y2="122.7195">
				<stop  offset="0.5041" style="stop-color:#DEDEC6;stop-opacity:0"/>
				<stop  offset="1" style="stop-color:#DEDEC6"/>
			</linearGradient>
			<path style="opacity:0.6;fill:url(#SVGID_00000065071886622882452020000010404378555822625446_);" d="M188.078,144.095
				c-0.222,1.228-0.604,2.383-1.38,3.375c-2.55,3.258-12.12,4.999-14.686,0.969c-3.182-4.996,5.872-13.46,8.127-17.477
				c0.495-0.882,0.663-1.904,0.822-2.903c0.786-4.922,2.209-10.42,1.031-15.4c-1.18-4.989-5.026-8.785-5.446-14.118
				c-0.082-1.046-0.019-2.177,0.608-3.019c0.627-0.842,1.985-1.196,2.745-0.471c3.025,5.215,6.051,10.429,9.076,15.644
				c3.334,5.746,6.145,13.622,3.385,20.173c-0.962,2.284-2.627,4.251-3.354,6.62C188.362,139.588,188.465,141.952,188.078,144.095z"
				/>
			
				<linearGradient id="SVGID_00000121994479816905635320000002932667812167011516_" gradientUnits="userSpaceOnUse" x1="215.3301" y1="140.0037" x2="206.4169" y2="135.1249">
				<stop  offset="0.5041" style="stop-color:#DEDEC6;stop-opacity:0"/>
				<stop  offset="1" style="stop-color:#DEDEC6"/>
			</linearGradient>
			<path style="fill:url(#SVGID_00000121994479816905635320000002932667812167011516_);" d="M213.639,115.015
				c-0.482-0.211-1.026-0.318-1.635-0.29c-2.125,0.1-3.828,1.905-4.643,3.87c-0.815,1.965-0.974,4.131-1.462,6.202
				c-0.258,1.097-0.61,2.17-1.014,3.222c-1.265,3.291-3.056,6.377-5.276,9.116c-1.971,2.432-5.161,4.269-6.742,6.929
				c-1.246,2.096-0.895,4.862,0.348,6.96c0.472,0.796,1.081,1.539,1.889,1.989c3.877,2.157,7.429-1.933,9.647-4.554
				c1.561-1.844,2.76-4.077,2.98-6.483c0.083-0.905,0.027-1.825,0.199-2.717c0.851-4.405,6.562-6.184,8.29-10.324
				c0.565-1.355,0.651-2.855,0.711-4.322c0.069-1.697,0.113-3.416-0.261-5.072C216.264,117.745,215.326,115.752,213.639,115.015z"/>
			<g>
				<ellipse style="fill:#F6F5E1;" cx="156.008" cy="207.107" rx="49.163" ry="11.446"/>
				
					<radialGradient id="SVGID_00000155853392244997491390000004181946667654486926_" cx="155.2569" cy="218.2403" r="56.1698" gradientTransform="matrix(1 0.0056 -0.002 0.3574 0.4367 139.3804)" gradientUnits="userSpaceOnUse">
					<stop  offset="0.3213" style="stop-color:#B2B3A5;stop-opacity:0"/>
					<stop  offset="0.9847" style="stop-color:#B2B3A5;stop-opacity:0.9775"/>
					<stop  offset="1" style="stop-color:#B2B3A5"/>
				</radialGradient>
				
					<ellipse style="fill:url(#SVGID_00000155853392244997491390000004181946667654486926_);" cx="156.008" cy="207.107" rx="49.163" ry="11.446"/>
				<path style="fill:#F6F5E1;" d="M156.007,144.62c-27.152,0-49.163,5.125-49.163,11.447v51.04
					c0-6.322,22.011-11.447,49.163-11.447c27.152,0,49.163,5.125,49.163,11.447v-51.04
					C205.171,149.745,183.16,144.62,156.007,144.62z"/>
				
					<linearGradient id="SVGID_00000152969245610636830670000011694744180257540781_" gradientUnits="userSpaceOnUse" x1="107.5948" y1="174.687" x2="204.4203" y2="174.687">
					<stop  offset="0.3213" style="stop-color:#B2B3A5;stop-opacity:0"/>
					<stop  offset="0.9033" style="stop-color:#B2B3A5;stop-opacity:0.9775"/>
					<stop  offset="0.9167" style="stop-color:#B2B3A5"/>
				</linearGradient>
				<path style="fill:url(#SVGID_00000152969245610636830670000011694744180257540781_);" d="M204.42,204.003
					c-5.792-5.751-27.411-9.094-48.413-9.094c-21.001,0-42.62,3.343-48.413,9.094v-47.936c0-5.165,19.453-10.696,48.413-10.696
					s48.413,5.53,48.413,10.696V204.003z"/>
				
					<radialGradient id="SVGID_00000020385113307086754110000004072638784528085639_" cx="112.286" cy="154.5656" r="83.1851" gradientUnits="userSpaceOnUse">
					<stop  offset="0" style="stop-color:#FFFFFF"/>
					<stop  offset="0.0225" style="stop-color:#FFFFFF;stop-opacity:0.9775"/>
					<stop  offset="1" style="stop-color:#FFFFFF;stop-opacity:0"/>
				</radialGradient>
				<path style="opacity:0.8;fill:url(#SVGID_00000020385113307086754110000004072638784528085639_);" d="M204.42,204.003
					c-5.792-5.751-27.411-9.094-48.413-9.094c-21.001,0-42.62,3.343-48.413,9.094v-47.936c0-5.165,19.453-10.696,48.413-10.696
					s48.413,5.53,48.413,10.696V204.003z"/>
			</g>
			
				<radialGradient id="SVGID_00000075126433371439724400000006749595600585349283_" cx="161.9497" cy="112.8455" r="43.9097" gradientUnits="userSpaceOnUse">
				<stop  offset="0.2349" style="stop-color:#FFFFFF"/>
				<stop  offset="0.9129" style="stop-color:#FFFFFF;stop-opacity:0"/>
			</radialGradient>
			<path style="opacity:0.4;fill:url(#SVGID_00000075126433371439724400000006749595600585349283_);" d="M176.985,127.955
				c0.933-2.046,1.853-4.161,1.972-6.406c0.156-2.963-1.097-5.807-2.476-8.433c-1.094-2.085-2.299-4.154-2.831-6.448
				c-0.751-3.241-0.095-6.615,0.314-9.917c0.543-4.389-3.357-9.046-7.32-10.424c-2.766-0.962-5.778-0.952-8.691-0.651
				c-1.947,0.201-4.039,0.61-5.352,2.061c-0.502,0.555-0.852,1.226-1.194,1.891c-0.225,0.437-0.454,0.911-0.385,1.398
				c0.043,0.305,0.202,0.582,0.381,0.832c0.954,1.334,2.513,2.091,3.679,3.245c2.512,2.488,0.355,5.156-0.508,7.865
				c-0.496,1.556-0.863,3.151-1.169,4.755c-0.343,1.798-0.611,3.625-0.528,5.454c0.142,3.102,1.281,6.059,2.407,8.953
				c0.754,1.938,1.508,3.877,2.262,5.815c0.913,2.347,1.84,4.72,3.281,6.787c0.661,0.947,1.444,1.839,2.446,2.414
				c1.829,1.051,4.082,0.906,6.184,0.73c0.437-0.037,0.883-0.076,1.285-0.251c0.512-0.223,0.906-0.647,1.266-1.074
				C174.146,134.01,175.606,130.977,176.985,127.955z"/>
			
				<radialGradient id="SVGID_00000174567685978007304670000005160673839549058449_" cx="197.8411" cy="99.0301" r="39.3979" gradientUnits="userSpaceOnUse">
				<stop  offset="0" style="stop-color:#FFFFFF"/>
				<stop  offset="0.9129" style="stop-color:#FFFFFF;stop-opacity:0"/>
			</radialGradient>
			<path style="opacity:0.6;fill:url(#SVGID_00000174567685978007304670000005160673839549058449_);" d="M208.195,113.544
				c1.79-1.917,2.435-3.18,2.555-5.922c0.072-1.644,0.106-3.296-0.077-4.932c-0.408-3.644-2.12-6.945-4.246-9.885
				c-1.993-2.756-6.525-2.486-9.57-2.575c-1.45-0.043-2.9-0.085-4.35-0.128c-2.191-0.064-5.087,0.256-6.86,1.751
				c-1.571,1.324-1.089,4.84-0.342,6.515c0.408,0.916,1.089,1.677,1.726,2.45c2.024,2.456,3.775,5.223,5.01,8.162
				c0.985,2.345,0.928,5.667,0.609,8.155c-0.682,5.304-3.96,9.867-5.852,14.868c-0.483,1.278-0.739,3.015,0.412,3.751
				c0.515,0.329,1.168,0.334,1.778,0.29c4.458-0.317,8.723-2.734,11.283-6.398C203.717,124.714,204.087,117.941,208.195,113.544z"/>
		</g>
		<g>
			<path style="fill:#F6F5E1;" d="M111.901,370.357c-0.51-3.086-1.019-6.171-1.529-9.257c-0.823-4.981-1.935-10.461-5.967-13.5
				c-1.467-1.106-3.206-1.782-4.92-2.444c-7.808-3.017-16.413-5.417-19.8-13.96c-6.968-17.575,9.948-33.172,22.812-42.283
				c17.485-12.384,37.912-20.732,59.631-20.442c25.04,0.335,67.626,14.378,64.536,46.398c-1.767,18.311-19.372,32.302-16.955,51.721
				c0.41,3.295-5.645,4.125-8.88,4.872c-9.582,2.213-19.387,3.461-29.218,3.721c-3.595,0.095-7.216,0.055-10.751-0.604
				c-2.477-0.462-4.887-1.223-7.339-1.799c-3.412-0.801-6.908-1.24-10.412-1.309C132.831,371.271,121.314,374.488,111.901,370.357z"
				/>
			<path style="fill:#F6F5E1;" d="M168.967,373.721c-3.088,0-5.576-0.196-7.831-0.616c-1.472-0.275-2.904-0.655-4.42-1.058
				c-0.949-0.251-1.897-0.503-2.851-0.727c-3.509-0.824-7.117-1.278-10.726-1.349c-0.328-0.006-0.659-0.01-0.989-0.01
				c-3.014,0-6.147,0.259-9.178,0.508c-3.014,0.249-6.13,0.505-9.107,0.506c-4.285,0-7.687-0.538-10.618-1.685l-1.394-8.435
				c-0.909-5.503-2.163-11.152-6.544-14.454c-1.645-1.239-3.577-1.986-5.282-2.645c-0.798-0.309-1.604-0.611-2.412-0.913
				c-7.064-2.645-13.737-5.144-16.534-12.201c-6.325-15.952,8.627-30.831,22.283-40.504c18.633-13.198,38.573-20.173,57.665-20.173
				c0.36,0,0.718,0.002,1.079,0.007c18.133,0.242,42.876,7.616,55.084,21.239c6.138,6.85,8.823,14.762,7.979,23.513
				c-0.752,7.793-4.445,14.703-8.355,22.02c-4.918,9.203-10.004,18.719-8.596,30.031c0.191,1.537-4.294,2.488-6.45,2.945
				c-0.456,0.096-0.887,0.188-1.278,0.278c-9.474,2.188-19.204,3.427-28.92,3.683C170.704,373.706,169.835,373.721,168.967,373.721z
				"/>
			
				<radialGradient id="SVGID_00000103963213992525283960000015493456948406487699_" cx="156.5816" cy="310.5845" r="102.5771" gradientTransform="matrix(1 0 0 0.4592 0 167.9539)" gradientUnits="userSpaceOnUse">
				<stop  offset="0.6242" style="stop-color:#B2B3A5;stop-opacity:0"/>
				<stop  offset="0.9771" style="stop-color:#B2B3A5"/>
			</radialGradient>
			<path style="opacity:0.5;fill:url(#SVGID_00000103963213992525283960000015493456948406487699_);" d="M168.967,373.721
				c-3.088,0-5.576-0.196-7.831-0.616c-1.472-0.275-2.904-0.655-4.42-1.058c-0.949-0.251-1.897-0.503-2.851-0.727
				c-3.509-0.824-7.117-1.278-10.726-1.349c-0.328-0.006-0.659-0.01-0.989-0.01c-3.014,0-6.147,0.259-9.178,0.508
				c-3.014,0.249-6.13,0.505-9.107,0.506c-4.285,0-7.687-0.538-10.618-1.685l-1.394-8.435c-0.909-5.503-2.163-11.152-6.544-14.454
				c-1.645-1.239-3.577-1.986-5.282-2.645c-0.798-0.309-1.604-0.611-2.412-0.913c-7.064-2.645-13.737-5.144-16.534-12.201
				c-6.325-15.952,8.627-30.831,22.283-40.504c18.633-13.198,38.573-20.173,57.665-20.173c0.36,0,0.718,0.002,1.079,0.007
				c18.133,0.242,42.876,7.616,55.084,21.239c6.138,6.85,8.823,14.762,7.979,23.513c-0.752,7.793-4.445,14.703-8.355,22.02
				c-4.918,9.203-10.004,18.719-8.596,30.031c0.191,1.537-4.294,2.488-6.45,2.945c-0.456,0.096-0.887,0.188-1.278,0.278
				c-9.474,2.188-19.204,3.427-28.92,3.683C170.704,373.706,169.835,373.721,168.967,373.721z"/>
			
				<radialGradient id="SVGID_00000109022243254045501210000008002142284781216417_" cx="123.5517" cy="300.2938" r="87.213" gradientUnits="userSpaceOnUse">
				<stop  offset="0.2349" style="stop-color:#FFFFFF"/>
				<stop  offset="1" style="stop-color:#FFFFFF;stop-opacity:0"/>
			</radialGradient>
			<path style="opacity:0.7;fill:url(#SVGID_00000109022243254045501210000008002142284781216417_);" d="M168.967,373.721
				c-3.088,0-5.576-0.196-7.831-0.616c-1.472-0.275-2.904-0.655-4.42-1.058c-0.949-0.251-1.897-0.503-2.851-0.727
				c-3.509-0.824-7.117-1.278-10.726-1.349c-0.328-0.006-0.659-0.01-0.989-0.01c-3.014,0-6.147,0.259-9.178,0.508
				c-3.014,0.249-6.13,0.505-9.107,0.506c-4.285,0-7.687-0.538-10.618-1.685l-1.394-8.435c-0.909-5.503-2.163-11.152-6.544-14.454
				c-1.645-1.239-3.577-1.986-5.282-2.645c-0.798-0.309-1.604-0.611-2.412-0.913c-7.064-2.645-13.737-5.144-16.534-12.201
				c-6.325-15.952,8.627-30.831,22.283-40.504c18.633-13.198,38.573-20.173,57.665-20.173c0.36,0,0.718,0.002,1.079,0.007
				c18.133,0.242,42.876,7.616,55.084,21.239c6.138,6.85,8.823,14.762,7.979,23.513c-0.752,7.793-4.445,14.703-8.355,22.02
				c-4.918,9.203-10.004,18.719-8.596,30.031c0.191,1.537-4.294,2.488-6.45,2.945c-0.456,0.096-0.887,0.188-1.278,0.278
				c-9.474,2.188-19.204,3.427-28.92,3.683C170.704,373.706,169.835,373.721,168.967,373.721z"/>
			
				<radialGradient id="SVGID_00000044159039206902785020000017063928166100222870_" cx="148.7479" cy="319.0914" r="10.1024" gradientTransform="matrix(0.9867 -0.1627 0.6047 3.6676 -190.9583 -827.0155)" gradientUnits="userSpaceOnUse">
				<stop  offset="0.7015" style="stop-color:#DEDEC6;stop-opacity:0"/>
				<stop  offset="1" style="stop-color:#DEDEC6"/>
			</radialGradient>
			<path style="opacity:0.8;fill:url(#SVGID_00000044159039206902785020000017063928166100222870_);" d="M142.672,292.902
				c-1.394,3.828-1.457,7.993-1.505,12.066c-0.05,4.309-0.095,8.672,0.92,12.86c1.213,5.003,3.881,9.525,5.561,14.392
				c2.624,7.604,2.764,15.807,2.877,23.85c0.032,2.287-1.98,4.892-3.851,2.057c-0.974-1.475-0.498-3.921-0.644-5.632
				c-0.234-2.756-0.568-5.258-1.316-7.941c-3.118-11.122-7.2-21.991-8.323-33.556c-0.802-8.261,1.108-16.608,4.179-24.242
				c0.305-0.759,0.649-1.549,1.299-2.046c0.65-0.497,1.701-0.566,2.215,0.071c0.195,0.242,0.288,0.55,0.349,0.854
				C144.928,288.116,143.537,290.524,142.672,292.902z"/>
			
				<radialGradient id="SVGID_00000163074677782920470000000012763700100705408186_" cx="156.8897" cy="59.3808" r="11.2971" gradientTransform="matrix(0.9998 -0.0203 0.0755 3.7164 10.0692 96.2631)" gradientUnits="userSpaceOnUse">
				<stop  offset="0.7015" style="stop-color:#DEDEC6;stop-opacity:0"/>
				<stop  offset="1" style="stop-color:#DEDEC6"/>
			</radialGradient>
			<path style="opacity:0.8;fill:url(#SVGID_00000163074677782920470000000012763700100705408186_);" d="M168.861,283.804
				c-2.153,4.015-2.887,8.615-3.59,13.116c-0.743,4.762-1.488,9.583-1.032,14.381c0.545,5.732,2.778,11.161,3.861,16.816
				c1.692,8.835,0.539,17.937-0.618,26.857c-0.329,2.537-2.971,5.098-4.59,1.663c-0.842-1.788,0.074-4.42,0.185-6.336
				c0.18-3.088,0.21-5.91-0.19-8.999c-1.677-12.807-4.463-25.489-3.862-38.469c0.429-9.272,3.874-18.206,8.491-26.167
				c0.459-0.792,0.965-1.611,1.764-2.058c0.798-0.447,1.973-0.356,2.44,0.431c0.177,0.299,0.232,0.654,0.25,1.001
				C172.121,278.867,170.198,281.311,168.861,283.804z"/>
			
				<radialGradient id="SVGID_00000174569224116766889170000010014082017264583562_" cx="79.0624" cy="-336.0277" r="9.9357" gradientTransform="matrix(0.9769 0.2135 -0.7937 3.6314 -152.078 1528.5638)" gradientUnits="userSpaceOnUse">
				<stop  offset="0.7015" style="stop-color:#DEDEC6;stop-opacity:0"/>
				<stop  offset="1" style="stop-color:#DEDEC6"/>
			</radialGradient>
			<path style="opacity:0.8;fill:url(#SVGID_00000174569224116766889170000010014082017264583562_);" d="M195.836,299.044
				c-2.665,2.992-4.237,6.775-5.762,10.48c-1.613,3.92-3.239,7.89-3.834,12.087c-0.71,5.014,0.085,10.115-0.15,15.173
				c-0.366,7.903-3.22,15.45-6.04,22.842c-0.802,2.102-3.587,3.75-4.267,0.481c-0.354-1.702,0.97-3.765,1.459-5.381
				c0.788-2.604,1.392-5.012,1.684-7.735c1.194-11.297,1.414-22.714,4.592-33.691c2.27-7.841,7.05-14.775,12.631-20.635
				c0.555-0.583,1.156-1.18,1.931-1.398c0.775-0.218,1.761,0.101,1.999,0.87c0.09,0.292,0.064,0.607,0.008,0.908
				C199.638,295.491,197.491,297.186,195.836,299.044z"/>
			
				<radialGradient id="SVGID_00000153694301837665044180000004579731086076276410_" cx="40.5482" cy="-469.9772" r="7.9687" gradientTransform="matrix(0.9555 0.295 -1.0965 3.5518 -344.0799 1992.0775)" gradientUnits="userSpaceOnUse">
				<stop  offset="0.7015" style="stop-color:#DEDEC6;stop-opacity:0"/>
				<stop  offset="1" style="stop-color:#DEDEC6"/>
			</radialGradient>
			<path style="opacity:0.8;fill:url(#SVGID_00000153694301837665044180000004579731086076276410_);" d="M214.953,314.171
				c-2.332,2.211-3.844,5.128-5.312,7.986c-1.553,3.024-3.122,6.087-3.88,9.401c-0.906,3.959-0.615,8.09-1.144,12.116
				c-0.826,6.291-3.617,12.13-6.37,17.847c-0.783,1.626-3.12,2.755-3.442,0.096c-0.168-1.384,1.03-2.943,1.529-4.202
				c0.805-2.028,1.451-3.911,1.868-6.068c1.717-8.948,2.664-18.057,5.945-26.615c2.344-6.113,6.632-11.332,11.488-15.638
				c0.483-0.428,1.004-0.865,1.637-0.987c0.634-0.122,1.4,0.199,1.538,0.83c0.052,0.239,0.01,0.49-0.055,0.726
				C218.231,311.588,216.401,312.797,214.953,314.171z"/>
			
				<radialGradient id="SVGID_00000008829843806544860780000006859755357406575526_" cx="89.4275" cy="680.0502" r="10.1022" gradientTransform="matrix(0.934 -0.3573 1.3281 3.4719 -854.9337 -2006.6876)" gradientUnits="userSpaceOnUse">
				<stop  offset="0.7015" style="stop-color:#DEDEC6;stop-opacity:0"/>
				<stop  offset="1" style="stop-color:#DEDEC6"/>
			</radialGradient>
			<path style="opacity:0.8;fill:url(#SVGID_00000008829843806544860780000006859755357406575526_);" d="M120.563,297.965
				c-0.597,4.03,0.176,8.123,0.946,12.123c0.815,4.232,1.646,8.515,3.481,12.414c2.192,4.658,5.713,8.553,8.335,12.984
				c4.096,6.923,5.879,14.931,7.603,22.788c0.49,2.234-0.959,5.189-3.359,2.788c-1.25-1.25-1.275-3.742-1.76-5.388
				c-0.783-2.653-1.611-5.037-2.882-7.516c-5.285-10.27-11.465-20.1-14.885-31.205c-2.443-7.932-2.246-16.493-0.769-24.588
				c0.147-0.805,0.325-1.648,0.862-2.265c0.537-0.617,1.553-0.896,2.184-0.375c0.24,0.198,0.393,0.481,0.514,0.767
				C121.813,292.825,120.934,295.462,120.563,297.965z"/>
			
				<radialGradient id="SVGID_00000148655406382937415800000018435644605843863741_" cx="-91.9391" cy="1385.1251" r="10.1026" gradientTransform="matrix(0.8288 -0.5488 1.5934 1.9702 -2019.4713 -2447.9031)" gradientUnits="userSpaceOnUse">
				<stop  offset="0.7015" style="stop-color:#DEDEC6;stop-opacity:0"/>
				<stop  offset="1" style="stop-color:#DEDEC6"/>
			</radialGradient>
			<path style="opacity:0.8;fill:url(#SVGID_00000148655406382937415800000018435644605843863741_);" d="M98.789,317.371
				c0.027,3.177,1.356,5.986,2.669,8.726c1.389,2.899,2.801,5.831,5.103,8.174c2.751,2.799,6.644,4.626,9.766,7.125
				c4.879,3.905,7.734,9.318,10.512,14.636c0.79,1.512-0.144,4.149-2.761,3.091c-1.362-0.55-1.751-2.395-2.45-3.472
				c-1.127-1.735-2.258-3.256-3.82-4.714c-6.491-6.033-13.762-11.466-18.616-18.686c-3.467-5.156-4.535-11.581-4.328-18.047
				c0.021-0.643,0.065-1.324,0.481-1.945c0.416-0.622,1.334-1.137,2.006-0.941c0.255,0.074,0.441,0.238,0.597,0.415
				C99.216,313.17,98.772,315.397,98.789,317.371z"/>
			<g>
				<g>
					<ellipse style="fill:#F6F5E1;" cx="160.706" cy="414.883" rx="49.163" ry="11.446"/>
					
						<radialGradient id="SVGID_00000063635419259048821280000009357026648195442818_" cx="159.955" cy="426.0168" r="56.1698" gradientTransform="matrix(1 0.0056 -0.002 0.3574 0.8502 272.8748)" gradientUnits="userSpaceOnUse">
						<stop  offset="0.3213" style="stop-color:#B2B3A5;stop-opacity:0"/>
						<stop  offset="0.9847" style="stop-color:#B2B3A5;stop-opacity:0.9775"/>
						<stop  offset="1" style="stop-color:#B2B3A5"/>
					</radialGradient>
					
						<ellipse style="fill:url(#SVGID_00000063635419259048821280000009357026648195442818_);" cx="160.706" cy="414.883" rx="49.163" ry="11.446"/>
					<path style="fill:#F6F5E1;" d="M160.706,352.397c-27.152,0-49.163,5.125-49.163,11.446v51.04
						c0-6.322,22.011-11.446,49.163-11.446c27.152,0,49.163,5.125,49.163,11.446v-51.04
						C209.869,357.522,187.858,352.397,160.706,352.397z"/>
					
						<linearGradient id="SVGID_00000011027958735087365710000003973856998932689313_" gradientUnits="userSpaceOnUse" x1="112.2929" y1="382.4635" x2="209.1184" y2="382.4635">
						<stop  offset="0.3213" style="stop-color:#B2B3A5;stop-opacity:0"/>
						<stop  offset="0.9033" style="stop-color:#B2B3A5;stop-opacity:0.9775"/>
						<stop  offset="0.9167" style="stop-color:#B2B3A5"/>
					</linearGradient>
					<path style="fill:url(#SVGID_00000011027958735087365710000003973856998932689313_);" d="M209.118,411.78
						c-5.792-5.751-27.411-9.094-48.413-9.094c-21.001,0-42.62,3.343-48.413,9.094v-47.936c0-5.165,19.453-10.696,48.413-10.696
						c28.959,0,48.413,5.53,48.413,10.696V411.78z"/>
					
						<radialGradient id="SVGID_00000091712282435335643170000017581552473974895777_" cx="116.9841" cy="362.3421" r="83.1851" gradientUnits="userSpaceOnUse">
						<stop  offset="0" style="stop-color:#FFFFFF"/>
						<stop  offset="0.0225" style="stop-color:#FFFFFF;stop-opacity:0.9775"/>
						<stop  offset="1" style="stop-color:#FFFFFF;stop-opacity:0"/>
					</radialGradient>
					<path style="opacity:0.8;fill:url(#SVGID_00000091712282435335643170000017581552473974895777_);" d="M209.118,411.78
						c-5.792-5.751-27.411-9.094-48.413-9.094c-21.001,0-42.62,3.343-48.413,9.094v-47.936c0-5.165,19.453-10.696,48.413-10.696
						c28.959,0,48.413,5.53,48.413,10.696V411.78z"/>
				</g>
			</g>
			
				<radialGradient id="SVGID_00000085244883500696720050000000272233497251421083_" cx="182.4315" cy="298.9959" r="30.24" gradientTransform="matrix(0.7841 0.6206 -1.148 1.4504 382.6246 -247.8994)" gradientUnits="userSpaceOnUse">
				<stop  offset="0.2349" style="stop-color:#FFFFFF"/>
				<stop  offset="1" style="stop-color:#FFFFFF;stop-opacity:0"/>
			</radialGradient>
			<path style="opacity:0.6;fill:url(#SVGID_00000085244883500696720050000000272233497251421083_);" d="M173.858,283.519
				c2.027-3.219,8.962-4.711,11.973-2.436c4.237,3.201,4.537,8.535,3.14,13.26c-1.425,4.819-4.319,9.057-6.294,13.679
				c-1.571,3.677-2.556,7.605-2.906,11.589c-0.309,3.518-0.135,7.128-1.176,10.502c-1.052,3.41-4.755,8.416-8.618,5.857
				c-3.178-2.105-4.405-6.087-4.398-9.749c0.009-4.427,0.046-8.854,0.11-13.28c0.094-6.512,0.896-12.32,3.285-18.408
				C170.369,290.978,171.739,286.885,173.858,283.519z"/>
		</g>
		<g>
			<path style="fill:#F6F5E1;" d="M404.55,321.194c3.571,2.077,8.264,1.746,10.903,5.273c2.992,3.999,1.468,10.374,3.075,15.368
				c1.341,4.166,4.772,7.049,5.978,11.274c1.524,5.342-1.594,11.845-6.246,13.029c-2.211,0.563-4.461-0.068-6.664,0.301
				c-2,0.335-3.542,1.446-4.804,2.994c-2.357,2.893-5.372,5.089-9.302,5.01c-2.251-0.046-4.508-1.014-5.921-2.795
				c-1.577-1.988-3.99-2.521-6.466-2.781c-2.451-0.258-4.937-0.808-7.423-0.841c-4.481-0.061-8.837,1.596-13.266,2.404
				c-4.054,0.74-8.174,0.769-12.276,0.797c-17.4,0.117-34.799,0.234-52.199,0.35c-2.121,0.014-4.608-0.191-5.772-2.291
				c-1.269-2.288-0.174-5.435-0.886-8.039c-0.863-3.155-3.935-4.449-6.539-5.667c-7.186-3.361-13.493-9.309-17.869-16.853
				c-3.015-5.199-5.136-11.965-3.02-17.754c0.495-1.354,1.201-2.588,1.691-3.944c1.385-3.837,0.915-8.235,1.63-12.322
				c1.092-6.243,5.179-11.621,10.304-13.56c5.366-2.03,11.176-0.424,16.804-0.684c12.915-0.596,25.275-11.032,37.863-7.557
				c4.517,1.247,8.573,4.218,13.039,5.695c8.115,2.684,16.82,0.243,25.162,1.64c9.1,1.524,17.551,7.852,22.618,16.938
				C397.805,312.269,399.928,318.506,404.55,321.194z"/>
			<path style="fill:#F6F5E1;" d="M397.52,372.941c-1.915-0.038-3.699-0.871-4.775-2.227c-1.947-2.455-4.876-3.067-7.485-3.341
				c-0.844-0.089-1.686-0.212-2.577-0.343c-1.615-0.237-3.286-0.483-4.982-0.507l-0.262-0.001c-3.096,0-6.097,0.742-9,1.46
				c-1.413,0.349-2.873,0.71-4.295,0.97c-3.938,0.719-8.045,0.746-12.017,0.773l-52.381,0.351c-2.433,0-3.67-0.44-4.268-1.518
				c-0.52-0.939-0.487-2.277-0.451-3.693c0.033-1.313,0.067-2.672-0.3-4.015c-1.006-3.677-4.319-5.22-6.982-6.459l-0.368-0.171
				c-6.887-3.22-12.998-8.99-17.206-16.246c-1.648-2.84-5.23-10.134-2.909-16.485c0.223-0.611,0.498-1.204,0.789-1.834
				c0.311-0.673,0.634-1.368,0.904-2.115c0.92-2.548,1.083-5.259,1.241-7.881c0.099-1.638,0.192-3.186,0.456-4.692
				c0.994-5.685,4.754-10.674,9.357-12.415c1.706-0.646,3.641-0.946,6.091-0.946c1.412,0,2.822,0.092,4.315,0.19
				c1.481,0.098,3.013,0.198,4.537,0.198c0.468,0,0.935-0.01,1.401-0.031c5.63-0.26,11.11-2.294,16.409-4.261
				c5.544-2.058,10.78-4.001,16.028-4.001c1.745,0,3.366,0.213,4.958,0.652c2.271,0.627,4.424,1.721,6.705,2.879
				c2.005,1.018,4.077,2.071,6.262,2.793c3.78,1.251,7.641,1.411,10.582,1.411c1.419,0,2.857-0.042,4.248-0.082
				c1.373-0.04,2.793-0.081,4.177-0.081c2.525,0,4.552,0.142,6.378,0.449c8.652,1.448,16.71,7.5,21.555,16.188
				c0.641,1.149,1.264,2.398,1.867,3.605c2.131,4.27,4.335,8.686,8.273,10.977c1.517,0.883,3.147,1.356,4.723,1.814
				c2.361,0.685,4.399,1.278,5.733,3.061c1.501,2.005,1.673,4.92,1.856,8.006c0.137,2.312,0.278,4.703,0.992,6.922
				c0.715,2.222,1.936,4.058,3.117,5.834c1.178,1.771,2.29,3.444,2.846,5.392c0.695,2.437,0.294,5.311-1.072,7.688
				c-1.04,1.809-2.535,3.075-4.101,3.474c-0.543,0.139-1.139,0.2-1.931,0.2c-0.424,0-0.849-0.017-1.273-0.033
				c-0.463-0.018-0.925-0.036-1.386-0.036c-0.744,0-1.364,0.046-1.951,0.144c-2.188,0.367-4.112,1.553-5.72,3.527
				c-2.444,3-5.038,4.459-7.931,4.459L397.52,372.941z"/>
			
				<radialGradient id="SVGID_00000121268976997813487960000016017780694828388752_" cx="352.8309" cy="301.301" r="119.0015" gradientTransform="matrix(0.9983 0.0579 -0.0332 0.5736 10.6058 108.0752)" gradientUnits="userSpaceOnUse">
				<stop  offset="0.6242" style="stop-color:#B2B3A5;stop-opacity:0"/>
				<stop  offset="0.9771" style="stop-color:#B2B3A5"/>
			</radialGradient>
			<path style="fill:url(#SVGID_00000121268976997813487960000016017780694828388752_);" d="M397.52,372.941
				c-1.915-0.038-3.699-0.871-4.775-2.227c-1.947-2.455-4.876-3.067-7.485-3.341c-0.844-0.089-1.686-0.212-2.577-0.343
				c-1.615-0.237-3.286-0.483-4.982-0.507l-0.262-0.001c-3.096,0-6.097,0.742-9,1.46c-1.413,0.349-2.873,0.71-4.295,0.97
				c-3.938,0.719-8.045,0.746-12.017,0.773l-52.381,0.351c-2.433,0-3.67-0.44-4.268-1.518c-0.52-0.939-0.487-2.277-0.451-3.693
				c0.033-1.313,0.067-2.672-0.3-4.015c-1.006-3.677-4.319-5.22-6.982-6.459l-0.368-0.171c-6.887-3.22-12.998-8.99-17.206-16.246
				c-1.648-2.84-5.23-10.134-2.909-16.485c0.223-0.611,0.498-1.204,0.789-1.834c0.311-0.673,0.634-1.368,0.904-2.115
				c0.92-2.548,1.083-5.259,1.241-7.881c0.099-1.638,0.192-3.186,0.456-4.692c0.994-5.685,4.754-10.674,9.357-12.415
				c1.706-0.646,3.641-0.946,6.091-0.946c1.412,0,2.822,0.092,4.315,0.19c1.481,0.098,3.013,0.198,4.537,0.198
				c0.468,0,0.935-0.01,1.401-0.031c5.63-0.26,11.11-2.294,16.409-4.261c5.544-2.058,10.78-4.001,16.028-4.001
				c1.745,0,3.366,0.213,4.958,0.652c2.271,0.627,4.424,1.721,6.705,2.879c2.005,1.018,4.077,2.071,6.262,2.793
				c3.78,1.251,7.641,1.411,10.582,1.411c1.419,0,2.857-0.042,4.248-0.082c1.373-0.04,2.793-0.081,4.177-0.081
				c2.525,0,4.552,0.142,6.378,0.449c8.652,1.448,16.71,7.5,21.555,16.188c0.641,1.149,1.264,2.398,1.867,3.605
				c2.131,4.27,4.335,8.686,8.273,10.977c1.517,0.883,3.147,1.356,4.723,1.814c2.361,0.685,4.399,1.278,5.733,3.061
				c1.501,2.005,1.673,4.92,1.856,8.006c0.137,2.312,0.278,4.703,0.992,6.922c0.715,2.222,1.936,4.058,3.117,5.834
				c1.178,1.771,2.29,3.444,2.846,5.392c0.695,2.437,0.294,5.311-1.072,7.688c-1.04,1.809-2.535,3.075-4.101,3.474
				c-0.543,0.139-1.139,0.2-1.931,0.2c-0.424,0-0.849-0.017-1.273-0.033c-0.463-0.018-0.925-0.036-1.386-0.036
				c-0.744,0-1.364,0.046-1.951,0.144c-2.188,0.367-4.112,1.553-5.72,3.527c-2.444,3-5.038,4.459-7.931,4.459L397.52,372.941z"/>
			
				<radialGradient id="SVGID_00000022552846407662144560000005748626452520623509_" cx="275.2342" cy="286.7598" r="75.3002" gradientUnits="userSpaceOnUse">
				<stop  offset="0.2349" style="stop-color:#FFFFFF"/>
				<stop  offset="1" style="stop-color:#FFFFFF;stop-opacity:0"/>
			</radialGradient>
			<path style="fill:url(#SVGID_00000022552846407662144560000005748626452520623509_);" d="M397.52,372.941
				c-1.915-0.038-3.699-0.871-4.775-2.227c-1.947-2.455-4.876-3.067-7.485-3.341c-0.844-0.089-1.686-0.212-2.577-0.343
				c-1.615-0.237-3.286-0.483-4.982-0.507l-0.262-0.001c-3.096,0-6.097,0.742-9,1.46c-1.413,0.349-2.873,0.71-4.295,0.97
				c-3.938,0.719-8.045,0.746-12.017,0.773l-52.381,0.351c-2.433,0-3.67-0.44-4.268-1.518c-0.52-0.939-0.487-2.277-0.451-3.693
				c0.033-1.313,0.067-2.672-0.3-4.015c-1.006-3.677-4.319-5.22-6.982-6.459l-0.368-0.171c-6.887-3.22-12.998-8.99-17.206-16.246
				c-1.648-2.84-5.23-10.134-2.909-16.485c0.223-0.611,0.498-1.204,0.789-1.834c0.311-0.673,0.634-1.368,0.904-2.115
				c0.92-2.548,1.083-5.259,1.241-7.881c0.099-1.638,0.192-3.186,0.456-4.692c0.994-5.685,4.754-10.674,9.357-12.415
				c1.706-0.646,3.641-0.946,6.091-0.946c1.412,0,2.822,0.092,4.315,0.19c1.481,0.098,3.013,0.198,4.537,0.198
				c0.468,0,0.935-0.01,1.401-0.031c5.63-0.26,11.11-2.294,16.409-4.261c5.544-2.058,10.78-4.001,16.028-4.001
				c1.745,0,3.366,0.213,4.958,0.652c2.271,0.627,4.424,1.721,6.705,2.879c2.005,1.018,4.077,2.071,6.262,2.793
				c3.78,1.251,7.641,1.411,10.582,1.411c1.419,0,2.857-0.042,4.248-0.082c1.373-0.04,2.793-0.081,4.177-0.081
				c2.525,0,4.552,0.142,6.378,0.449c8.652,1.448,16.71,7.5,21.555,16.188c0.641,1.149,1.264,2.398,1.867,3.605
				c2.131,4.27,4.335,8.686,8.273,10.977c1.517,0.883,3.147,1.356,4.723,1.814c2.361,0.685,4.399,1.278,5.733,3.061
				c1.501,2.005,1.673,4.92,1.856,8.006c0.137,2.312,0.278,4.703,0.992,6.922c0.715,2.222,1.936,4.058,3.117,5.834
				c1.178,1.771,2.29,3.444,2.846,5.392c0.695,2.437,0.294,5.311-1.072,7.688c-1.04,1.809-2.535,3.075-4.101,3.474
				c-0.543,0.139-1.139,0.2-1.931,0.2c-0.424,0-0.849-0.017-1.273-0.033c-0.463-0.018-0.925-0.036-1.386-0.036
				c-0.744,0-1.364,0.046-1.951,0.144c-2.188,0.367-4.112,1.553-5.72,3.527c-2.444,3-5.038,4.459-7.931,4.459L397.52,372.941z"/>
			<g>
				
					<radialGradient id="SVGID_00000134949286957668382700000016627136404389498541_" cx="383.2921" cy="348.3975" r="28.8897" gradientTransform="matrix(0.8152 -0.5792 0.3169 0.446 -39.5762 414.9802)" gradientUnits="userSpaceOnUse">
					<stop  offset="0.7015" style="stop-color:#DEDEC6;stop-opacity:0"/>
					<stop  offset="1" style="stop-color:#DEDEC6"/>
				</radialGradient>
				<path style="fill:url(#SVGID_00000134949286957668382700000016627136404389498541_);" d="M360.291,361.695
					c-4.642-0.188-0.248-9.563,0.78-11.515c3.273-6.215,7.815-11.758,13.267-16.188c5.041-4.096,11.161-7.319,17.656-7.281
					c2.533,0.015,5.037,0.525,7.489,1.16c2.576,0.667,5.299,1.603,6.847,3.767c0.751,1.05,1.156,2.302,1.545,3.533
					c0.423,1.338,0.826,2.86,0.137,4.082c-0.832,1.477-2.826,1.768-4.519,1.671c-3.932-0.225-7.697-1.611-11.577-2.286
					c-3.88-0.675-8.217-0.519-11.291,1.943c-1.487,1.191-2.547,2.82-3.596,4.411c-2.781,4.222-5.667,8.392-9.013,12.183
					C365.973,359.491,363.377,361.82,360.291,361.695z"/>
			</g>
			
				<radialGradient id="SVGID_00000183953355068607272380000006787964715304465074_" cx="399.7676" cy="363.722" r="26.5373" gradientTransform="matrix(0.9619 -0.2734 0.0994 0.3496 -20.9163 345.8495)" gradientUnits="userSpaceOnUse">
				<stop  offset="0.7015" style="stop-color:#DEDEC6;stop-opacity:0"/>
				<stop  offset="1" style="stop-color:#DEDEC6"/>
			</radialGradient>
			<path style="fill:url(#SVGID_00000183953355068607272380000006787964715304465074_);" d="M407.833,359.795
				c-1.124,1.317-3.084,1.429-4.815,1.441c-2.581,0.018-5.162,0.035-7.743,0.052c-1.107,0.008-2.286,0.036-3.207,0.65
				c-0.656,0.437-1.101,1.122-1.686,1.65c-1.956,1.767-9.12,1.692-7.401-2.31c1.002-2.335,4.953-3.404,7.029-4.47
				c1.315-0.675,2.555-1.486,3.865-2.171c3.439-1.798,7.341-2.701,11.22-2.596c0.93,0.025,1.972,0.166,2.539,0.903
				c0.265,0.344,0.386,0.774,0.501,1.192C408.659,356.036,409.113,358.296,407.833,359.795z"/>
			
				<radialGradient id="SVGID_00000134958505576252905440000011884322065705381516_" cx="364.9531" cy="331.9532" r="19.2669" gradientTransform="matrix(0.9069 0.4214 -0.733 1.5774 277.3278 -345.4788)" gradientUnits="userSpaceOnUse">
				<stop  offset="0.8208" style="stop-color:#DEDEC6;stop-opacity:0"/>
				<stop  offset="1" style="stop-color:#DEDEC6"/>
			</radialGradient>
			<path style="fill:url(#SVGID_00000134958505576252905440000011884322065705381516_);" d="M344.173,359.111
				c-0.741-1.635-0.3-4.1-0.31-5.729c-0.026-4.447-0.824-8.907-0.994-13.356c-0.224-5.853,0.237-11.878,2.682-17.201
				c0.876-1.908,1.994-3.696,3.186-5.426c4.192-6.083,9.692-11.725,16.784-13.792c3.146-0.917,6.456-1.085,9.729-1.234
				c0.849-0.039,1.713-0.075,2.537,0.133c2.392,0.603,3.792,3.016,4.925,5.207c0.279,0.54,0.567,1.14,0.428,1.732
				c-0.108,0.458-0.455,0.82-0.817,1.122c-2.191,1.824-5.201,2.198-8.016,2.648c-6.51,1.041-13.431,3.247-17.138,8.7
				c-3.729,5.486-3.206,12.673-3.21,19.306c-0.001,2.695-0.114,5.389-0.337,8.075c-0.21,2.529-0.552,5.148-1.912,7.29
				c-1.11,1.748-5.437,5.413-7.196,3.104C344.379,359.512,344.266,359.318,344.173,359.111z"/>
			
				<radialGradient id="SVGID_00000051349342934036080480000004335725397204531900_" cx="729.0947" cy="673.2234" r="19.2674" gradientTransform="matrix(0.7564 -0.067 0.4033 1.8668 -482.3657 -880.2277)" gradientUnits="userSpaceOnUse">
				<stop  offset="0.8208" style="stop-color:#DEDEC6;stop-opacity:0"/>
				<stop  offset="1" style="stop-color:#DEDEC6"/>
			</radialGradient>
			<path style="fill:url(#SVGID_00000051349342934036080480000004335725397204531900_);" d="M335.455,362.317
				c-1.096-1.604-1.638-4.376-2.21-6.14c-1.563-4.815-3.681-9.467-5.347-14.251c-2.192-6.294-3.956-12.931-4.061-19.26
				c-0.038-2.269,0.139-4.463,0.388-6.61c0.877-7.552,2.841-14.925,7.181-18.786c1.926-1.713,4.228-2.651,6.511-3.56
				c0.592-0.236,1.195-0.473,1.856-0.436c1.915,0.108,3.752,2.403,5.321,4.519c0.387,0.522,0.8,1.106,0.907,1.78
				c0.082,0.522-0.04,0.993-0.193,1.403c-0.93,2.478-2.946,3.571-4.798,4.702c-4.282,2.616-8.452,6.589-9.202,13.346
				c-0.755,6.799,2.114,14.47,4.415,21.662c0.935,2.922,1.79,5.868,2.564,8.83c0.728,2.79,1.394,5.706,1.168,8.34
				c-0.185,2.148-1.998,7.11-4.055,5.009C335.741,362.704,335.593,362.52,335.455,362.317z"/>
			
				<radialGradient id="SVGID_00000090271841991379807330000011663757401298091426_" cx="320.8602" cy="323.4669" r="17.0933" gradientTransform="matrix(0.9804 -0.1971 0.5576 2.7735 -174.0824 -510.4209)" gradientUnits="userSpaceOnUse">
				<stop  offset="0.7015" style="stop-color:#DEDEC6;stop-opacity:0"/>
				<stop  offset="1" style="stop-color:#DEDEC6"/>
			</radialGradient>
			<path style="opacity:0.5;fill:url(#SVGID_00000090271841991379807330000011663757401298091426_);" d="M321.124,335.232
				c1.783,3.466,2.826,7.324,3.429,11.16c0.781,4.965,2.47,14.94-5.383,14.951c-4.833,0.007-6.055-4.409-6.469-8.295
				c-0.255-2.391-1.008-4.06-1.987-6.197c-0.043-0.094-0.086-0.188-0.129-0.282c-2.155-4.705-4.311-9.411-6.466-14.116
				c-1.843-4.024-3.691-7.791-4.696-12.066c-1.761-7.493-3.768-15.707,1.282-22.533c2.039-2.756,5.109-4.55,8.282-5.71
				c2.149-0.785,4.711-1.907,7.021-1.918c1.257-0.006,2.591,0.499,3.245,1.572c0.731,1.198,0.43,2.806-0.362,3.964
				c-1.829,2.676-4.949,4.415-7.184,6.741c-2.331,2.426-3.989,5.339-4.001,8.781C307.67,321.108,316.995,327.206,321.124,335.232z"
				/>
			
				<radialGradient id="SVGID_00000096026823577625731030000009926219884727616923_" cx="288.0555" cy="350.0238" r="9.8885" gradientTransform="matrix(0.7872 -0.6167 2.0274 2.5877 -648.32 -378.101)" gradientUnits="userSpaceOnUse">
				<stop  offset="0.7277" style="stop-color:#DEDEC6;stop-opacity:0"/>
				<stop  offset="1" style="stop-color:#DEDEC6"/>
			</radialGradient>
			<path style="opacity:0.8;fill:url(#SVGID_00000096026823577625731030000009926219884727616923_);" d="M272.226,322.004
				c0.07-0.022,0.142-0.039,0.215-0.053c3.709-0.665,9.848,4.586,12.536,6.689c3.896,3.049,7.353,6.66,10.207,10.702
				c1.233,1.746,2.354,3.568,3.474,5.388c1.335,2.169,2.67,4.339,4.005,6.509c2.745,4.461,5.535,9.032,6.647,14.15
				c-3.509,1.022-7.61-0.591-9.481-3.73c-0.853-1.432-1.256-3.078-1.792-4.656c-1.846-5.431-5.354-10.18-9.467-14.178
				c-4.113-3.998-8.838-7.305-13.574-10.542c-2.619-1.79-5.082-4.927-4.335-8.367C270.842,323.073,271.415,322.258,272.226,322.004z
				"/>
			<g>
				<g>
					<ellipse style="fill:#F6F5E1;" cx="342.819" cy="414.883" rx="49.163" ry="11.446"/>
					
						<radialGradient id="SVGID_00000047738989677214221430000004388983122032897463_" cx="342.0681" cy="426.0168" r="56.1698" gradientTransform="matrix(1 0.0056 -0.002 0.3574 0.853 271.8608)" gradientUnits="userSpaceOnUse">
						<stop  offset="0.3213" style="stop-color:#B2B3A5;stop-opacity:0"/>
						<stop  offset="0.9847" style="stop-color:#B2B3A5;stop-opacity:0.9775"/>
						<stop  offset="1" style="stop-color:#B2B3A5"/>
					</radialGradient>
					
						<ellipse style="fill:url(#SVGID_00000047738989677214221430000004388983122032897463_);" cx="342.819" cy="414.883" rx="49.163" ry="11.446"/>
					<path style="fill:#F6F5E1;" d="M342.819,352.397c-27.152,0-49.163,5.125-49.163,11.446v51.04
						c0-6.322,22.011-11.446,49.163-11.446c27.152,0,49.163,5.125,49.163,11.446v-51.04
						C391.982,357.522,369.971,352.397,342.819,352.397z"/>
					
						<linearGradient id="SVGID_00000080201956244018233770000005912295287184250532_" gradientUnits="userSpaceOnUse" x1="294.406" y1="382.4635" x2="391.2315" y2="382.4635">
						<stop  offset="0.3213" style="stop-color:#B2B3A5;stop-opacity:0"/>
						<stop  offset="0.9033" style="stop-color:#B2B3A5;stop-opacity:0.9775"/>
						<stop  offset="0.9167" style="stop-color:#B2B3A5"/>
					</linearGradient>
					<path style="fill:url(#SVGID_00000080201956244018233770000005912295287184250532_);" d="M391.231,411.78
						c-5.792-5.751-27.411-9.094-48.413-9.094c-21.001,0-42.62,3.343-48.413,9.094v-47.936c0-5.165,19.453-10.696,48.413-10.696
						c28.96,0,48.413,5.53,48.413,10.696V411.78z"/>
					
						<radialGradient id="SVGID_00000058591345871431662980000011191819421409116825_" cx="299.0972" cy="362.3421" r="83.1851" gradientUnits="userSpaceOnUse">
						<stop  offset="0" style="stop-color:#FFFFFF"/>
						<stop  offset="0.0225" style="stop-color:#FFFFFF;stop-opacity:0.9775"/>
						<stop  offset="1" style="stop-color:#FFFFFF;stop-opacity:0"/>
					</radialGradient>
					<path style="opacity:0.8;fill:url(#SVGID_00000058591345871431662980000011191819421409116825_);" d="M391.231,411.78
						c-5.792-5.751-27.411-9.094-48.413-9.094c-21.001,0-42.62,3.343-48.413,9.094v-47.936c0-5.165,19.453-10.696,48.413-10.696
						c28.96,0,48.413,5.53,48.413,10.696V411.78z"/>
				</g>
			</g>
			
				<radialGradient id="SVGID_00000128450570753629176400000013381997456570227897_" cx="320.8784" cy="306.2278" r="13.7526" gradientTransform="matrix(0.9788 0.205 -0.4851 2.316 155.3615 -468.7747)" gradientUnits="userSpaceOnUse">
				<stop  offset="0.2349" style="stop-color:#FFFFFF"/>
				<stop  offset="1" style="stop-color:#FFFFFF;stop-opacity:0"/>
			</radialGradient>
			<path style="fill:url(#SVGID_00000128450570753629176400000013381997456570227897_);" d="M309.983,331.152
				c-2.363-5.562-4.312-11.367-4.892-17.383c-0.58-6.015,0.285-12.287,3.257-17.548c2.29-4.053,6.286-6.647,10.687-7.917
				c3.076-0.888,6.504-1.696,9.719-1.27c1.534,0.203,2.907,0.704,3.79,2.02c0.858,1.279,1.549,3.273,0.724,4.721
				c-0.901,1.582-2.458,1.708-3.741,2.705c-5.857,4.551-6.712,13.412-6.664,20.246c0.024,3.467,0.266,6.929,0.288,10.397
				c0.011,1.731-0.053,3.452-0.174,5.178c-0.091,1.298,0.316,2.727-0.201,3.957c-0.557,1.325-2.286,1.975-3.612,2.121
				c-1.62,0.178-3.312,0.083-4.79-0.603C311.833,336.595,311,333.548,309.983,331.152z"/>
			
				<radialGradient id="SVGID_00000160878265370039874930000014453048149802594455_" cx="350.7987" cy="312.4019" r="14.105" gradientTransform="matrix(0.8184 0.5747 -1.4923 2.1251 529.9103 -553.0935)" gradientUnits="userSpaceOnUse">
				<stop  offset="0.2349" style="stop-color:#FFFFFF"/>
				<stop  offset="1" style="stop-color:#FFFFFF;stop-opacity:0"/>
			</radialGradient>
			<path style="opacity:0.4;fill:url(#SVGID_00000160878265370039874930000014453048149802594455_);" d="M359.221,304.497
				c-1.303,1.046-2.586,2.152-3.862,3.144c-2.617,2.036-4.76,4.606-6.881,7.154c-0.968,1.163-1.939,2.331-2.739,3.615
				c-2.957,4.75-3.309,10.597-4.103,16.135c-0.106,0.739-0.228,1.498-0.613,2.138c-1.831,3.05-5.918,1.119-7.353-1.182
				c-2.133-3.42-2.871-6.938-2.874-10.947c-0.004-6.892,1.321-13.782,3.882-20.181c0.628-1.568,1.44-3.226,2.959-3.964
				c1.814-0.881,3.976-0.564,5.66,0.351c2.008,1.091,4.815,1.572,6.987,0.69c0.67-0.272,1.277-0.676,1.898-1.047
				c1.763-1.053,3.679-1.848,5.666-2.365c1.564-0.408,4.022-1.28,5.298,0.135c0.147,0.163,0.262,0.352,0.354,0.551
				c0.829,1.802,0.193,2.638-1.276,3.574C361.207,302.948,360.208,303.705,359.221,304.497z"/>
			
				<radialGradient id="SVGID_00000003797605055056017990000006788473107182623106_" cx="376.7454" cy="330.3215" r="12.772" gradientTransform="matrix(0.6637 0.748 -1.9423 1.7236 768.2662 -520.8049)" gradientUnits="userSpaceOnUse">
				<stop  offset="0.2349" style="stop-color:#FFFFFF"/>
				<stop  offset="1" style="stop-color:#FFFFFF;stop-opacity:0"/>
			</radialGradient>
			<path style="opacity:0.7;fill:url(#SVGID_00000003797605055056017990000006788473107182623106_);" d="M355.232,345.142
				c-3.177-1.178-5.602-4.804-5.422-8.252c0.164-3.145,1.748-6.064,3.241-8.766c1.526-2.763,3.281-5.399,5.246-7.869
				c0.98-1.232,2.102-2.906,3.44-3.769c0.952-0.614,2.348-0.538,3.446-0.582c3.408-0.137,6.85,0.93,10.228,0.111
				c0.711-0.172,1.402-0.428,2.125-0.541c1.865-0.292,3.753,0.393,5.398,1.32c1.645,0.926,3.146,2.103,4.842,2.933
				c1.02,0.5,2.106,0.872,3.07,1.472c0.965,0.6,1.826,1.485,2.061,2.596c0.091,0.433,0.063,0.936-0.253,1.246
				c-0.347,0.341-0.897,0.325-1.383,0.306c-5.442-0.208-10.819,2.816-15.23,5.744c-2.732,1.813-5.275,3.911-7.572,6.252
				c-2.202,2.244-3.887,5.671-6.369,7.529C360.184,346.306,357.473,345.973,355.232,345.142z"/>
		</g>
	</g>
</g>
<g id="Designed_by_Freepik">
	<g>
		<g>
			<path style="fill:#F6F5E1;" d="M175.869,457.946c-0.14-0.17-0.34-0.25-0.61-0.25c-0.27,0-0.47,0.09-0.62,0.27
				c-0.14,0.191-0.21,0.46-0.21,0.82v2.6c-0.33-0.359-0.67-0.63-1.02-0.81c-0.35-0.17-0.77-0.26-1.28-0.26
				c-0.87,0-1.58,0.31-2.12,0.92c-0.53,0.62-0.8,1.47-0.8,2.57c0,0.52,0.07,1,0.2,1.449c0.14,0.45,0.33,0.841,0.6,1.17
				c0.26,0.33,0.57,0.58,0.93,0.761c0.35,0.18,0.74,0.27,1.16,0.27c0.32,0,0.62-0.05,0.88-0.14c0.27-0.08,0.52-0.21,0.75-0.38
				c0.23-0.17,0.46-0.391,0.7-0.66v0.17c0,0.32,0.08,0.57,0.23,0.75c0.16,0.17,0.36,0.26,0.6,0.26c0.24,0,0.44-0.09,0.6-0.25
				c0.15-0.17,0.23-0.42,0.23-0.76v-7.75C176.089,458.366,176.019,458.116,175.869,457.946z M174.099,465.116
				c-0.15,0.33-0.35,0.58-0.61,0.74c-0.25,0.16-0.54,0.24-0.84,0.24c-0.31,0-0.59-0.091-0.85-0.261c-0.26-0.17-0.46-0.42-0.61-0.75
				c-0.14-0.34-0.22-0.739-0.22-1.22c0-0.45,0.07-0.85,0.21-1.19c0.14-0.34,0.34-0.6,0.59-0.779c0.25-0.181,0.54-0.28,0.86-0.28
				c0.31,0,0.6,0.09,0.86,0.27c0.26,0.181,0.46,0.44,0.61,0.771c0.16,0.34,0.23,0.74,0.23,1.21
				C174.329,464.366,174.259,464.776,174.099,465.116z"/>
			<path style="fill:#F6F5E1;" d="M182.919,465.036c-0.17,0-0.3,0.04-0.39,0.12c-0.22,0.2-0.4,0.37-0.53,0.49
				c-0.14,0.12-0.29,0.229-0.45,0.34c-0.17,0.1-0.33,0.18-0.51,0.229c-0.17,0.051-0.36,0.07-0.57,0.07c-0.32,0-0.6-0.08-0.86-0.229
				c-0.26-0.15-0.47-0.381-0.63-0.69c-0.16-0.3-0.24-0.66-0.24-1.05h3.44c0.46,0,0.81-0.07,1.07-0.2c0.25-0.13,0.38-0.42,0.38-0.86
				c0-0.479-0.13-0.939-0.37-1.399c-0.24-0.46-0.61-0.84-1.11-1.13c-0.49-0.29-1.08-0.431-1.76-0.431c-0.53,0-1.01,0.08-1.44,0.25
				c-0.44,0.17-0.8,0.42-1.1,0.73c-0.29,0.32-0.52,0.7-0.67,1.149c-0.16,0.44-0.24,0.921-0.24,1.44c0,1.1,0.32,1.98,0.94,2.62
				c0.63,0.64,1.51,0.97,2.64,0.97c0.49,0,0.93-0.07,1.31-0.2c0.38-0.13,0.69-0.29,0.94-0.479c0.25-0.2,0.44-0.4,0.57-0.61
				c0.12-0.22,0.18-0.399,0.18-0.56c0-0.181-0.05-0.32-0.16-0.42C183.239,465.086,183.099,465.036,182.919,465.036z
				 M179.249,461.966c0.28-0.3,0.64-0.449,1.08-0.449c0.46,0,0.83,0.149,1.11,0.449c0.28,0.301,0.44,0.75,0.49,1.351h-3.19
				C178.799,462.727,178.969,462.276,179.249,461.966z"/>
			<path style="fill:#F6F5E1;" d="M189.919,464.296c-0.18-0.25-0.44-0.47-0.79-0.649c-0.34-0.19-0.79-0.351-1.33-0.481
				c-0.46-0.109-0.82-0.21-1.08-0.28c-0.27-0.079-0.47-0.18-0.63-0.3c-0.15-0.109-0.23-0.27-0.23-0.45c0-0.199,0.1-0.369,0.31-0.51
				c0.22-0.13,0.48-0.2,0.8-0.2c0.31,0,0.55,0.051,0.73,0.16c0.18,0.101,0.34,0.24,0.47,0.41c0.16,0.2,0.31,0.36,0.43,0.46
				c0.13,0.101,0.28,0.16,0.46,0.16c0.25,0,0.45-0.07,0.58-0.2c0.14-0.13,0.2-0.29,0.2-0.49c0-0.19-0.06-0.38-0.19-0.569
				c-0.12-0.19-0.31-0.37-0.55-0.53c-0.24-0.16-0.54-0.28-0.91-0.38c-0.36-0.09-0.77-0.14-1.22-0.14c-0.58,0-1.08,0.09-1.49,0.279
				c-0.41,0.19-0.72,0.44-0.93,0.75c-0.21,0.311-0.31,0.65-0.31,1c0,0.391,0.11,0.73,0.34,1c0.23,0.271,0.53,0.49,0.91,0.65
				c0.38,0.16,0.87,0.32,1.48,0.47c0.53,0.13,0.92,0.271,1.15,0.41c0.24,0.14,0.35,0.37,0.35,0.67c0,0.21-0.11,0.38-0.33,0.54
				c-0.23,0.16-0.52,0.24-0.87,0.24c-0.43,0-0.78-0.08-1.03-0.23c-0.25-0.16-0.46-0.39-0.65-0.71c-0.08-0.16-0.18-0.29-0.28-0.38
				c-0.1-0.09-0.24-0.13-0.42-0.13c-0.21,0-0.39,0.07-0.52,0.2c-0.14,0.14-0.21,0.31-0.21,0.5c0,0.29,0.11,0.58,0.32,0.87
				c0.22,0.29,0.55,0.529,1,0.729c0.45,0.19,0.99,0.29,1.62,0.29c0.66,0,1.22-0.09,1.68-0.27c0.47-0.181,0.82-0.44,1.05-0.79
				c0.24-0.34,0.35-0.761,0.35-1.24C190.179,464.836,190.099,464.546,189.919,464.296z"/>
			<path style="fill:#F6F5E1;" d="M192.599,460.576c-0.17-0.18-0.38-0.27-0.64-0.27c-0.26,0-0.47,0.09-0.63,0.27
				c-0.16,0.17-0.24,0.43-0.24,0.78v5.029c0,0.341,0.08,0.601,0.24,0.79c0.16,0.181,0.37,0.28,0.63,0.28c0.26,0,0.47-0.09,0.64-0.27
				c0.17-0.181,0.25-0.45,0.25-0.801v-5.079C192.849,460.996,192.769,460.746,192.599,460.576z M192.579,457.986
				c-0.17-0.14-0.37-0.22-0.6-0.22c-0.24,0-0.44,0.08-0.62,0.25c-0.18,0.159-0.27,0.359-0.27,0.609c0,0.28,0.09,0.49,0.26,0.641
				c0.18,0.149,0.39,0.22,0.63,0.22c0.24,0,0.44-0.07,0.61-0.22c0.17-0.16,0.26-0.37,0.26-0.641
				C192.849,458.347,192.759,458.136,192.579,457.986z"/>
			<path style="fill:#F6F5E1;" d="M200.379,460.636c-0.11-0.22-0.34-0.329-0.68-0.329c-0.23,0-0.43,0.09-0.58,0.25
				c-0.15,0.17-0.22,0.409-0.22,0.71v0.239c-0.31-0.409-0.65-0.71-1.02-0.899c-0.36-0.19-0.79-0.29-1.29-0.29
				c-0.42,0-0.8,0.08-1.15,0.229c-0.35,0.141-0.65,0.36-0.92,0.66c-0.26,0.29-0.47,0.65-0.61,1.07c-0.15,0.43-0.22,0.899-0.22,1.43
				c0,0.71,0.12,1.33,0.36,1.87c0.23,0.54,0.57,0.96,1.01,1.26c0.44,0.311,0.95,0.46,1.54,0.46c0.49,0,0.91-0.1,1.27-0.3
				c0.35-0.2,0.66-0.49,0.93-0.86c-0.01,0.57-0.02,0.99-0.04,1.25c-0.01,0.261-0.07,0.5-0.17,0.73c-0.1,0.23-0.28,0.4-0.53,0.53
				c-0.25,0.13-0.6,0.189-1.06,0.189c-0.22,0-0.42-0.02-0.59-0.06c-0.17-0.04-0.32-0.101-0.44-0.19c-0.12-0.08-0.24-0.18-0.34-0.3
				c-0.1-0.12-0.2-0.24-0.29-0.35c-0.19-0.23-0.42-0.34-0.68-0.34c-0.2,0-0.38,0.069-0.52,0.199c-0.15,0.141-0.22,0.311-0.22,0.53
				c0,0.28,0.13,0.55,0.38,0.82c0.26,0.269,0.63,0.489,1.1,0.66c0.48,0.17,1.02,0.25,1.63,0.25c0.66,0,1.21-0.061,1.65-0.2
				c0.45-0.13,0.81-0.33,1.08-0.61c0.28-0.27,0.48-0.62,0.6-1.04c0.12-0.42,0.19-0.92,0.19-1.51v-5.1
				C200.549,461.176,200.489,460.856,200.379,460.636z M198.589,465.046c-0.16,0.311-0.37,0.551-0.63,0.7
				c-0.26,0.16-0.54,0.24-0.83,0.24c-0.49,0-0.9-0.18-1.21-0.55c-0.31-0.36-0.46-0.9-0.46-1.61c0-0.71,0.15-1.25,0.45-1.63
				c0.3-0.38,0.7-0.58,1.21-0.58c0.51,0,0.93,0.2,1.24,0.6c0.32,0.4,0.48,0.96,0.48,1.681
				C198.839,464.347,198.749,464.727,198.589,465.046z"/>
			<path style="fill:#F6F5E1;" d="M207.899,462.156c-0.03-0.24-0.11-0.48-0.22-0.691c-0.18-0.369-0.45-0.649-0.82-0.859
				c-0.36-0.2-0.78-0.3-1.24-0.3c-0.48,0-0.9,0.1-1.27,0.29c-0.1,0.05-0.19,0.109-0.29,0.18c-0.25,0.18-0.49,0.42-0.72,0.72v-0.22
				c0-0.21-0.04-0.391-0.11-0.53c-0.08-0.149-0.18-0.26-0.3-0.33c-0.13-0.069-0.27-0.109-0.42-0.109c-0.25,0-0.45,0.079-0.6,0.25
				c-0.15,0.159-0.22,0.409-0.22,0.75v5.079c0,0.341,0.08,0.601,0.25,0.79c0.16,0.181,0.37,0.28,0.62,0.28
				c0.26,0,0.48-0.09,0.64-0.27c0.17-0.181,0.25-0.45,0.25-0.801v-2.199c0-0.721,0.04-1.21,0.13-1.471
				c0.12-0.33,0.31-0.58,0.56-0.77c0.26-0.19,0.55-0.28,0.86-0.28c0.48,0,0.8,0.15,0.96,0.46c0.16,0.31,0.24,0.75,0.24,1.33v2.93
				c0,0.341,0.09,0.601,0.25,0.79c0.16,0.181,0.37,0.28,0.64,0.28c0.25,0,0.46-0.09,0.62-0.27c0.17-0.181,0.25-0.45,0.25-0.801
				v-3.27C207.959,462.727,207.939,462.406,207.899,462.156z"/>
			<path style="fill:#F6F5E1;" d="M214.769,465.036c-0.17,0-0.29,0.04-0.38,0.12c-0.22,0.2-0.4,0.37-0.54,0.49
				c-0.14,0.12-0.29,0.229-0.45,0.34c-0.16,0.1-0.33,0.18-0.5,0.229c-0.17,0.051-0.35,0.07-0.55,0.07h-0.01c-0.01,0-0.01,0-0.02,0
				c-0.31,0-0.6-0.08-0.86-0.229c-0.26-0.15-0.47-0.381-0.62-0.69c-0.03-0.06-0.06-0.11-0.08-0.17v-0.01
				c-0.11-0.261-0.16-0.56-0.17-0.87h3.44c0.46,0,0.82-0.07,1.07-0.2c0.25-0.13,0.38-0.42,0.38-0.86c0-0.479-0.12-0.939-0.37-1.399
				c-0.24-0.46-0.61-0.84-1.1-1.13c-0.49-0.29-1.08-0.431-1.77-0.431c-0.53,0-1.01,0.08-1.44,0.25c-0.43,0.17-0.8,0.42-1.09,0.73
				c-0.3,0.32-0.53,0.7-0.68,1.149c-0.15,0.44-0.23,0.921-0.23,1.44c0,1.1,0.31,1.98,0.94,2.62c0.62,0.64,1.5,0.97,2.63,0.97
				c0.49,0,0.93-0.07,1.31-0.2c0.01,0,0.03-0.01,0.04-0.01c0.36-0.13,0.66-0.29,0.91-0.47c0.25-0.2,0.43-0.4,0.56-0.61
				c0.12-0.22,0.19-0.399,0.19-0.56c0-0.181-0.06-0.32-0.17-0.42C215.099,465.086,214.949,465.036,214.769,465.036z
				 M211.109,461.966c0.28-0.3,0.64-0.449,1.07-0.449c0.46,0,0.83,0.149,1.11,0.449c0.29,0.301,0.45,0.75,0.49,1.351h-3.19
				C210.649,462.727,210.819,462.276,211.109,461.966z"/>
			<path style="fill:#F6F5E1;" d="M222.639,457.946c-0.14-0.17-0.35-0.25-0.61-0.25c-0.271,0-0.48,0.09-0.62,0.27
				c-0.14,0.191-0.22,0.46-0.22,0.82v2.6c-0.33-0.359-0.66-0.63-1.01-0.81c-0.35-0.17-0.78-0.26-1.28-0.26
				c-0.88,0-1.58,0.31-2.12,0.92c-0.54,0.62-0.81,1.47-0.81,2.57c0,0.52,0.07,1,0.21,1.449c0.13,0.45,0.33,0.841,0.59,1.17
				c0.26,0.33,0.57,0.58,0.93,0.761c0.36,0.18,0.75,0.27,1.17,0.27c0.32,0,0.61-0.05,0.88-0.14c0.27-0.08,0.52-0.21,0.75-0.38
				c0.23-0.17,0.46-0.391,0.69-0.66v0.17c0,0.32,0.08,0.57,0.24,0.75c0.16,0.17,0.35,0.26,0.6,0.26c0.24,0,0.44-0.09,0.59-0.25
				c0.16-0.17,0.24-0.42,0.24-0.76v-7.75C222.859,458.366,222.779,458.116,222.639,457.946z M220.869,465.116
				c-0.15,0.33-0.36,0.58-0.61,0.74c-0.26,0.16-0.54,0.24-0.85,0.24c-0.3,0-0.58-0.091-0.84-0.261c-0.26-0.17-0.46-0.42-0.61-0.75
				c-0.15-0.34-0.22-0.739-0.22-1.22c0-0.45,0.07-0.85,0.21-1.19c0.14-0.34,0.33-0.6,0.59-0.779c0.25-0.181,0.54-0.28,0.86-0.28
				c0.31,0,0.59,0.09,0.85,0.27c0.26,0.181,0.47,0.44,0.62,0.771c0.15,0.34,0.23,0.74,0.23,1.21
				C221.099,464.366,221.019,464.776,220.869,465.116z"/>
			<path style="fill:#F6F5E1;" d="M233.219,461.936c-0.24-0.521-0.58-0.92-1.02-1.2c-0.44-0.28-0.95-0.42-1.54-0.42
				c-0.5,0-0.93,0.1-1.27,0.28c-0.35,0.18-0.68,0.439-1.01,0.789v-2.689c0-0.32-0.08-0.57-0.22-0.74c-0.15-0.18-0.36-0.26-0.63-0.26
				c-0.25,0-0.45,0.09-0.6,0.27c-0.14,0.181-0.21,0.45-0.21,0.811v7.67c0,0.33,0.07,0.58,0.22,0.75c0.15,0.17,0.34,0.26,0.59,0.26
				s0.45-0.09,0.61-0.26c0.16-0.17,0.24-0.42,0.24-0.75v-0.17c0.19,0.22,0.35,0.39,0.46,0.5c0.12,0.109,0.26,0.22,0.43,0.33
				c0.17,0.1,0.37,0.189,0.61,0.25c0.24,0.06,0.49,0.1,0.76,0.1c0.44,0,0.85-0.09,1.22-0.27c0.36-0.181,0.68-0.431,0.93-0.761
				c0.26-0.319,0.46-0.71,0.59-1.149c0.14-0.45,0.2-0.93,0.2-1.47C233.579,463.086,233.459,462.466,233.219,461.936z
				 M231.339,465.517c-0.32,0.39-0.7,0.58-1.14,0.58c-0.52,0-0.94-0.19-1.26-0.57c-0.32-0.37-0.48-0.91-0.48-1.61
				c0-0.47,0.08-0.89,0.23-1.229c0.15-0.351,0.35-0.61,0.61-0.79c0.27-0.181,0.56-0.28,0.9-0.28c0.32,0,0.61,0.1,0.85,0.28
				c0.25,0.18,0.44,0.439,0.57,0.769c0.13,0.34,0.2,0.74,0.2,1.2C231.819,464.586,231.659,465.136,231.339,465.517z"/>
			<path style="fill:#F6F5E1;" d="M240.009,460.696c-0.07-0.12-0.16-0.21-0.28-0.28c-0.12-0.069-0.25-0.109-0.38-0.109
				c-0.19,0-0.33,0.029-0.43,0.1c-0.1,0.059-0.2,0.19-0.29,0.37c-0.09,0.189-0.19,0.439-0.3,0.77l-1.41,4.021l-1.49-4.33
				c-0.1-0.3-0.21-0.53-0.34-0.69c-0.13-0.16-0.32-0.239-0.57-0.239c-0.15,0-0.29,0.04-0.42,0.119c-0.14,0.07-0.25,0.181-0.32,0.31
				c-0.08,0.12-0.12,0.26-0.12,0.41c0,0.149,0.07,0.37,0.2,0.689l2.16,5.44l-0.16,0.399c-0.12,0.28-0.22,0.5-0.32,0.65
				c-0.09,0.15-0.19,0.25-0.31,0.31c-0.11,0.061-0.27,0.091-0.47,0.091c-0.09,0-0.18-0.011-0.29-0.04
				c-0.09-0.021-0.19-0.04-0.28-0.04c-0.24,0-0.42,0.06-0.54,0.17c-0.13,0.109-0.19,0.26-0.19,0.46c0,0.3,0.13,0.5,0.39,0.62
				c0.26,0.109,0.64,0.16,1.16,0.16c0.521,0,0.94-0.08,1.25-0.24c0.32-0.16,0.57-0.391,0.75-0.69c0.19-0.3,0.39-0.71,0.58-1.24
				l2.3-6c0.05-0.159,0.1-0.31,0.14-0.46c0.039-0.149,0.06-0.27,0.08-0.35C240.109,460.946,240.079,460.816,240.009,460.696z"/>
		</g>
		<g>
			<path style="fill:#F6F5E1;" d="M261.319,460.459h0.419v-0.527c0-0.552,0.067-0.987,0.207-1.313
				c0.139-0.324,0.377-0.561,0.71-0.708c0.332-0.147,0.788-0.222,1.367-0.222c1.029,0,1.54,0.249,1.54,0.755
				c0,0.162-0.054,0.302-0.163,0.417c-0.104,0.115-0.232,0.174-0.378,0.174c-0.067,0-0.188-0.013-0.357-0.04
				c-0.161-0.022-0.307-0.038-0.422-0.038c-0.317,0-0.52,0.096-0.614,0.281c-0.086,0.186-0.132,0.453-0.132,0.803v0.418h0.429
				c0.672,0,1.004,0.201,1.004,0.607c0,0.284-0.086,0.468-0.267,0.545c-0.177,0.078-0.423,0.116-0.737,0.116h-0.429v4.656
				c0,0.347-0.082,0.61-0.25,0.792c-0.164,0.185-0.376,0.275-0.639,0.275c-0.249,0-0.455-0.091-0.622-0.275
				c-0.166-0.182-0.247-0.445-0.247-0.792v-4.656h-0.484c-0.263,0-0.462-0.057-0.605-0.178c-0.142-0.115-0.213-0.271-0.213-0.459
				C260.435,460.668,260.73,460.459,261.319,460.459L261.319,460.459z"/>
			<path style="fill:#F6F5E1;" d="M267.072,464.915v1.469c0,0.355-0.09,0.623-0.253,0.8c-0.168,0.18-0.379,0.268-0.636,0.268
				c-0.259,0-0.466-0.089-0.628-0.272c-0.16-0.179-0.244-0.444-0.244-0.796v-4.895c0-0.79,0.284-1.186,0.854-1.186
				c0.294,0,0.503,0.092,0.633,0.276c0.128,0.185,0.199,0.457,0.215,0.819c0.208-0.362,0.423-0.634,0.643-0.819
				c0.225-0.185,0.517-0.276,0.888-0.276c0.372,0,0.727,0.092,1.074,0.276c0.349,0.185,0.522,0.432,0.522,0.735
				c0,0.214-0.075,0.394-0.221,0.53c-0.149,0.142-0.308,0.211-0.479,0.211c-0.067,0-0.225-0.043-0.47-0.122
				c-0.247-0.077-0.467-0.117-0.652-0.117c-0.258,0-0.47,0.069-0.632,0.202c-0.164,0.139-0.291,0.337-0.382,0.601
				c-0.088,0.268-0.148,0.587-0.185,0.952C267.088,463.94,267.072,464.388,267.072,464.915L267.072,464.915z"/>
			<path style="fill:#F6F5E1;" d="M275.889,465.036c-0.16,0-0.29,0.04-0.38,0.12c-0.22,0.2-0.399,0.37-0.54,0.479
				c-0.14,0.131-0.279,0.24-0.449,0.341c-0.16,0.109-0.33,0.189-0.5,0.229c-0.181,0.061-0.37,0.08-0.58,0.08
				c-0.311,0-0.601-0.08-0.86-0.229c-0.26-0.16-0.47-0.391-0.63-0.69c-0.15-0.3-0.23-0.66-0.24-1.06h3.44
				c0.46,0,0.819-0.061,1.069-0.19c0.25-0.14,0.38-0.42,0.38-0.86c0-0.479-0.12-0.939-0.37-1.409c-0.239-0.461-0.609-0.83-1.1-1.12
				c-0.49-0.29-1.08-0.431-1.77-0.431c-0.53,0-1.011,0.08-1.44,0.25c-0.43,0.17-0.8,0.41-1.09,0.73c-0.3,0.32-0.53,0.7-0.68,1.14
				c-0.16,0.45-0.23,0.931-0.23,1.45c0,1.1,0.31,1.98,0.94,2.62c0.619,0.64,1.5,0.96,2.63,0.96c0.489,0,0.93-0.061,1.31-0.19
				c0.38-0.13,0.7-0.29,0.95-0.479c0.25-0.2,0.44-0.4,0.57-0.62c0.12-0.21,0.18-0.39,0.18-0.55c0-0.181-0.06-0.32-0.17-0.42
				C276.219,465.086,276.069,465.036,275.889,465.036z M272.228,461.966c0.28-0.3,0.641-0.449,1.07-0.449
				c0.471,0,0.83,0.149,1.12,0.449c0.28,0.29,0.44,0.74,0.48,1.341h-3.19C271.77,462.716,271.939,462.276,272.228,461.966z"/>
			<path style="fill:#F6F5E1;" d="M283.199,465.036c-0.16,0-0.29,0.04-0.38,0.12c-0.221,0.2-0.4,0.37-0.54,0.479
				c-0.141,0.131-0.28,0.24-0.45,0.341c-0.16,0.109-0.33,0.189-0.51,0.229c-0.17,0.061-0.36,0.08-0.57,0.08
				c-0.31,0-0.6-0.08-0.86-0.229c-0.26-0.16-0.47-0.391-0.619-0.69c-0.16-0.3-0.24-0.66-0.25-1.06h3.44c0.46,0,0.82-0.061,1.07-0.19
				c0.25-0.14,0.38-0.42,0.38-0.86c0-0.479-0.12-0.939-0.37-1.409c-0.24-0.461-0.61-0.83-1.1-1.12c-0.5-0.29-1.08-0.431-1.771-0.431
				c-0.53,0-1.01,0.08-1.44,0.25c-0.439,0.17-0.8,0.41-1.09,0.73c-0.3,0.32-0.529,0.7-0.68,1.14c-0.16,0.45-0.24,0.931-0.24,1.45
				c0,1.1,0.32,1.98,0.95,2.62c0.62,0.64,1.5,0.96,2.63,0.96c0.49,0,0.93-0.061,1.311-0.19c0.38-0.13,0.699-0.29,0.949-0.479
				c0.25-0.2,0.44-0.4,0.56-0.62c0.13-0.21,0.18-0.39,0.18-0.55c0-0.181-0.05-0.32-0.16-0.42
				C283.529,465.086,283.379,465.036,283.199,465.036z M279.529,461.966c0.29-0.3,0.649-0.449,1.08-0.449
				c0.46,0,0.83,0.149,1.119,0.449c0.28,0.29,0.44,0.74,0.481,1.341h-3.19C279.079,462.716,279.249,462.276,279.529,461.966z"/>
			<path style="fill:#F6F5E1;" d="M291.509,463.656c-0.02-0.65-0.149-1.21-0.38-1.7c-0.27-0.53-0.63-0.939-1.08-1.22
				c-0.46-0.28-0.96-0.42-1.5-0.42c-0.45,0-0.85,0.1-1.2,0.29c-0.359,0.189-0.71,0.49-1.04,0.899v-0.21
				c0-0.33-0.069-0.569-0.229-0.739c-0.16-0.171-0.36-0.25-0.61-0.25s-0.449,0.079-0.6,0.239c-0.15,0.17-0.22,0.42-0.22,0.761v7.579
				c0,0.391,0.06,0.671,0.159,0.881c0.11,0.189,0.33,0.29,0.66,0.29c0.561,0,0.84-0.391,0.84-1.16v-2.63
				c0.181,0.22,0.36,0.409,0.551,0.569c0.14,0.12,0.279,0.221,0.43,0.311c0.34,0.2,0.76,0.3,1.26,0.3c0.42,0,0.811-0.08,1.17-0.24
				c0.37-0.17,0.681-0.41,0.95-0.71c0.26-0.31,0.47-0.689,0.63-1.14c0.15-0.45,0.221-0.95,0.221-1.49
				C291.52,463.796,291.52,463.727,291.509,463.656z M289.529,465.076c-0.15,0.34-0.34,0.59-0.601,0.76
				c-0.239,0.17-0.52,0.261-0.81,0.261c-0.06,0-0.12,0-0.17-0.021c-0.42-0.03-0.771-0.229-1.06-0.57
				c-0.33-0.38-0.489-0.93-0.489-1.63c0-0.74,0.159-1.3,0.5-1.69c0.329-0.38,0.739-0.57,1.22-0.57c0.31,0,0.59,0.09,0.84,0.27
				c0.25,0.181,0.44,0.431,0.58,0.771c0.15,0.33,0.22,0.729,0.22,1.19c0,0.43-0.06,0.8-0.19,1.109
				C289.559,464.996,289.549,465.036,289.529,465.076z"/>
			<path style="fill:#F6F5E1;" d="M293.909,460.566c-0.17-0.181-0.38-0.26-0.64-0.26c-0.25,0-0.461,0.079-0.62,0.26
				c-0.16,0.18-0.25,0.439-0.25,0.79v5.029c0,0.341,0.09,0.601,0.25,0.79c0.159,0.181,0.37,0.27,0.62,0.27
				c0.26,0,0.47-0.08,0.64-0.27c0.17-0.18,0.25-0.44,0.25-0.79v-5.079C294.159,460.986,294.079,460.746,293.909,460.566z
				 M293.899,457.986c-0.181-0.15-0.38-0.22-0.61-0.22c-0.23,0-0.44,0.08-0.62,0.239c-0.18,0.16-0.27,0.37-0.27,0.62
				c0,0.271,0.09,0.48,0.27,0.63c0.17,0.15,0.38,0.23,0.62,0.23c0.24,0,0.439-0.08,0.62-0.23c0.17-0.149,0.25-0.359,0.25-0.63
				C294.159,458.347,294.069,458.126,293.899,457.986z"/>
			<path style="fill:#F6F5E1;" d="M299.827,466.648l-1.548-2.552l-0.954,0.9v1.399c0,0.339-0.09,0.598-0.269,0.779
				c-0.175,0.185-0.384,0.275-0.614,0.275c-0.271,0-0.484-0.089-0.638-0.272c-0.153-0.179-0.232-0.444-0.232-0.796v-7.498
				c0-0.388,0.077-0.685,0.224-0.89c0.151-0.207,0.369-0.307,0.646-0.307c0.271,0,0.483,0.093,0.643,0.279
				c0.158,0.183,0.239,0.456,0.239,0.814v4.265l1.977-2.075c0.245-0.255,0.429-0.435,0.56-0.527
				c0.128-0.095,0.283-0.142,0.467-0.142c0.221,0,0.402,0.07,0.553,0.209c0.143,0.14,0.217,0.316,0.217,0.524
				c0,0.257-0.239,0.602-0.715,1.031l-0.933,0.855l1.802,2.835c0.131,0.213,0.229,0.368,0.287,0.479
				c0.058,0.107,0.088,0.217,0.088,0.313c0,0.28-0.077,0.498-0.23,0.661c-0.152,0.161-0.354,0.24-0.601,0.24
				c-0.214,0-0.382-0.055-0.497-0.174C300.185,467.16,300.024,466.95,299.827,466.648L299.827,466.648z"/>
			<path style="fill:#F6F5E1;" d="M303.646,467.451c-0.265,0-0.492-0.086-0.686-0.258c-0.192-0.169-0.291-0.411-0.291-0.722
				c0-0.262,0.094-0.487,0.278-0.675c0.186-0.19,0.412-0.283,0.684-0.283c0.268,0,0.498,0.094,0.692,0.279
				c0.19,0.186,0.286,0.414,0.286,0.679c0,0.307-0.097,0.547-0.286,0.718C304.129,467.365,303.903,467.451,303.646,467.451
				L303.646,467.451z"/>
			<path style="fill:#F6F5E1;" d="M312.389,465.275c0,0.218-0.066,0.453-0.197,0.701c-0.13,0.251-0.331,0.486-0.601,0.712
				c-0.268,0.225-0.604,0.408-1.013,0.544c-0.407,0.137-0.868,0.208-1.376,0.208c-1.089,0-1.938-0.318-2.547-0.949
				c-0.607-0.635-0.912-1.484-0.912-2.549c0-0.723,0.138-1.359,0.419-1.914c0.276-0.552,0.681-0.98,1.208-1.283
				c0.527-0.304,1.162-0.454,1.894-0.454c0.456,0,0.873,0.066,1.255,0.2c0.38,0.132,0.7,0.306,0.966,0.515
				c0.262,0.213,0.465,0.436,0.604,0.672c0.14,0.238,0.208,0.462,0.208,0.669c0,0.209-0.077,0.388-0.232,0.534
				c-0.159,0.146-0.35,0.22-0.568,0.22c-0.148,0-0.27-0.039-0.367-0.113c-0.097-0.076-0.206-0.196-0.324-0.367
				c-0.215-0.324-0.438-0.57-0.675-0.731c-0.232-0.164-0.528-0.245-0.89-0.245c-0.517,0-0.939,0.202-1.257,0.608
				c-0.316,0.403-0.477,0.962-0.477,1.663c0,0.331,0.043,0.637,0.124,0.913c0.079,0.276,0.197,0.513,0.353,0.708
				c0.156,0.194,0.342,0.342,0.561,0.443c0.22,0.104,0.461,0.152,0.721,0.152c0.353,0,0.655-0.081,0.905-0.244
				c0.255-0.163,0.477-0.411,0.669-0.747c0.107-0.197,0.222-0.351,0.345-0.463c0.124-0.111,0.277-0.169,0.458-0.169
				c0.215,0,0.393,0.083,0.533,0.245C312.316,464.917,312.389,465.093,312.389,465.275L312.389,465.275z"/>
			<path style="fill:#F6F5E1;" d="M319.728,462.426c-0.159-0.43-0.39-0.81-0.699-1.13c-0.311-0.319-0.681-0.56-1.11-0.729
				c-0.44-0.181-0.92-0.26-1.45-0.26c-0.529,0-1.01,0.079-1.439,0.25c-0.431,0.17-0.801,0.409-1.11,0.729
				c-0.3,0.311-0.54,0.69-0.7,1.13c-0.16,0.44-0.24,0.931-0.24,1.46c0,0.53,0.08,1.01,0.231,1.45c0.17,0.43,0.4,0.81,0.72,1.13
				c0.3,0.32,0.681,0.57,1.101,0.74c0.42,0.17,0.899,0.26,1.439,0.26c0.53,0,1.01-0.09,1.45-0.26c0.42-0.17,0.79-0.41,1.101-0.73
				c0.31-0.319,0.55-0.699,0.709-1.14c0.16-0.44,0.24-0.93,0.24-1.45C319.969,463.347,319.889,462.866,319.728,462.426z
				 M317.739,465.536c-0.32,0.41-0.74,0.61-1.271,0.61c-0.359,0-0.66-0.09-0.92-0.271c-0.26-0.19-0.46-0.45-0.6-0.8
				c-0.141-0.34-0.21-0.74-0.21-1.2c0-0.46,0.069-0.87,0.21-1.22c0.14-0.34,0.34-0.61,0.609-0.79c0.261-0.17,0.56-0.26,0.91-0.26
				c0.53,0,0.95,0.2,1.271,0.6c0.31,0.4,0.47,0.96,0.47,1.67C318.209,464.586,318.049,465.136,317.739,465.536z"/>
			<path style="fill:#F6F5E1;" d="M326.677,464.008v2.336c0,0.371-0.082,0.645-0.251,0.832c-0.169,0.185-0.387,0.276-0.662,0.276
				c-0.267,0-0.484-0.092-0.645-0.276c-0.168-0.188-0.252-0.461-0.252-0.832v-2.8c0-0.442-0.015-0.787-0.043-1.033
				c-0.031-0.239-0.114-0.443-0.246-0.598c-0.133-0.16-0.345-0.238-0.631-0.238c-0.576,0-0.953,0.196-1.136,0.597
				c-0.182,0.391-0.275,0.958-0.275,1.699v2.373c0,0.364-0.083,0.642-0.245,0.829c-0.169,0.185-0.385,0.279-0.654,0.279
				c-0.268,0-0.485-0.094-0.655-0.279c-0.17-0.188-0.255-0.465-0.255-0.829v-5.028c0-0.331,0.076-0.583,0.228-0.753
				c0.155-0.174,0.356-0.259,0.602-0.259c0.242,0,0.441,0.084,0.605,0.241c0.16,0.161,0.24,0.384,0.24,0.667v0.166
				c0.308-0.362,0.634-0.631,0.978-0.8c0.351-0.177,0.733-0.262,1.161-0.262c0.441,0,0.82,0.089,1.137,0.264
				c0.318,0.177,0.579,0.444,0.787,0.798c0.298-0.358,0.616-0.625,0.955-0.8c0.339-0.175,0.714-0.262,1.127-0.262
				c0.479,0,0.896,0.097,1.242,0.284c0.346,0.189,0.605,0.46,0.778,0.81c0.149,0.32,0.224,0.82,0.224,1.503v3.431
				c0,0.371-0.083,0.645-0.249,0.832c-0.167,0.185-0.39,0.276-0.664,0.276c-0.268,0-0.483-0.094-0.653-0.279
				c-0.17-0.188-0.255-0.465-0.255-0.829v-2.956c0-0.378-0.017-0.68-0.047-0.906c-0.032-0.229-0.12-0.421-0.26-0.574
				c-0.144-0.154-0.359-0.232-0.646-0.232c-0.232,0-0.452,0.072-0.66,0.208c-0.208,0.135-0.371,0.323-0.488,0.551
				C326.743,462.73,326.677,463.256,326.677,464.008L326.677,464.008z"/>
		</g>
		<g>
			<path style="fill:#F6F5E1;" d="M244.872,463.453c-0.001-0.003-0.001-0.006-0.001-0.012
				C244.871,463.447,244.871,463.45,244.872,463.453z"/>
			<path style="fill:#F6F5E1;" d="M244.961,464.016c0.001,0,0.001,0,0.002,0c-0.034-0.16-0.06-0.319-0.081-0.476
				C244.903,463.698,244.929,463.857,244.961,464.016z"/>
			<path style="fill:#F6F5E1;" d="M245.542,465.647c-0.004-0.007-0.007-0.015-0.012-0.023
				C245.535,465.632,245.539,465.64,245.542,465.647z"/>
			<path style="fill:#F6F5E1;" d="M245.487,465.538c-0.015-0.03-0.03-0.061-0.044-0.091
				C245.457,465.478,245.472,465.508,245.487,465.538z"/>
			<path style="fill:#F6F5E1;" d="M245.124,464.644c0.086,0.271,0.19,0.534,0.31,0.785c-0.122-0.256-0.224-0.52-0.308-0.785
				C245.126,464.644,245.125,464.644,245.124,464.644z"/>
			<path style="fill:#F6F5E1;" d="M251.675,456.72c0.34,0,0.59,0.026,0.878,0.075l0.081-0.517c0,0-0.794-0.244-1.837-0.159
				l-0.082-0.281c0.324-0.068,0.567-0.356,0.567-0.701c0-0.395-0.321-0.714-0.716-0.714c-0.396,0-0.716,0.319-0.716,0.714
				c0,0.345,0.243,0.633,0.567,0.701l0.09,0.314c-1.107,0.152-1.989,0.585-1.989,0.585l0.156,0.478
				c0.67-0.224,1.251-0.358,1.778-0.416C250.97,456.743,251.358,456.72,251.675,456.72z"/>
			<path style="fill:#F6F5E1;" d="M245.529,459.334l0.004-0.005c0.026-0.034,0.051-0.065,0.077-0.097l-0.212-0.153l-0.331-0.241
				c-0.019,0.025-0.539,0.504-0.95,1.388c-0.018-0.027-0.038-0.055-0.061-0.081c-0.123-0.134-0.295-0.202-0.514-0.198
				c-0.003,0-0.006,0-0.01,0c-0.135,0-0.228-0.046-0.289-0.101c0.061-0.076,0.097-0.173,0.097-0.28c0-0.249-0.203-0.453-0.454-0.453
				c-0.249,0-0.453,0.204-0.453,0.453c0,0.251,0.204,0.454,0.453,0.454c0.04,0,0.077-0.007,0.113-0.014
				c0.111,0.123,0.288,0.231,0.547,0.226c0.133-0.001,0.231,0.033,0.296,0.105c0.075,0.082,0.1,0.2,0.108,0.29
				c-0.001,0.001-0.001,0.003-0.002,0.003c-0.295,0.807-0.211,1.81-0.211,1.81l0.716,0.028c0.015-0.365,0.067-1.004,0.252-1.512
				C245.064,459.975,245.511,459.36,245.529,459.334z"/>
			<path style="fill:#F6F5E1;" d="M257.909,457.318c-0.249,0-0.453,0.202-0.453,0.453c0,0.039,0.006,0.076,0.016,0.112
				c-0.124,0.112-0.232,0.29-0.228,0.549c0.002,0.134-0.032,0.23-0.104,0.296c-0.058,0.051-0.13,0.078-0.2,0.096
				c-0.533-0.747-1.19-1.203-1.19-1.203l-0.514,0.551c0.389,0.353,0.785,0.797,1.171,1.349c0.267,0.382,0.542,0.875,0.77,1.366
				l0.693-0.33c0,0-0.316-0.783-0.763-1.485c0.077-0.027,0.155-0.069,0.225-0.13c0.136-0.123,0.202-0.296,0.198-0.514
				c-0.001-0.142,0.045-0.236,0.101-0.3c0.077,0.06,0.174,0.098,0.279,0.098c0.252,0,0.454-0.204,0.454-0.454
				C258.363,457.521,258.161,457.318,257.909,457.318z"/>
			<path style="fill:#F6F5E1;" d="M256.108,463.555c-0.955,0.466-2.527,1.08-4.596,1.369c-0.812,0.112-1.599,0.154-2.324,0.154
				c-0.942,0-1.775-0.07-2.414-0.151c-0.729-0.092-1.3-0.204-1.648-0.283c0.084,0.266,0.186,0.529,0.308,0.785
				c0.002,0.007,0.005,0.014,0.008,0.019c0.015,0.029,0.029,0.061,0.044,0.091c0.015,0.029,0.029,0.059,0.044,0.086
				c0.004,0.008,0.008,0.016,0.012,0.023c0.205,0.387,0.452,0.742,0.732,1.05c0.976,1.067,1.97,1.236,1.98,1.237l0.016,0.002
				l0.015,0.005c0.009,0.004,0.89,0.288,2.23,0.288c1.319,0,2.613-0.266,3.845-0.791c0.913-0.467,1.777-1.177,2.205-1.81
				c0.331-0.489,0.57-1.012,0.712-1.555c0.075-0.288,0.135-0.75,0.1-1.236C257.108,463.018,256.684,463.274,256.108,463.555z"/>
			<path style="fill:#F6F5E1;" d="M256.089,459.736c-1.35-1.94-2.819-2.44-3.569-2.56c-0.29-0.05-0.52-0.069-0.841-0.069
				c-0.31,0-0.68,0.02-1.189,0.069c-0.5,0.051-1.06,0.19-1.71,0.41c-0.92,0.3-1.74,0.78-2.39,1.38l-0.02,0.021
				c-0.1,0.09-0.3,0.28-0.53,0.57c-0.03,0.04-0.45,0.63-0.77,1.529c-0.25,0.681-0.24,1.66-0.24,1.67c0,0.23,0.02,0.46,0.04,0.69
				c0,0,0,0,0,0.01c0.01,0.03,0.01,0.05,0.01,0.08c0.02,0.16,0.05,0.32,0.08,0.48c0.48,0.119,3.31,0.779,6.47,0.34
				c1.99-0.28,3.49-0.86,4.41-1.311c0.76-0.359,1.25-0.699,1.44-0.84C257.089,461.517,256.569,460.416,256.089,459.736z
				 M248.569,462.876c-1.06,0-1.91-0.85-1.91-1.91c0-1.05,0.85-1.899,1.91-1.899c1.05,0,1.91,0.85,1.91,1.899
				C250.479,462.026,249.619,462.876,248.569,462.876z M254.149,461.477c-0.65,0-1.181-0.53-1.181-1.19c0-0.65,0.53-1.18,1.181-1.18
				c0.649,0,1.18,0.529,1.18,1.18C255.329,460.946,254.799,461.477,254.149,461.477z"/>
		</g>
	</g>
</g>
</svg>
