<svg width="149" height="158" viewBox="0 0 149 158" fill="none" xmlns="http://www.w3.org/2000/svg">
<path d="M33.8408 101.893C33.3308 98.8073 32.8218 95.7223 32.3118 92.6363C31.4888 87.6553 30.3768 82.1753 26.3448 79.1363C24.8778 78.0303 23.1388 77.3543 21.4248 76.6923C13.6168 73.6753 5.01184 71.2753 1.62484 62.7323C-5.34316 45.1573 11.5728 29.5603 24.4368 20.4493C41.9218 8.06531 62.3488 -0.282676 84.0678 0.00732396C109.108 0.342324 151.694 14.3853 148.604 46.4053C146.837 64.7163 129.232 78.7073 131.649 98.1263C132.059 101.421 126.004 102.251 122.769 102.998C113.187 105.211 103.382 106.459 93.5508 106.719C89.9558 106.814 86.3348 106.774 82.7998 106.115C80.3228 105.653 77.9128 104.892 75.4608 104.316C72.0488 103.515 68.5528 103.076 65.0488 103.007C54.7708 102.807 43.2538 106.024 33.8408 101.893Z" fill="#F6F5E1"/>
<path d="M90.9068 105.257C87.8188 105.257 85.3308 105.061 83.0758 104.641C81.6038 104.366 80.1718 103.986 78.6558 103.583C77.7068 103.332 76.7588 103.08 75.8048 102.856C72.2958 102.032 68.6878 101.578 65.0788 101.507C64.7508 101.501 64.4198 101.497 64.0898 101.497C61.0758 101.497 57.9428 101.756 54.9118 102.005C51.8978 102.254 48.7818 102.51 45.8048 102.511C41.5198 102.511 38.1178 101.973 35.1868 100.826L33.7928 92.3913C32.8838 86.8883 31.6298 81.2393 27.2488 77.9373C25.6038 76.6983 23.6718 75.9513 21.9668 75.2923C21.1688 74.9833 20.3628 74.6813 19.5548 74.3793C12.4908 71.7343 5.81782 69.2353 3.02082 62.1783C-3.30417 46.2263 11.6478 31.3473 25.3038 21.6743C43.9368 8.47632 63.8768 1.50131 82.9688 1.50131C83.3288 1.50131 83.6868 1.5033 84.0478 1.5083C102.181 1.7503 126.924 9.12431 139.132 22.7473C145.27 29.5973 147.955 37.5093 147.111 46.2603C146.359 54.0533 142.666 60.9633 138.756 68.2803C133.838 77.4833 128.752 86.9993 130.16 98.3113C130.351 99.8483 125.866 100.799 123.71 101.256C123.254 101.352 122.823 101.444 122.432 101.534C112.958 103.722 103.228 104.961 93.5118 105.217C92.6438 105.242 91.7748 105.257 90.9068 105.257Z" fill="#F6F5E1"/>
<path opacity="0.5" d="M90.9068 105.257C87.8188 105.257 85.3308 105.061 83.0758 104.641C81.6038 104.366 80.1718 103.986 78.6558 103.583C77.7068 103.332 76.7588 103.08 75.8048 102.856C72.2958 102.032 68.6878 101.578 65.0788 101.507C64.7508 101.501 64.4198 101.497 64.0898 101.497C61.0758 101.497 57.9428 101.756 54.9118 102.005C51.8978 102.254 48.7818 102.51 45.8048 102.511C41.5198 102.511 38.1178 101.973 35.1868 100.826L33.7928 92.3913C32.8838 86.8883 31.6298 81.2393 27.2488 77.9373C25.6038 76.6983 23.6718 75.9513 21.9668 75.2923C21.1688 74.9833 20.3628 74.6813 19.5548 74.3793C12.4908 71.7343 5.81782 69.2353 3.02082 62.1783C-3.30417 46.2263 11.6478 31.3473 25.3038 21.6743C43.9368 8.47632 63.8768 1.50131 82.9688 1.50131C83.3288 1.50131 83.6868 1.5033 84.0478 1.5083C102.181 1.7503 126.924 9.12431 139.132 22.7473C145.27 29.5973 147.955 37.5093 147.111 46.2603C146.359 54.0533 142.666 60.9633 138.756 68.2803C133.838 77.4833 128.752 86.9993 130.16 98.3113C130.351 99.8483 125.866 100.799 123.71 101.256C123.254 101.352 122.823 101.444 122.432 101.534C112.958 103.722 103.228 104.961 93.5118 105.217C92.6438 105.242 91.7748 105.257 90.9068 105.257Z" fill="url(#paint0_radial_1_40)"/>
<path opacity="0.7" d="M90.9068 105.257C87.8188 105.257 85.3308 105.061 83.0758 104.641C81.6038 104.366 80.1718 103.986 78.6558 103.583C77.7068 103.332 76.7588 103.08 75.8048 102.856C72.2958 102.032 68.6878 101.578 65.0788 101.507C64.7508 101.501 64.4198 101.497 64.0898 101.497C61.0758 101.497 57.9428 101.756 54.9118 102.005C51.8978 102.254 48.7818 102.51 45.8048 102.511C41.5198 102.511 38.1178 101.973 35.1868 100.826L33.7928 92.3913C32.8838 86.8883 31.6298 81.2393 27.2488 77.9373C25.6038 76.6983 23.6718 75.9513 21.9668 75.2923C21.1688 74.9833 20.3628 74.6813 19.5548 74.3793C12.4908 71.7343 5.81782 69.2353 3.02082 62.1783C-3.30417 46.2263 11.6478 31.3473 25.3038 21.6743C43.9368 8.47632 63.8768 1.50131 82.9688 1.50131C83.3288 1.50131 83.6868 1.5033 84.0478 1.5083C102.181 1.7503 126.924 9.12431 139.132 22.7473C145.27 29.5973 147.955 37.5093 147.111 46.2603C146.359 54.0533 142.666 60.9633 138.756 68.2803C133.838 77.4833 128.752 86.9993 130.16 98.3113C130.351 99.8483 125.866 100.799 123.71 101.256C123.254 101.352 122.823 101.444 122.432 101.534C112.958 103.722 103.228 104.961 93.5118 105.217C92.6438 105.242 91.7748 105.257 90.9068 105.257Z" fill="url(#paint1_radial_1_40)"/>
<path opacity="0.8" d="M64.6118 24.4383C63.2178 28.2663 63.1549 32.4313 63.1069 36.5043C63.0569 40.8133 63.0119 45.1763 64.0269 49.3643C65.2399 54.3673 67.9078 58.8893 69.5878 63.7563C72.2118 71.3603 72.3518 79.5633 72.4648 87.6063C72.4968 89.8933 70.4848 92.4983 68.6138 89.6633C67.6398 88.1883 68.1158 85.7423 67.9698 84.0313C67.7358 81.2753 67.4019 78.7733 66.6539 76.0903C63.5359 64.9683 59.4539 54.0993 58.3309 42.5343C57.5289 34.2733 59.4389 25.9263 62.5099 18.2923C62.8149 17.5333 63.1588 16.7433 63.8088 16.2463C64.4588 15.7493 65.5098 15.6803 66.0238 16.3173C66.2188 16.5593 66.3118 16.8673 66.3728 17.1713C66.8678 19.6523 65.4768 22.0603 64.6118 24.4383Z" fill="url(#paint2_radial_1_40)"/>
<path opacity="0.8" d="M90.8008 15.3403C88.6478 19.3553 87.9138 23.9553 87.2108 28.4563C86.4678 33.2183 85.7229 38.0393 86.1789 42.8373C86.7239 48.5693 88.9569 53.9983 90.0399 59.6533C91.7319 68.4883 90.5788 77.5903 89.4218 86.5103C89.0928 89.0473 86.4509 91.6083 84.8319 88.1733C83.9899 86.3853 84.9058 83.7533 85.0168 81.8373C85.1968 78.7493 85.2268 75.9273 84.8268 72.8383C83.1498 60.0313 80.3638 47.3493 80.9648 34.3693C81.3938 25.0973 84.8389 16.1633 89.4559 8.20232C89.9149 7.41032 90.4209 6.59133 91.2199 6.14433C92.0179 5.69733 93.1929 5.78833 93.6599 6.57533C93.8369 6.87433 93.8919 7.22934 93.9099 7.57634C94.0609 10.4033 92.1378 12.8473 90.8008 15.3403Z" fill="url(#paint3_radial_1_40)"/>
<path opacity="0.8" d="M117.776 30.5803C115.111 33.5723 113.539 37.3553 112.014 41.0603C110.401 44.9803 108.775 48.9503 108.18 53.1473C107.47 58.1613 108.265 63.2623 108.03 68.3203C107.664 76.2233 104.81 83.7703 101.99 91.1623C101.188 93.2643 98.4029 94.9123 97.7229 91.6433C97.3689 89.9413 98.6929 87.8783 99.1819 86.2623C99.9699 83.6583 100.574 81.2503 100.866 78.5273C102.06 67.2303 102.28 55.8133 105.458 44.8363C107.728 36.9953 112.508 30.0613 118.089 24.2013C118.644 23.6183 119.245 23.0213 120.02 22.8033C120.795 22.5853 121.781 22.9043 122.019 23.6733C122.109 23.9653 122.083 24.2803 122.027 24.5813C121.578 27.0273 119.431 28.7223 117.776 30.5803Z" fill="url(#paint4_radial_1_40)"/>
<path opacity="0.8" d="M136.893 45.7073C134.561 47.9183 133.049 50.8353 131.581 53.6933C130.028 56.7173 128.459 59.7803 127.701 63.0943C126.795 67.0533 127.086 71.1843 126.557 75.2103C125.731 81.5013 122.94 87.3403 120.187 93.0573C119.404 94.6833 117.067 95.8123 116.745 93.1533C116.577 91.7693 117.775 90.2103 118.274 88.9513C119.079 86.9233 119.725 85.0403 120.142 82.8833C121.859 73.9353 122.806 64.8263 126.087 56.2683C128.431 50.1553 132.719 44.9363 137.575 40.6303C138.058 40.2023 138.579 39.7653 139.212 39.6433C139.846 39.5213 140.612 39.8423 140.75 40.4733C140.802 40.7123 140.76 40.9633 140.695 41.1993C140.171 43.1243 138.341 44.3333 136.893 45.7073Z" fill="url(#paint5_radial_1_40)"/>
<path opacity="0.8" d="M42.5028 29.5013C41.9058 33.5313 42.6788 37.6243 43.4488 41.6243C44.2638 45.8563 45.0948 50.1393 46.9298 54.0383C49.1218 58.6963 52.6428 62.5913 55.2648 67.0223C59.3608 73.9453 61.1438 81.9533 62.8678 89.8103C63.3578 92.0443 61.9088 94.9993 59.5088 92.5983C58.2588 91.3483 58.2338 88.8563 57.7488 87.2103C56.9658 84.5573 56.1378 82.1733 54.8668 79.6943C49.5818 69.4243 43.4018 59.5943 39.9818 48.4893C37.5388 40.5573 37.7358 31.9963 39.2128 23.9013C39.3598 23.0963 39.5378 22.2533 40.0748 21.6363C40.6118 21.0193 41.6278 20.7403 42.2588 21.2613C42.4988 21.4593 42.6518 21.7423 42.7728 22.0283C43.7528 24.3613 42.8738 26.9983 42.5028 29.5013Z" fill="url(#paint6_radial_1_40)"/>
<path opacity="0.8" d="M20.7288 48.9073C20.7558 52.0843 22.0848 54.8933 23.3978 57.6333C24.7868 60.5323 26.1988 63.4643 28.5008 65.8073C31.2518 68.6063 35.1448 70.4333 38.2668 72.9323C43.1458 76.8373 46.0008 82.2503 48.7788 87.5683C49.5688 89.0803 48.6348 91.7173 46.0178 90.6593C44.6558 90.1093 44.2668 88.2643 43.5678 87.1873C42.4408 85.4523 41.3098 83.9313 39.7478 82.4733C33.2568 76.4403 25.9858 71.0073 21.1318 63.7873C17.6648 58.6313 16.5968 52.2063 16.8038 45.7403C16.8248 45.0973 16.8688 44.4163 17.2848 43.7953C17.7008 43.1733 18.6188 42.6583 19.2908 42.8543C19.5458 42.9283 19.7318 43.0923 19.8878 43.2693C21.1558 44.7063 20.7118 46.9333 20.7288 48.9073Z" fill="url(#paint7_radial_1_40)"/>
<path d="M82.6458 157.865C109.798 157.865 131.809 152.741 131.809 146.419C131.809 140.098 109.798 134.973 82.6458 134.973C55.4939 134.973 33.4828 140.098 33.4828 146.419C33.4828 152.741 55.4939 157.865 82.6458 157.865Z" fill="#F6F5E1"/>
<path d="M82.6458 157.865C109.798 157.865 131.809 152.741 131.809 146.419C131.809 140.098 109.798 134.973 82.6458 134.973C55.4939 134.973 33.4828 140.098 33.4828 146.419C33.4828 152.741 55.4939 157.865 82.6458 157.865Z" fill="url(#paint8_radial_1_40)"/>
<path d="M82.6458 83.9333C55.4938 83.9333 33.4828 89.0583 33.4828 95.3793V146.419C33.4828 140.097 55.4938 134.973 82.6458 134.973C109.798 134.973 131.809 140.098 131.809 146.419V95.3793C131.809 89.0583 109.798 83.9333 82.6458 83.9333Z" fill="#F6F5E1"/>
<path d="M131.058 143.316C125.266 137.565 103.647 134.222 82.6448 134.222C61.6438 134.222 40.0248 137.565 34.2318 143.316V95.3803C34.2318 90.2153 53.6848 84.6843 82.6448 84.6843C111.604 84.6843 131.058 90.2143 131.058 95.3803V143.316Z" fill="url(#paint9_linear_1_40)"/>
<path opacity="0.8" d="M131.058 143.316C125.266 137.565 103.647 134.222 82.6448 134.222C61.6438 134.222 40.0248 137.565 34.2318 143.316V95.3803C34.2318 90.2153 53.6848 84.6843 82.6448 84.6843C111.604 84.6843 131.058 90.2143 131.058 95.3803V143.316Z" fill="url(#paint10_radial_1_40)"/>
<path opacity="0.6" d="M95.7978 15.0553C97.8248 11.8363 104.76 10.3443 107.771 12.6193C112.008 15.8203 112.308 21.1543 110.911 25.8793C109.486 30.6983 106.592 34.9363 104.617 39.5583C103.046 43.2353 102.061 47.1633 101.711 51.1473C101.402 54.6653 101.576 58.2753 100.535 61.6493C99.4828 65.0593 95.7798 70.0653 91.9168 67.5063C88.7388 65.4013 87.5118 61.4193 87.5188 57.7573C87.5278 53.3303 87.5648 48.9033 87.6288 44.4773C87.7228 37.9653 88.5248 32.1573 90.9138 26.0693C92.3088 22.5143 93.6788 18.4213 95.7978 15.0553Z" fill="url(#paint11_radial_1_40)"/>
<defs>
<radialGradient id="paint0_radial_1_40" cx="0" cy="0" r="1" gradientUnits="userSpaceOnUse" gradientTransform="translate(78.5214 42.1106) scale(102.577 47.1034)">
<stop offset="0.6242" stop-color="#B2B3A5" stop-opacity="0"/>
<stop offset="0.9771" stop-color="#B2B3A5"/>
</radialGradient>
<radialGradient id="paint1_radial_1_40" cx="0" cy="0" r="1" gradientUnits="userSpaceOnUse" gradientTransform="translate(45.4915 31.8301) scale(87.213 87.213)">
<stop offset="0.2349" stop-color="white"/>
<stop offset="1" stop-color="white" stop-opacity="0"/>
</radialGradient>
<radialGradient id="paint2_radial_1_40" cx="0" cy="0" r="1" gradientTransform="matrix(9.96803 -1.64366 6.10892 37.0516 70.7057 50.6192)" gradientUnits="userSpaceOnUse">
<stop offset="0.7015" stop-color="#DEDEC6" stop-opacity="0"/>
<stop offset="1" stop-color="#DEDEC6"/>
</radialGradient>
<radialGradient id="paint3_radial_1_40" cx="0" cy="0" r="1" gradientTransform="matrix(11.2948 -0.229331 0.852932 41.9845 93.3506 45.2974)" gradientUnits="userSpaceOnUse">
<stop offset="0.7015" stop-color="#DEDEC6" stop-opacity="0"/>
<stop offset="1" stop-color="#DEDEC6"/>
</radialGradient>
<radialGradient id="paint4_radial_1_40" cx="0" cy="0" r="1" gradientTransform="matrix(9.70618 2.12127 -7.88596 36.0805 113.803 56.729)" gradientUnits="userSpaceOnUse">
<stop offset="0.7015" stop-color="#DEDEC6" stop-opacity="0"/>
<stop offset="1" stop-color="#DEDEC6"/>
</radialGradient>
<radialGradient id="paint5_radial_1_40" cx="0" cy="0" r="1" gradientTransform="matrix(7.61409 2.35077 -8.73768 28.3032 131.934 66.3105)" gradientUnits="userSpaceOnUse">
<stop offset="0.7015" stop-color="#DEDEC6" stop-opacity="0"/>
<stop offset="1" stop-color="#DEDEC6"/>
</radialGradient>
<radialGradient id="paint6_radial_1_40" cx="0" cy="0" r="1" gradientTransform="matrix(9.43545 -3.60952 13.4167 35.0738 53.7061 53.9626)" gradientUnits="userSpaceOnUse">
<stop offset="0.7015" stop-color="#DEDEC6" stop-opacity="0"/>
<stop offset="1" stop-color="#DEDEC6"/>
</radialGradient>
<radialGradient id="paint7_radial_1_40" cx="0" cy="0" r="1" gradientTransform="matrix(8.37303 -5.54431 16.0975 19.9041 33.3277 63.0629)" gradientUnits="userSpaceOnUse">
<stop offset="0.7015" stop-color="#DEDEC6" stop-opacity="0"/>
<stop offset="1" stop-color="#DEDEC6"/>
</radialGradient>
<radialGradient id="paint8_radial_1_40" cx="0" cy="0" r="1" gradientTransform="matrix(56.1698 0.314551 -0.11234 20.0751 81.893 157.565)" gradientUnits="userSpaceOnUse">
<stop offset="0.3213" stop-color="#B2B3A5" stop-opacity="0"/>
<stop offset="0.9847" stop-color="#B2B3A5" stop-opacity="0.9775"/>
<stop offset="1" stop-color="#B2B3A5"/>
</radialGradient>
<linearGradient id="paint9_linear_1_40" x1="34.2327" y1="114" x2="131.058" y2="114" gradientUnits="userSpaceOnUse">
<stop offset="0.3213" stop-color="#B2B3A5" stop-opacity="0"/>
<stop offset="0.9033" stop-color="#B2B3A5" stop-opacity="0.9775"/>
<stop offset="0.9167" stop-color="#B2B3A5"/>
</linearGradient>
<radialGradient id="paint10_radial_1_40" cx="0" cy="0" r="1" gradientUnits="userSpaceOnUse" gradientTransform="translate(38.9239 93.8784) scale(83.1851 83.1851)">
<stop stop-color="white"/>
<stop offset="0.0225" stop-color="white" stop-opacity="0.9775"/>
<stop offset="1" stop-color="white" stop-opacity="0"/>
</radialGradient>
<radialGradient id="paint11_radial_1_40" cx="0" cy="0" r="1" gradientTransform="matrix(23.7112 18.7669 -34.7155 43.8601 104.362 30.5176)" gradientUnits="userSpaceOnUse">
<stop offset="0.2349" stop-color="white"/>
<stop offset="1" stop-color="white" stop-opacity="0"/>
</radialGradient>
</defs>
</svg>
