<svg width="115" height="41" viewBox="0 0 115 41" fill="none" xmlns="http://www.w3.org/2000/svg">
  <!-- Left Cheek/Blush -->
  <path id="left_cheek" d="M39.5303 28.5258C40.5403 32.6908 32.8613 38.5788 22.2033 38.5638C11.5443 38.5788 3.86626 32.6908 4.87626 28.5258C5.86226 24.2858 13.5563 22.8628 22.2033 22.8048C30.8503 22.8628 38.5443 24.2868 39.5303 28.5258Z" fill="#FF9861"/>
  
  <!-- Right Cheek/Blush -->
  <path id="right_cheek" d="M111.669 28.5258C112.679 32.6908 105 38.5788 94.3422 38.5638C83.6832 38.5788 76.0052 32.6908 77.0152 28.5258C78.0012 24.2858 85.6952 22.8628 94.3422 22.8048C102.988 22.8628 110.683 24.2868 111.669 28.5258Z" fill="#FF9861"/>
  
  <!-- Left Eye -->
  <path id="left_eye_base" d="M23.9483 7.22482C20.2753 5.36082 15.6293 4.85782 11.3503 5.12582C9.02127 7.59882 7.58527 10.9208 7.58527 14.5858C7.58527 22.2158 13.7713 28.4018 21.4013 28.4018C29.0313 28.4018 35.2173 22.2158 35.2173 14.5858C35.2173 13.5248 35.0863 12.4958 34.8603 11.5038C31.0303 10.8548 27.5263 9.04082 23.9483 7.22482Z" fill="#262626"/>
  <path id="left_eye_glint_top" d="M23.9482 7.22484C23.8942 7.19784 23.8353 7.17882 23.7812 7.15182C23.8342 8.06382 24.1393 9.05184 24.7373 9.97284C26.1293 12.1168 28.4893 13.0558 30.0083 12.0698C30.5533 11.7158 30.9073 11.1588 31.0843 10.4958C28.6603 9.63083 26.3202 8.42884 23.9482 7.22484Z" fill="white"/>
  <path id="left_eye_glint_bottom_left" d="M13.2193 23.2758C14.2487 23.2758 15.0833 22.4413 15.0833 21.4118C15.0833 20.3824 14.2487 19.5478 13.2193 19.5478C12.1898 19.5478 11.3553 20.3824 11.3553 21.4118C11.3553 22.4413 12.1898 23.2758 13.2193 23.2758Z" fill="white"/>
  <path id="left_eye_glint_bottom_right" d="M31.4633 17.0478C32.4927 17.0478 33.3273 16.2133 33.3273 15.1838C33.3273 14.1544 32.4927 13.3198 31.4633 13.3198C30.4338 13.3198 29.5993 14.1544 29.5993 15.1838C29.5993 16.2133 30.4338 17.0478 31.4633 17.0478Z" fill="white"/>
  
  <!-- Right Eye -->
  <path id="right_eye_base" d="M103.196 4.71481C95.9173 8.05481 88.3223 10.2958 80.2993 11.3498C80.2383 11.3578 80.1793 11.3548 80.1183 11.3598C79.8693 12.3968 79.7243 13.4738 79.7243 14.5868C79.7243 22.2168 85.9103 28.4028 93.5403 28.4028C101.17 28.4028 107.356 22.2168 107.356 14.5868C107.355 10.7168 105.76 7.22281 103.196 4.71481Z" fill="#262626"/>
  <path id="right_eye_glint_top" d="M101.592 5.43881C99.7383 6.24281 97.8603 6.96481 95.9633 7.62381C96.0833 8.39881 96.3803 9.20982 96.8763 9.97282C98.2683 12.1168 100.628 13.0558 102.147 12.0698C103.666 11.0838 103.769 8.54581 102.376 6.40181C102.141 6.04081 101.872 5.72781 101.592 5.43881Z" fill="white"/>
  <path id="right_eye_glint_bottom_left" d="M85.3583 23.2758C86.3877 23.2758 87.2223 22.4413 87.2223 21.4118C87.2223 20.3824 86.3877 19.5478 85.3583 19.5478C84.3288 19.5478 83.4943 20.3824 83.4943 21.4118C83.4943 22.4413 84.3288 23.2758 85.3583 23.2758Z" fill="white"/>
  <path id="right_eye_glint_bottom_right" d="M105.467 15.1838C105.467 16.2138 104.632 17.0488 103.602 17.0488C102.572 17.0488 101.738 16.2138 101.738 15.1838C101.738 14.1538 102.573 13.3198 103.602 13.3198C104.632 13.3198 105.467 14.1548 105.467 15.1838Z" fill="white"/>
  
  <!-- Muzzle/Mouth Area -->
  <path id="muzzle_base" d="M65.4573 40.4699C60.1323 39.6549 54.8083 39.6549 49.4833 40.4699C47.1563 40.9589 42.5223 37.9078 42.4473 33.3458C42.5223 28.7838 47.1553 25.7329 49.4833 26.2219C54.8083 27.0369 60.1323 27.0369 65.4573 26.2219C67.7853 25.7329 72.4183 28.7838 72.4933 33.3458C72.4173 37.9078 67.7843 40.9589 65.4573 40.4699Z" fill="#FF9861"/>
  <path id="teeth" d="M70.2833 29.6388V28.3298C68.7453 26.7698 66.7473 25.9498 65.4573 26.2208C60.1323 27.0358 54.8083 27.0358 49.4833 26.2208C48.1923 25.9498 46.1953 26.7698 44.6573 28.3288V29.6378C44.6573 31.2908 45.9973 32.6308 47.6503 32.6308H67.2903C68.9433 32.6318 70.2833 31.2918 70.2833 29.6388Z" fill="white"/>
  <path id="mouth_interior" d="M57.4703 34.8268C52.0253 34.8268 47.2033 35.9978 44.1523 37.8018C45.7313 39.7218 48.0463 40.7728 49.4833 40.4708C54.8083 39.6558 60.1323 39.6558 65.4573 40.4708C66.8943 40.7728 69.2093 39.7218 70.7883 37.8018C67.7373 35.9968 62.9153 34.8268 57.4703 34.8268Z" fill="#CF6D38"/>
  
  <!-- Heroic Eyebrows -->
  <path id="right_eyebrow" d="M77.8403 15.1388C89.0063 11.7608 100.172 8.38283 111.337 5.00483C112.322 4.70683 113.346 4.38782 114.096 3.68282C114.847 2.97782 115.229 1.76583 114.679 0.894827C113.903 -0.334172 112.066 -0.0681778 110.674 0.348822C101.344 3.14282 92.0183 5.94883 82.6843 8.72883C80.5293 9.37083 75.9553 9.18783 74.2383 10.5948C70.5983 13.5808 74.7283 16.0138 77.8403 15.1388Z" fill="#262626"/>
  <path id="right_eyebrow_detail" d="M76.2442 16.1408C75.0082 16.5788 73.5572 16.3488 72.5172 15.5498C71.4782 14.7508 70.8822 13.4068 70.9892 12.0998C70.7552 12.9628 70.3743 13.9668 70.5523 14.8428C70.7293 15.7188 71.2612 16.5578 72.0732 16.9318C72.7242 17.2308 73.4862 17.2068 74.1752 17.0118C74.8642 16.8178 75.6202 16.4918 76.2442 16.1408Z" fill="#262626"/>
  <path id="left_eyebrow" d="M37.0993 15.1388C25.9333 11.7608 14.7683 8.38283 3.60226 5.00483C2.61626 4.70683 1.59326 4.38782 0.843263 3.68282C0.0922629 2.97782 -0.289737 1.76583 0.260263 0.894827C1.03626 -0.334172 2.87326 -0.0681778 4.26526 0.348822C13.5953 3.14282 22.9213 5.94883 32.2553 8.72883C34.4103 9.37083 38.9843 9.18783 40.7013 10.5948C44.3423 13.5808 40.2113 16.0138 37.0993 15.1388Z" fill="#262626"/>
  <path id="left_eyebrow_detail" d="M38.6953 16.1408C39.9313 16.5788 41.3822 16.3488 42.4222 15.5498C43.4622 14.7508 44.0572 13.4068 43.9502 12.0998C44.1842 12.9628 44.5653 13.9668 44.3883 14.8428C44.2113 15.7188 43.6792 16.5578 42.8672 16.9318C42.2162 17.2308 41.4543 17.2068 40.7653 17.0118C40.0763 16.8178 39.3203 16.4918 38.6953 16.1408Z" fill="#262626"/>
</svg>