<svg width="107" height="30" viewBox="0 0 107 30" fill="none" xmlns="http://www.w3.org/2000/svg">
  <!-- Left Cheek/Blush -->
  <path id="left_cheek" d="M34.7432 16.0522C35.7532 20.2172 28.0742 26.1052 17.4162 26.0912C6.75722 26.1062 -0.920785 20.2182 0.0892153 16.0522C1.07522 11.8122 8.76922 10.3892 17.4162 10.3312C26.0632 10.3892 33.7572 11.8132 34.7432 16.0522Z" fill="#FF9861"/>
  
  <!-- Right Cheek/Blush -->
  <path id="right_cheek" d="M106.882 16.0522C107.892 20.2172 100.213 26.1052 89.5552 26.0912C78.8962 26.1062 71.2182 20.2182 72.2282 16.0522C73.2142 11.8122 80.9082 10.3892 89.5552 10.3312C98.2012 10.3892 105.896 11.8132 106.882 16.0522Z" fill="#FF9861"/>
  
  <!-- Muzzle Area -->
  <path id="muzzle_base" d="M70.9822 18.9972C70.9822 24.8222 63.1482 29.5442 53.4852 29.5442C43.8222 29.5442 35.9882 24.8222 35.9882 18.9972C35.9882 13.1722 43.8222 13.8632 53.4852 13.8632C63.1492 13.8632 70.9822 13.1712 70.9822 18.9972Z" fill="#FF9861"/>
  <path id="muzzle_shadow" d="M43.3662 19.9002C40.9402 20.2852 38.7102 20.9432 36.5982 21.7172C38.5912 26.2212 45.3862 29.5442 53.4862 29.5442C55.2612 29.5442 56.9722 29.3822 58.5862 29.0862C58.8612 28.4592 59.0712 27.8262 59.1702 27.1802C59.5122 24.9432 58.4202 22.5212 55.3792 21.0392C52.1952 19.4872 47.4392 19.2532 43.3662 19.9002Z" fill="#C2734A"/>
  
  <!-- Right Eye -->
  <path id="right_eye_base" d="M102.313 14.2422C100.253 14.9322 97.9472 14.4892 95.8632 14.1552C92.5892 13.6302 89.1962 13.3382 85.8912 13.7502C82.9862 14.1122 79.6842 15.2102 76.7962 14.2422C75.2572 13.4972 74.4732 10.3752 76.5652 6.92121C78.5082 3.55521 83.3292 -0.141811 89.5552 0.00418907C95.7802 -0.140811 100.6 3.55621 102.543 6.92121C104.636 10.3752 103.852 13.4972 102.313 14.2422" fill="#262626"/>
  <path id="right_eye_highlight_main" d="M100.999 6.65319C101.877 8.77319 100.776 9.45518 99.0652 8.70718C97.3292 7.95618 95.1572 6.45719 93.6782 5.05019C92.2172 3.67019 92.3672 2.38618 94.6832 2.41418C96.9972 2.42718 100.138 4.52719 100.999 6.65319" fill="white"/>
  <path id="right_eye_highlight_bottom_left" d="M84.4612 11.3982C84.6792 11.8602 84.2782 12.5072 83.6222 12.9652C82.9642 13.4172 82.1962 13.5882 81.8392 13.2232C81.4832 12.8612 81.7732 12.0002 82.5702 11.4482C83.3682 10.8942 84.2462 10.9382 84.4612 11.3982" fill="white"/>
  <path id="right_eye_highlight_bottom_right" d="M100.812 12.5392C100.404 12.8472 99.5312 12.3792 98.7532 11.6542C97.9792 10.9222 97.5032 10.1122 97.7852 9.68421C98.0632 9.26021 99.1092 9.45521 100.012 10.3042C100.916 11.1522 101.217 12.2352 100.812 12.5392" fill="white"/>
  
  <!-- Left Eye -->
  <path id="left_eye_base" d="M30.1742 14.2422C28.1142 14.9322 25.8092 14.4892 23.7242 14.1552C20.4502 13.6302 17.0572 13.3382 13.7522 13.7502C10.8472 14.1122 7.54521 15.2102 4.65621 14.2422C3.11721 13.4972 2.33321 10.3752 4.42521 6.92121C6.36821 3.55521 11.1892 -0.141811 17.4142 0.00418907C23.6392 -0.140811 28.4602 3.55621 30.4032 6.92121C32.4982 10.3752 31.7132 13.4972 30.1742 14.2422" fill="#262626"/>
  <path id="left_eye_highlight_main" d="M28.8612 6.65319C29.7392 8.77319 28.6382 9.45518 26.9272 8.70718C25.1912 7.95618 23.0192 6.45719 21.5402 5.05019C20.0792 3.67019 20.2292 2.38618 22.5452 2.41418C24.8592 2.42718 28.0002 4.52719 28.8612 6.65319" fill="white"/>
  <path id="left_eye_highlight_bottom_left" d="M12.3232 11.3982C12.5412 11.8602 12.1402 12.5072 11.4852 12.9652C10.8272 13.4172 10.0592 13.5882 9.70222 13.2232C9.34622 12.8612 9.63622 12.0002 10.4332 11.4482C11.2292 10.8942 12.1072 10.9382 12.3232 11.3982" fill="white"/>
  <path id="left_eye_highlight_bottom_right" d="M28.6732 12.5392C28.2652 12.8472 27.3922 12.3792 26.6142 11.6542C25.8402 10.9222 25.3642 10.1122 25.6462 9.68421C25.9242 9.26021 26.9702 9.45521 27.8732 10.3042C28.7772 11.1522 29.0782 12.2352 28.6732 12.5392" fill="white"/>
</svg>