<svg width="107" height="47" viewBox="0 0 107 47" fill="none" xmlns="http://www.w3.org/2000/svg">
  <!-- Left Cheek/Blush -->
  <path id="left_cheek" d="M34.7432 28.227C35.7532 32.392 28.0742 38.28 17.4162 38.265C6.75722 38.28 -0.920785 32.392 0.0892153 28.227C1.07522 23.987 8.76922 22.564 17.4162 22.506C26.0632 22.564 33.7572 23.987 34.7432 28.227Z" fill="#FF9861"/>
  
  <!-- Right Cheek/Blush -->
  <path id="right_cheek" d="M106.882 28.227C107.892 32.392 100.213 38.28 89.5552 38.265C78.8962 38.28 71.2182 32.392 72.2282 28.227C73.2142 23.987 80.9082 22.564 89.5552 22.506C98.2012 22.564 105.896 23.987 106.882 28.227Z" fill="#FF9861"/>
  
  <!-- Left Eye -->
  <path id="left_eye_base" d="M17.4162 27.632C25.0466 27.632 31.2322 21.4464 31.2322 13.816C31.2322 6.18564 25.0466 0 17.4162 0C9.78586 0 3.60022 6.18564 3.60022 13.816C3.60022 21.4464 9.78586 27.632 17.4162 27.632Z" fill="#262626"/>
  <path id="left_eye_glint_top" d="M26.2522 5.63202C27.6442 7.77602 27.5412 10.314 26.0232 11.3C24.5042 12.286 22.1442 11.347 20.7522 9.20303C19.3602 7.05903 19.4632 4.52102 20.9812 3.53502C22.5002 2.54902 24.8602 3.48802 26.2522 5.63202Z" fill="white"/>
  <path id="left_eye_glint_bottom_left" d="M9.23522 22.505C10.2647 22.505 11.0992 21.6704 11.0992 20.641C11.0992 19.6115 10.2647 18.777 9.23522 18.777C8.20576 18.777 7.37122 19.6115 7.37122 20.641C7.37122 21.6704 8.20576 22.505 9.23522 22.505Z" fill="white"/>
  <path id="left_eye_glint_bottom_right" d="M27.4792 16.278C28.5087 16.278 29.3432 15.4435 29.3432 14.414C29.3432 13.3845 28.5087 12.55 27.4792 12.55C26.4498 12.55 25.6152 13.3845 25.6152 14.414C25.6152 15.4435 26.4498 16.278 27.4792 16.278Z" fill="white"/>
  
  <!-- Right Eye -->
  <path id="right_eye_base" d="M89.5552 27.632C97.1856 27.632 103.371 21.4464 103.371 13.816C103.371 6.18564 97.1856 0 89.5552 0C81.9249 0 75.7392 6.18564 75.7392 13.816C75.7392 21.4464 81.9249 27.632 89.5552 27.632Z" fill="#262626"/>
  <path id="right_eye_glint_top" d="M98.3912 5.63202C99.7832 7.77602 99.6802 10.314 98.1612 11.3C96.6422 12.286 94.2822 11.347 92.8902 9.20303C91.4982 7.05903 91.6012 4.52102 93.1202 3.53502C94.6392 2.54902 96.9992 3.48802 98.3912 5.63202Z" fill="white"/>
  <path id="right_eye_glint_bottom_left" d="M81.3732 22.505C82.4027 22.505 83.2372 21.6704 83.2372 20.641C83.2372 19.6115 82.4027 18.777 81.3732 18.777C80.3438 18.777 79.5092 19.6115 79.5092 20.641C79.5092 21.6704 80.3438 22.505 81.3732 22.505Z" fill="white"/>
  <path id="right_eye_glint_bottom_right" d="M101.482 14.414C101.482 15.444 100.647 16.279 99.6182 16.279C98.5882 16.279 97.7532 15.444 97.7532 14.414C97.7532 13.384 98.5882 12.549 99.6182 12.549C100.647 12.55 101.482 13.384 101.482 14.414Z" fill="white"/>
  
  <!-- Muzzle/Nose Area -->
  <path id="muzzle" d="M64.8092 34.457C64.8092 41.252 59.7392 46.761 53.4852 46.761C47.2312 46.761 42.1612 41.252 42.1612 34.457C42.1612 27.662 47.2312 28.468 53.4852 28.468C59.7392 28.469 64.8092 27.662 64.8092 34.457Z" fill="#FF9861"/>
  <path id="nose_shadow" d="M46.9362 35.512C45.3662 35.962 43.9232 36.729 42.5562 37.631C43.8462 42.885 48.2432 46.761 53.4852 46.761C54.6342 46.761 55.7412 46.572 56.7862 46.226C56.9642 45.495 57.1002 44.756 57.1642 44.003C57.3862 41.393 56.6782 38.568 54.7112 36.839C52.6502 35.03 49.5732 34.756 46.9362 35.512Z" fill="#C2734A"/>
</svg>