<svg width="114" height="49" viewBox="0 0 114 49" fill="none" xmlns="http://www.w3.org/2000/svg">
  <!-- Left Cheek/Blush -->
  <path id="left_cheek" d="M38.6414 33.6868C39.6514 37.8518 31.9724 43.7398 21.3144 43.7248C10.6554 43.7398 2.97741 37.8518 3.98741 33.6868C4.97341 29.4468 12.6674 28.0238 21.3144 27.9658C29.9604 28.0238 37.6554 29.4468 38.6414 33.6868Z" fill="#FF9861"/>
  
  <!-- Right Cheek/Blush -->
  <path id="right_cheek" d="M110.78 33.6868C111.79 37.8518 104.111 43.7398 93.4534 43.7248C82.7944 43.7398 75.1164 37.8518 76.1264 33.6868C77.1124 29.4468 84.8064 28.0238 93.4534 27.9658C102.099 28.0238 109.793 29.4468 110.78 33.6868Z" fill="#FF9861"/>
  
  <!-- Right Whiskers/Eyelashes -->
  <path id="right_whisker_top" d="M98.8244 11.8027C97.9754 11.8027 97.1884 11.2587 96.9194 10.4067C96.5854 9.35374 97.1684 8.22974 98.2224 7.89574C100.702 7.11074 102.613 4.55774 102.667 1.95774C102.69 0.853743 103.624 -0.0292576 104.709 0.000742418C105.813 0.0237424 106.689 0.938742 106.667 2.04274C106.576 6.34374 103.532 10.4097 99.4294 11.7087C99.2284 11.7727 99.0244 11.8027 98.8244 11.8027Z" fill="#262626"/>
  <path id="right_whisker_middle" d="M101.723 15.9037C100.636 15.9037 99.7454 15.0317 99.7244 13.9407C99.7044 12.8367 100.583 11.9247 101.687 11.9047C103.442 11.8727 105.197 11.1807 106.501 10.0067C107.807 8.83374 108.68 7.16174 108.898 5.41974C109.035 4.32374 110.038 3.54374 111.13 3.68374C112.226 3.82074 113.003 4.81973 112.866 5.91573C112.531 8.59773 111.186 11.1727 109.176 12.9817C107.166 14.7897 104.463 15.8547 101.761 15.9037C101.749 15.9037 101.736 15.9037 101.723 15.9037Z" fill="#262626"/>
  <path id="right_whisker_bottom" d="M104.833 20.6898C104.749 20.6898 104.664 20.6888 104.579 20.6858C103.475 20.6558 102.604 19.7368 102.635 18.6328C102.664 17.5478 103.554 16.6868 104.633 16.6868C104.699 16.6878 104.767 16.6898 104.834 16.6898C107.008 16.6898 109.218 15.3818 110.248 13.4708C110.773 12.4988 111.985 12.1348 112.958 12.6598C113.931 13.1838 114.293 14.3968 113.769 15.3688C112.04 18.5758 108.472 20.6898 104.833 20.6898Z" fill="#262626"/>
  
  <!-- Left Whiskers/Eyelashes -->
  <path id="left_whisker_top" d="M15.1844 11.8027C16.0334 11.8027 16.8204 11.2587 17.0894 10.4067C17.4234 9.35374 16.8404 8.22974 15.7864 7.89574C13.3064 7.11074 11.3954 4.55774 11.3414 1.95774C11.3174 0.853743 10.3844 -0.0292576 9.29939 0.000742418C8.19439 0.0237424 7.31839 0.938742 7.34139 2.04274C7.43239 6.34374 10.4764 10.4097 14.5794 11.7087C14.7804 11.7727 14.9844 11.8027 15.1844 11.8027Z" fill="#262626"/>
  <path id="left_whisker_middle" d="M12.2854 15.9037C13.3724 15.9037 14.2644 15.0317 14.2844 13.9407C14.3044 12.8367 13.4254 11.9247 12.3214 11.9047C10.5664 11.8727 8.81142 11.1807 7.50742 10.0067C6.20142 8.83374 5.32843 7.16174 5.11043 5.41974C4.97343 4.32374 3.97042 3.54374 2.87842 3.68374C1.78242 3.82074 1.00543 4.81973 1.14243 5.91573C1.47743 8.59773 2.82243 11.1727 4.83243 12.9817C6.84243 14.7897 9.54543 15.8547 12.2474 15.9037C12.2604 15.9037 12.2724 15.9037 12.2854 15.9037Z" fill="#262626"/>
  <path id="left_whisker_bottom" d="M9.1764 20.6898C9.2604 20.6898 9.3454 20.6888 9.4304 20.6858C10.5344 20.6558 11.4054 19.7368 11.3744 18.6328C11.3454 17.5478 10.4554 16.6868 9.3764 16.6868C9.3104 16.6878 9.24241 16.6898 9.17541 16.6898C7.00141 16.6898 4.79141 15.3818 3.76141 13.4708C3.23641 12.4988 2.0244 12.1348 1.0514 12.6598C0.0784048 13.1838 -0.283592 14.3968 0.239408 15.3688C1.96941 18.5758 5.5364 20.6898 9.1764 20.6898Z" fill="#262626"/>
  
  <!-- Left Eye -->
  <path id="left_eye_base" d="M20.9354 33.0917C28.5658 33.0917 34.7514 26.9061 34.7514 19.2757C34.7514 11.6454 28.5658 5.45972 20.9354 5.45972C13.305 5.45972 7.11938 11.6454 7.11938 19.2757C7.11938 26.9061 13.305 33.0917 20.9354 33.0917Z" fill="#262626"/>
  <path id="left_eye_glint_top" d="M29.7714 11.0917C31.1634 13.2357 31.0604 15.7737 29.5414 16.7597C28.0224 17.7457 25.6624 16.8067 24.2704 14.6627C22.8784 12.5187 22.9814 9.98074 24.4994 8.99474C26.0194 8.00874 28.3794 8.94774 29.7714 11.0917Z" fill="white"/>
  <path id="left_eye_glint_bottom_left" d="M12.7544 27.9647C13.7838 27.9647 14.6184 27.1302 14.6184 26.1007C14.6184 25.0712 13.7838 24.2367 12.7544 24.2367C11.7249 24.2367 10.8904 25.0712 10.8904 26.1007C10.8904 27.1302 11.7249 27.9647 12.7544 27.9647Z" fill="white"/>
  <path id="left_eye_glint_bottom_right" d="M30.9984 21.7377C32.0279 21.7377 32.8624 20.9032 32.8624 19.8737C32.8624 18.8443 32.0279 18.0097 30.9984 18.0097C29.9689 18.0097 29.1344 18.8443 29.1344 19.8737C29.1344 20.9032 29.9689 21.7377 30.9984 21.7377Z" fill="white"/>
  
  <!-- Right Eye -->
  <path id="right_eye_base" d="M93.0744 33.0917C100.705 33.0917 106.89 26.9061 106.89 19.2757C106.89 11.6454 100.705 5.45972 93.0744 5.45972C85.444 5.45972 79.2584 11.6454 79.2584 19.2757C79.2584 26.9061 85.444 33.0917 93.0744 33.0917Z" fill="#262626"/>
  <path id="right_eye_glint_top" d="M101.91 11.0917C103.302 13.2357 103.199 15.7737 101.681 16.7597C100.162 17.7457 97.8024 16.8067 96.4104 14.6627C95.0184 12.5187 95.1214 9.98074 96.6394 8.99474C98.1584 8.00874 100.518 8.94774 101.91 11.0917Z" fill="white"/>
  <path id="right_eye_glint_bottom_left" d="M84.8924 27.9647C85.9219 27.9647 86.7564 27.1302 86.7564 26.1007C86.7564 25.0712 85.9219 24.2367 84.8924 24.2367C83.8629 24.2367 83.0284 25.0712 83.0284 26.1007C83.0284 27.1302 83.8629 27.9647 84.8924 27.9647Z" fill="white"/>
  <path id="right_eye_glint_bottom_right" d="M103.137 21.7377C104.167 21.7377 105.001 20.9032 105.001 19.8737C105.001 18.8443 104.167 18.0097 103.137 18.0097C102.108 18.0097 101.273 18.8443 101.273 19.8737C101.273 20.9032 102.108 21.7377 103.137 21.7377Z" fill="white"/>
  
  <!-- Smile -->
  <path id="smile" d="M56.8944 48.2867C49.9874 48.2867 43.1804 44.2628 39.8764 38.1928C39.0844 36.7378 39.6214 34.9158 41.0764 34.1238C42.5344 33.3308 44.3534 33.8687 45.1454 35.3247C47.4604 39.5767 52.2654 42.3797 57.1114 42.2847C61.9534 42.1947 66.6544 39.2207 68.8094 34.8837C69.5464 33.3987 71.3494 32.7937 72.8314 33.5327C74.3154 34.2697 74.9204 36.0708 74.1834 37.5548C71.0584 43.8408 64.2434 48.1527 57.2234 48.2837C57.1144 48.2857 57.0044 48.2867 56.8944 48.2867Z" fill="#262626"/>
</svg>