<svg width="107" height="34" viewBox="0 0 107 34" fill="none" xmlns="http://www.w3.org/2000/svg">
  <!-- Left Squinted Eye -->
  <path id="left_eye_squint" d="M32.5252 15.3132C34.4012 16.6852 36.7932 14.3462 35.5502 12.3822C33.7002 9.45916 31.6882 6.63916 29.5252 3.93916C28.2782 2.38216 26.8692 0.789168 24.9552 0.224168C22.5022 -0.499832 19.9112 0.651184 17.7062 1.94618C14.4272 3.87218 11.3782 6.19017 8.64019 8.82817C6.58919 10.8052 9.30719 14.0782 11.5842 12.3662C11.6052 12.3502 11.6262 12.3342 11.6472 12.3192C13.6042 10.8232 15.3502 9.03618 17.4632 7.76918C19.5762 6.50218 22.2272 5.80117 24.5152 6.71617C26.3472 7.44917 27.6492 9.08217 28.7542 10.7162C29.8592 12.3502 30.8962 14.0982 32.4782 15.2772C32.4932 15.2902 32.5092 15.3022 32.5252 15.3132Z" fill="#262626"/>
  
  <!-- Right Squinted Eye -->
  <path id="right_eye_squint" d="M73.3482 15.3132C71.4722 16.6852 69.0802 14.3462 70.3232 12.3822C72.1732 9.45916 74.1862 6.63916 76.3482 3.93916C77.5952 2.38216 79.0042 0.789168 80.9182 0.224168C83.3712 -0.499832 85.9622 0.651184 88.1672 1.94618C91.4462 3.87218 94.4952 6.19017 97.2332 8.82817C99.2842 10.8052 96.5652 14.0782 94.2882 12.3662C94.2672 12.3502 94.2462 12.3342 94.2252 12.3192C92.2682 10.8232 90.5222 9.03618 88.4092 7.76918C86.2962 6.50218 83.6452 5.80117 81.3572 6.71617C79.5252 7.44917 78.2232 9.08217 77.1182 10.7162C76.0132 12.3502 74.9762 14.0982 73.3952 15.2772C73.3802 15.2902 73.3642 15.3022 73.3482 15.3132Z" fill="#262626"/>
  
  <!-- Muzzle/Nose -->
  <path id="muzzle" d="M56.9022 27.2932C56.9022 30.9822 55.1262 33.9722 52.9362 33.9722C50.7462 33.9722 48.9702 30.9822 48.9702 27.2932C48.9702 23.6042 50.7462 20.6142 52.9362 20.6142C55.1272 20.6142 56.9022 23.6042 56.9022 27.2932" fill="#FF9861"/>
  
  <!-- Left Cheek/Blush -->
  <path id="left_cheek" d="M34.7432 22.8382C35.7532 27.0032 28.0742 32.8912 17.4162 32.8762C6.75721 32.8912 -0.920785 27.0032 0.0892153 22.8382C1.07522 18.5982 8.76921 17.1752 17.4162 17.1172C26.0622 17.1742 33.7562 18.5982 34.7432 22.8382Z" fill="#FF9861"/>
  
  <!-- Right Cheek/Blush -->
  <path id="right_cheek" d="M106.881 22.8382C107.891 27.0032 100.212 32.8912 89.5542 32.8762C78.8952 32.8912 71.2172 27.0032 72.2272 22.8382C73.2132 18.5982 80.9072 17.1752 89.5542 17.1172C98.2012 17.1742 105.895 18.5982 106.881 22.8382Z" fill="#FF9861"/>
</svg>