<svg width="107" height="44" viewBox="0 0 107 44" fill="none" xmlns="http://www.w3.org/2000/svg">
  <!-- Muzzle/Mouth Area -->
  <path id="muzzle_base" d="M64.4502 30.75C64.4502 37.545 59.3802 43.054 53.1262 43.054C46.8722 43.054 41.8022 37.546 41.8022 30.75C41.8022 23.955 46.8722 24.761 53.1262 24.761C59.3802 24.761 64.4502 23.955 64.4502 30.75Z" fill="#FF9861"/>
  <path id="mouth_interior" d="M42.6312 35.357C44.3102 39.868 48.3732 43.053 53.1262 43.053C57.8792 43.053 61.9422 39.867 63.6212 35.357C60.6252 34.03 57.0142 33.256 53.1262 33.256C49.2382 33.256 45.6272 34.03 42.6312 35.357Z" fill="#CF6D38"/>
  <path id="teeth" d="M59.8002 30.012C61.2362 30.012 62.4012 28.847 62.4012 27.411V25.802C60.3532 24.464 56.9662 24.761 53.1272 24.761C49.2882 24.761 45.9012 24.464 43.8532 25.802V27.411C43.8532 28.847 45.0182 30.012 46.4542 30.012H59.8002Z" fill="white"/>
  
  <!-- Left Eye (Closed/Happy) -->
  <path id="left_eye_arch" d="M22.6192 0C15.7122 0 8.90522 4.02401 5.60122 10.094C4.80922 11.549 5.34622 13.371 6.80122 14.163C8.25922 14.956 10.0782 14.418 10.8702 12.962C13.1862 8.71001 17.9902 5.907 22.8362 6.002C27.6782 6.092 32.3792 9.066 34.5342 13.403C35.2712 14.888 37.0742 15.493 38.5552 14.754C40.0392 14.017 40.6442 12.216 39.9072 10.732C36.7822 4.44601 29.9672 0.134006 22.9472 0.00300598C22.8392 0.00100598 22.7292 0 22.6192 0Z" fill="#262626"/>
  
  <!-- Right Eye (Closed/Happy) -->
  <path id="right_eye_arch" d="M82.9172 0C89.8242 0 96.6312 4.02401 99.9352 10.094C100.727 11.549 100.19 13.371 98.7352 14.163C97.2772 14.956 95.4582 14.418 94.6662 12.962C92.3512 8.71001 87.5462 5.907 82.7002 6.002C77.8582 6.092 73.1572 9.066 71.0022 13.403C70.2652 14.888 68.4622 15.493 66.9802 14.754C65.4962 14.017 64.8912 12.216 65.6282 10.732C68.7532 4.44601 75.5682 0.134006 82.5882 0.00300598C82.6972 0.00100598 82.8072 0 82.9172 0Z" fill="#262626"/>
  
  <!-- Left Cheek/Blush -->
  <path id="left_cheek" d="M34.7432 24.048C35.7532 28.213 28.0742 34.101 17.4162 34.086C6.75721 34.101 -0.920785 28.213 0.0892153 24.048C1.07522 19.808 8.76921 18.385 17.4162 18.327C26.0622 18.385 33.7572 19.809 34.7432 24.048Z" fill="#FF9861"/>
  
  <!-- Right Cheek/Blush -->
  <path id="right_cheek" d="M106.882 24.048C107.892 28.213 100.213 34.101 89.5553 34.086C78.8962 34.101 71.2183 28.213 72.2283 24.048C73.2143 19.808 80.9082 18.385 89.5553 18.327C98.2013 18.385 105.895 19.809 106.882 24.048Z" fill="#FF9861"/>
</svg>