<svg width="108" height="48" viewBox="0 0 108 48" fill="none" xmlns="http://www.w3.org/2000/svg">
  <!-- Left Cheek/Blush -->
  <path id="left_cheek" d="M34.7432 26.802C35.7532 30.967 28.0742 36.855 17.4162 36.841C6.75721 36.856 -0.920785 30.968 0.0892153 26.802C1.07522 22.562 8.76921 21.139 17.4162 21.081C26.0622 21.139 33.7562 22.563 34.7432 26.802Z" fill="#FF9861"/>
  
  <!-- Right Cheek/Blush -->
  <path id="right_cheek" d="M106.881 26.802C107.891 30.967 100.212 36.855 89.5542 36.841C78.8952 36.856 71.2172 30.968 72.2272 26.802C73.2132 22.562 80.9072 21.139 89.5542 21.081C98.2012 21.139 105.895 22.563 106.881 26.802Z" fill="#FF9861"/>
  
  <!-- Left Eye (Open/Sparkly) -->
  <path id="left_eye_base" d="M17.4152 28.154C25.0456 28.154 31.2312 21.9684 31.2312 14.338C31.2312 6.70765 25.0456 0.522003 17.4152 0.522003C9.78483 0.522003 3.59921 6.70765 3.59921 14.338C3.59921 21.9684 9.78483 28.154 17.4152 28.154Z" fill="#262626"/>
  <path id="left_eye_glint_top" d="M26.2522 6.15402C27.6442 8.29802 27.5412 10.836 26.0222 11.822C24.5032 12.808 22.1432 11.869 20.7512 9.725C19.3592 7.581 19.4622 5.043 20.9802 4.057C22.5002 3.07 24.8602 4.00902 26.2522 6.15402Z" fill="white"/>
  <path id="left_eye_glint_bottom_left" d="M11.0992 21.163C11.0992 22.193 10.2642 23.027 9.23419 23.027C8.20419 23.027 7.3692 22.192 7.3692 21.163C7.3692 20.133 8.20419 19.298 9.23419 19.298C10.2642 19.299 11.0992 20.133 11.0992 21.163Z" fill="white"/>
  <path id="left_eye_glint_bottom_right" d="M29.3432 14.936C29.3432 15.966 28.5082 16.801 27.4782 16.801C26.4482 16.801 25.6132 15.966 25.6132 14.936C25.6132 13.906 26.4482 13.071 27.4782 13.071C28.5082 13.071 29.3432 13.906 29.3432 14.936Z" fill="white"/>
  
  <!-- Right Eye (Winking/Relaxed) -->
  <path id="right_eye_relaxed_upper" d="M105.196 29.455C104.651 29.455 104.102 29.277 103.642 28.912C95.8782 22.742 84.6582 20.558 75.7242 23.478C74.7442 23.801 73.6582 23.482 73.0052 22.676C72.3532 21.871 72.2652 20.747 72.7832 19.85C79.3262 8.54102 91.4842 0.938031 104.515 0.00703072C105.87 -0.0959693 107.088 0.945033 107.186 2.32203C107.285 3.69903 106.248 4.89502 104.871 4.99302C95.6712 5.65002 86.6922 10.346 80.6482 17.382C89.6632 16.494 99.5172 19.247 106.752 24.997C107.833 25.856 108.013 27.429 107.153 28.51C106.662 29.132 105.932 29.455 105.196 29.455Z" fill="#262626"/>
  <path id="right_eye_relaxed_lower" d="M77.7722 20.911C76.9772 20.911 76.1962 20.533 75.7102 19.829C74.9282 18.691 75.2152 17.135 76.3522 16.351C83.5252 11.412 92.5562 9.45601 101.129 10.992C102.487 11.235 103.393 12.534 103.15 13.893C102.907 15.252 101.61 16.155 100.249 15.914C92.9652 14.61 85.2872 16.272 79.1882 20.471C78.7542 20.768 78.2612 20.911 77.7722 20.911Z" fill="#262626"/>
  
  <!-- Muzzle/Nose Area -->
  <path id="muzzle_base" d="M64.8082 34.979C64.8082 41.774 59.7382 47.283 53.4842 47.283C47.2302 47.283 42.1602 41.774 42.1602 34.979C42.1602 28.184 47.2302 28.99 53.4842 28.99C59.7392 28.991 64.8082 28.184 64.8082 34.979Z" fill="#FF9861"/>
  <path id="muzzle_shadow" d="M46.9362 36.033C45.3662 36.483 43.9232 37.25 42.5562 38.153C43.8462 43.407 48.2432 47.283 53.4852 47.283C54.6342 47.283 55.7412 47.094 56.7862 46.748C56.9642 46.017 57.1002 45.278 57.1642 44.525C57.3862 41.915 56.6782 39.09 54.7112 37.361C52.6502 35.551 49.5722 35.278 46.9362 36.033Z" fill="#C2734A"/>
</svg>