<svg width="107" height="45" viewBox="0 0 107 45" fill="none" xmlns="http://www.w3.org/2000/svg">
  <!-- Left Cheek/Blush -->
  <path id="left_cheek" d="M34.7432 28.098C35.7532 32.263 28.0742 38.151 17.4162 38.137C6.75721 38.152 -0.920785 32.264 0.0892153 28.098C1.07522 23.858 8.76921 22.435 17.4162 22.377C26.0622 22.435 33.7572 23.859 34.7432 28.098Z" fill="#FF9861"/>
  
  <!-- Right Cheek/Blush -->
  <path id="right_cheek" d="M106.882 28.098C107.892 32.263 100.213 38.151 89.5553 38.137C78.8962 38.152 71.2183 32.264 72.2283 28.098C73.2143 23.858 80.9082 22.435 89.5553 22.377C98.2013 22.435 105.895 23.859 106.882 28.098Z" fill="#FF9861"/>
  
  <!-- Muzzle Area -->
  <path id="muzzle_base" d="M70.5922 29.322C72.9812 35.645 65.7252 44.096 54.0232 44.117C42.3222 44.097 35.0642 35.646 37.4542 29.322C39.5702 22.828 45.6702 25.849 54.0232 25.825C62.3762 25.849 68.4752 22.828 70.5922 29.322Z" fill="#FF9861"/>
  <path id="muzzle_shadow" d="M44.1882 32.019C41.7732 32.055 39.4462 32.283 37.1182 32.536C37.3702 38.108 44.3572 44.139 54.0232 44.117C56.0942 44.117 58.0882 43.833 59.9222 43.327C60.1762 42.571 60.3432 41.812 60.3812 41.052C60.5042 38.401 58.9882 35.778 55.9132 34.165C52.6712 32.484 48.2482 31.987 44.1882 32.019Z" fill="#C2734A"/>
  
  <!-- Right Confident Eye/Brow -->
  <path id="right_eye_relaxed_upper" d="M104.269 29.455C103.724 29.455 103.175 29.277 102.715 28.912C94.9512 22.742 83.7312 20.558 74.7972 23.478C73.8172 23.801 72.7312 23.482 72.0782 22.676C71.4262 21.871 71.3382 20.747 71.8562 19.85C78.3992 8.54105 90.5572 0.938031 103.589 0.00703072C104.943 -0.0959693 106.162 0.945033 106.26 2.32203C106.359 3.69903 105.322 4.89505 103.944 4.99305C94.7442 5.65005 85.7652 10.346 79.7212 17.382C88.7362 16.494 98.5902 19.2471 105.825 24.9971C106.906 25.8561 107.086 27.4291 106.226 28.5101C105.735 29.1321 105.006 29.455 104.269 29.455Z" fill="#262626"/>
  <path id="right_eye_relaxed_lower" d="M76.8462 20.91C76.0512 20.91 75.2702 20.532 74.7842 19.828C74.0022 18.69 74.2892 17.134 75.4262 16.35C82.5992 11.411 91.6302 9.45503 100.203 10.991C101.561 11.234 102.467 12.533 102.224 13.892C101.981 15.251 100.684 16.154 99.3232 15.913C92.0392 14.609 84.3612 16.271 78.2622 20.47C77.8282 20.768 77.3352 20.91 76.8462 20.91Z" fill="#262626"/>
  
  <!-- Left Confident Eye/Brow -->
  <path id="left_eye_relaxed_upper" d="M3.7772 29.455C4.3222 29.455 4.87119 29.277 5.33119 28.912C13.0952 22.742 24.3152 20.558 33.2492 23.478C34.2292 23.801 35.3152 23.482 35.9682 22.676C36.6202 21.871 36.7082 20.747 36.1902 19.85C29.6472 8.54105 17.4892 0.938031 4.4582 0.00703072C3.1042 -0.0959693 1.8852 0.945033 1.7872 2.32203C1.6882 3.69903 2.7252 4.89505 4.1022 4.99305C13.3022 5.65005 22.2812 10.346 28.3252 17.382C19.3102 16.494 9.4562 19.2471 2.2202 24.9971C1.1392 25.8561 0.959195 27.4291 1.81919 28.5101C2.31119 29.1321 3.0412 29.455 3.7772 29.455Z" fill="#262626"/>
  <path id="left_eye_relaxed_lower" d="M31.2012 20.91C31.9962 20.91 32.7772 20.532 33.2632 19.828C34.0452 18.69 33.7582 17.134 32.6212 16.35C25.4482 11.411 16.4172 9.45503 7.84419 10.991C6.48619 11.234 5.58019 12.533 5.82319 13.892C6.06619 15.251 7.36319 16.154 8.72419 15.913C16.0082 14.609 23.6862 16.271 29.7842 20.47C30.2192 20.768 30.7122 20.91 31.2012 20.91Z" fill="#262626"/>
</svg>