<svg width="107" height="35" viewBox="0 0 107 35" fill="none" xmlns="http://www.w3.org/2000/svg">
  <!-- Left Cheek/Blush -->
  <path id="left_cheek" d="M34.7432 22.4392C35.7532 26.6042 28.0742 32.4922 17.4162 32.4772C6.75722 32.4922 -0.920785 26.6042 0.0892153 22.4392C1.07522 18.1992 8.76922 16.7762 17.4162 16.7182C26.0632 16.7752 33.7572 18.1992 34.7432 22.4392Z" fill="#FF9861"/>
  
  <!-- Right Cheek/Blush -->
  <path id="right_cheek" d="M106.882 22.4392C107.892 26.6042 100.213 32.4922 89.5552 32.4772C78.8962 32.4922 71.2182 26.6042 72.2282 22.4392C73.2142 18.1992 80.9082 16.7762 89.5552 16.7182C98.2012 16.7752 105.896 18.1992 106.882 22.4392Z" fill="#FF9861"/>
  
  <!-- Muzzle Area -->
  <path id="muzzle_base" d="M69.8492 31.1042C66.6792 34.5092 59.7212 33.7542 53.4852 34.0392C47.2502 33.7542 40.2922 34.5102 37.1212 31.1042C34.0412 27.6262 42.3222 21.4122 53.4852 21.5592C64.6482 21.4132 72.9292 27.6262 69.8492 31.1042Z" fill="#FF9861"/>
  <path id="muzzle_shadow" d="M43.9302 28.1421C41.8292 29.2831 40.1672 30.8221 38.8912 32.4921C42.7012 34.1381 48.1312 33.9151 53.4852 34.0391C54.6972 34.0391 55.8682 34.0261 57.0212 34.0011C57.3022 33.5461 57.5532 33.0832 57.7322 32.5962C58.3562 30.9462 57.9982 28.7502 55.2422 27.3302C52.3902 25.8152 47.4422 26.1411 43.9302 28.1421Z" fill="#C2734A"/>
  
  <!-- Left Eye (Closed Happy) -->
  <path id="left_eye_arch" d="M23.3372 15.0692C16.4302 15.0692 9.62321 11.0452 6.31921 4.97516C5.52721 3.52016 6.06421 1.69816 7.51921 0.906157C8.97721 0.113157 10.7962 0.651177 11.5882 2.10718C13.9042 6.35918 18.7082 9.16217 23.5542 9.06717C28.3962 8.97717 33.0972 6.00317 35.2522 1.66617C35.9892 0.181167 37.7922 -0.423846 39.2732 0.315154C40.7572 1.05215 41.3622 2.85316 40.6252 4.33716C37.5002 10.6232 30.6852 14.9352 23.6652 15.0662C23.5562 15.0682 23.4462 15.0692 23.3372 15.0692Z" fill="#262626"/>
  
  <!-- Right Eye (Closed Happy) -->
  <path id="right_eye_arch" d="M83.6342 15.0692C90.5412 15.0692 97.3482 11.0452 100.652 4.97516C101.444 3.52016 100.907 1.69816 99.4522 0.906157C97.9942 0.113157 96.1752 0.651177 95.3832 2.10718C93.0682 6.35918 88.2632 9.16217 83.4172 9.06717C78.5752 8.97717 73.8742 6.00317 71.7192 1.66617C70.9822 0.181167 69.1792 -0.423846 67.6982 0.315154C66.2142 1.05215 65.6092 2.85316 66.3462 4.33716C69.4712 10.6232 76.2862 14.9352 83.3062 15.0662C83.4142 15.0682 83.5252 15.0692 83.6342 15.0692Z" fill="#262626"/>
</svg>