<svg width="107" height="42" viewBox="0 0 107 42" fill="none" xmlns="http://www.w3.org/2000/svg">
  <!-- Left Cheek/Blush -->
  <path id="left_cheek" d="M34.7432 28.227C35.7532 32.392 28.0742 38.28 17.4162 38.265C6.75721 38.28 -0.920785 32.392 0.0892153 28.227C1.07522 23.987 8.76921 22.564 17.4162 22.506C26.0622 22.564 33.7562 23.987 34.7432 28.227Z" fill="#FF9861"/>
  
  <!-- Right Cheek/Blush -->
  <path id="right_cheek" d="M106.881 28.227C107.891 32.392 100.212 38.28 89.5542 38.265C78.8952 38.28 71.2172 32.392 72.2272 28.227C73.2132 23.987 80.9072 22.564 89.5542 22.506C98.2012 22.564 105.895 23.987 106.881 28.227Z" fill="#FF9861"/>
  
  <!-- Left Eye -->
  <path id="left_eye_base" d="M17.4152 27.632C25.0456 27.632 31.2312 21.4464 31.2312 13.816C31.2312 6.18564 25.0456 0 17.4152 0C9.78483 0 3.59921 6.18564 3.59921 13.816C3.59921 21.4464 9.78483 27.632 17.4152 27.632Z" fill="#262626"/>
  <path id="left_eye_glint_top" d="M26.2522 5.63202C27.6442 7.77602 27.5412 10.314 26.0222 11.3C24.5032 12.286 22.1432 11.347 20.7512 9.20303C19.3592 7.05903 19.4622 4.52102 20.9802 3.53502C22.5002 2.54902 24.8602 3.48802 26.2522 5.63202Z" fill="white"/>
  <path id="left_eye_glint_bottom_left" d="M11.0992 20.641C11.0992 21.671 10.2642 22.506 9.23419 22.506C8.20419 22.506 7.3692 21.671 7.3692 20.641C7.3692 19.611 8.20419 18.777 9.23419 18.777C10.2642 18.777 11.0992 19.611 11.0992 20.641Z" fill="white"/>
  <path id="left_eye_glint_bottom_right" d="M29.3432 14.414C29.3432 15.444 28.5082 16.279 27.4782 16.279C26.4482 16.279 25.6132 15.444 25.6132 14.414C25.6132 13.384 26.4482 12.549 27.4782 12.549C28.5082 12.55 29.3432 13.384 29.3432 14.414Z" fill="white"/>
  
  <!-- Right Eye -->
  <path id="right_eye_base" d="M89.5542 27.632C97.1846 27.632 103.37 21.4464 103.37 13.816C103.37 6.18564 97.1846 0 89.5542 0C81.9238 0 75.7382 6.18564 75.7382 13.816C75.7382 21.4464 81.9238 27.632 89.5542 27.632Z" fill="#262626"/>
  <path id="right_eye_glint_top" d="M98.3902 5.63202C99.7822 7.77602 99.6792 10.314 98.1612 11.3C96.6422 12.286 94.2822 11.347 92.8902 9.20303C91.4982 7.05903 91.6012 4.52102 93.1192 3.53502C94.6372 2.54902 96.9982 3.48802 98.3902 5.63202Z" fill="white"/>
  <path id="right_eye_glint_bottom_left" d="M83.2372 20.641C83.2372 21.671 82.4022 22.506 81.3722 22.506C80.3422 22.506 79.5072 21.671 79.5072 20.641C79.5072 19.611 80.3422 18.777 81.3722 18.777C82.4032 18.777 83.2372 19.611 83.2372 20.641Z" fill="white"/>
  <path id="right_eye_glint_bottom_right" d="M101.482 14.414C101.482 15.444 100.647 16.279 99.6172 16.279C98.5872 16.279 97.7522 15.444 97.7522 14.414C97.7522 13.384 98.5872 12.549 99.6172 12.549C100.647 12.55 101.482 13.384 101.482 14.414Z" fill="white"/>
  
  <!-- Silly/Cat Mouth -->
  <path id="silly_mouth" d="M70.3512 29.2C69.3152 29.2 68.4752 30.04 68.4752 31.076C68.4752 34.692 65.5332 37.634 61.9182 37.634C58.3022 37.634 55.3602 34.692 55.3602 31.076C55.3602 30.04 54.5202 29.2 53.4842 29.2C52.4482 29.2 51.6082 30.04 51.6082 31.076C51.6082 34.692 48.6662 37.634 45.0502 37.634C41.4342 37.634 38.4922 34.692 38.4922 31.076C38.4922 30.04 37.6522 29.2 36.6162 29.2C35.5802 29.2 34.7402 30.04 34.7402 31.076C34.7402 36.761 39.3642 41.385 45.0492 41.385C48.5352 41.385 51.6162 39.642 53.4832 36.986C55.3502 39.642 58.4312 41.385 61.9172 41.385C67.6012 41.385 72.2252 36.76 72.2252 31.076C72.2272 30.04 71.3872 29.2 70.3512 29.2Z" fill="#262626"/>
</svg>